<?xml version="1.0" encoding="UTF-8"?><svg id="a" xmlns="http://www.w3.org/2000/svg" viewBox="0 0 111.1628 56.6171"><path d="M92.3256,1c9.8354,0,17.8372,8.0018,17.8372,17.8372s-8.0017,17.8372-17.8372,17.8372H18.8372C9.0017,36.6744,1,28.6727,1,18.8372S9.0017,1,18.8372,1h73.4884M92.3256,0H18.8372C8.4767,0,0,8.4767,0,18.8372h0c0,10.3605,8.4767,18.8372,18.8372,18.8372h73.4884c10.3604,0,18.8372-8.4767,18.8372-18.8372h0c0-10.3605-8.4767-18.8372-18.8372-18.8372h0Z" fill="#999"/><path d="M23.5315,25.0263l-1.5479-3.978h-5.0942l-1.5298,3.978h-1.6382l5.022-12.9058h1.458l5.0039,12.9058h-1.6738ZM20.0574,15.7202c-.0361-.0957-.0962-.27-.1802-.522s-.165-.5127-.2427-.7827c-.0781-.27-.1411-.4771-.189-.6211-.084.3721-.1802.7354-.2881,1.0889-.1079.354-.1982.6333-.27.8369l-1.458,3.8882h4.0679l-1.4399-3.8882Z" fill="#999"/><path d="M30.1736,25.2065c-1.2002,0-2.1602-.417-2.8804-1.251-.7197-.834-1.0796-2.0791-1.0796-3.7354s.3628-2.9067,1.0889-3.7529c.7256-.8457,1.689-1.269,2.8887-1.269.7441,0,1.353.1382,1.8271.4141.4741.2764.8608.6123,1.1611,1.0083h.1079c-.0122-.1562-.0332-.3872-.063-.6934-.0303-.3057-.0449-.5488-.0449-.729v-3.8521h1.584v13.6802h-1.2778l-.2344-1.2959h-.0718c-.2881.4082-.6724.7559-1.1519,1.0439-.4805.2881-1.0981.4321-1.854.4321ZM30.4255,23.8925c1.0195,0,1.7368-.2793,2.1509-.8374.4141-.5576.6211-1.4009.6211-2.5288v-.2881c0-1.1997-.1982-2.1206-.5942-2.7627s-1.1279-.9634-2.1958-.9634c-.8521,0-1.4912.3394-1.917,1.0171-.4263.6782-.6392,1.5874-.6392,2.7271,0,1.1519.2129,2.0459.6392,2.6821.4258.6362,1.0708.9541,1.9351.9541Z" fill="#999"/><path d="M39.947,25.0263l-3.6538-9.6479h1.6919l2.0522,5.688c.0957.2642.1978.5581.3057.8818.1084.3242.2041.6333.2881.9272s.144.543.1802.7471h.0718c.0479-.2041.1172-.4561.207-.7563.0903-.2998.1919-.6118.3062-.936.1138-.3237.2129-.6118.2969-.8638l2.0522-5.688h1.6919l-3.6719,9.6479h-1.8184Z" fill="#999"/><path d="M50.6213,15.2163c1.1758,0,2.0459.2583,2.6099.7739.564.5161.8462,1.3384.8462,2.4663v6.5698h-1.1523l-.3057-1.3682h-.0723c-.4199.5283-.8608.918-1.3228,1.1699-.4624.2524-1.1011.3784-1.917.3784-.876,0-1.6021-.231-2.1782-.6934-.5757-.4614-.8638-1.1846-.8638-2.1689,0-.96.3779-1.7007,1.1338-2.2227s1.9199-.8071,3.4922-.855l1.6377-.0542v-.5762c0-.8037-.1738-1.3618-.522-1.6738s-.8398-.4683-1.4756-.4683c-.5044,0-.9844.0752-1.4404.2251-.4561.1504-.8818.3213-1.2778.5132l-.4858-1.188c.4199-.228.918-.4229,1.4937-.585.5762-.1621,1.1763-.2432,1.8003-.2432ZM51.0891,20.3642c-1.1997.0483-2.0312.2402-2.4927.5762-.4624.3359-.6934.8101-.6934,1.4219,0,.54.165.936.4951,1.188s.7529.3779,1.269.3779c.8159,0,1.4941-.2251,2.0342-.6748.54-.4502.8101-1.1431.8101-2.0791v-.8638l-1.4224.0537Z" fill="#999"/><path d="M61.7083,15.1982c1.1523,0,2.0225.2793,2.6113.8369.5869.5581.8809,1.4614.8809,2.709v6.2822h-1.5654v-6.1738c0-1.5483-.7197-2.3223-2.1602-2.3223-1.0684,0-1.8057.3003-2.2139.8999-.4082.6006-.6123,1.4644-.6123,2.5923v5.0039h-1.584v-9.6479h1.2783l.2344,1.314h.0898c.3115-.5039.7441-.8789,1.2959-1.125.5518-.2456,1.1338-.3691,1.7451-.3691Z" fill="#999"/><path d="M72.0588,25.2065c-.8525,0-1.6104-.1743-2.2764-.522-.666-.3481-1.1885-.8882-1.5664-1.6201s-.5664-1.668-.5664-2.8081c0-1.188.1973-2.1538.5938-2.8979.3955-.7441.9326-1.29,1.6104-1.6382.6787-.3477,1.4492-.522,2.3135-.522.4922,0,.9648.0513,1.4219.1533.4551.1021.8281.2246,1.1152.3687l-.4854,1.314c-.2881-.1079-.624-.2095-1.0088-.3057-.3828-.0962-.7441-.144-1.0791-.144-1.8965,0-2.8447,1.2178-2.8447,3.6538,0,1.1641.2314,2.0552.6934,2.6729.4619.6187,1.1484.9272,2.0605.9272.5283,0,.9941-.0542,1.3955-.1621s.7705-.2397,1.1064-.396v1.4043c-.3232.168-.6807.2969-1.0703.3867-.3906.0898-.8613.1353-1.4131.1353Z" fill="#999"/><path d="M80.554,15.1982c.8281,0,1.5391.1802,2.1338.54.5938.3599,1.0498.8672,1.3682,1.521.3174.6543.4766,1.4194.4766,2.2949v.9541h-6.6055c.0234,1.0923.3027,1.9233.8359,2.4932.5352.5698,1.2812.855,2.2422.855.6113,0,1.1543-.0571,1.6289-.1709.4736-.1143.9629-.2793,1.4668-.4951v1.3857c-.4922.2163-.9785.3755-1.458.4771-.4805.1021-1.0498.1533-1.71.1533-.9121,0-1.7188-.186-2.4219-.5581-.7012-.3721-1.248-.9272-1.6367-1.665-.3906-.7378-.5859-1.6406-.5859-2.709,0-1.0557.1777-1.9619.5312-2.7183.3535-.7559.8516-1.3379,1.4941-1.7456.6416-.4082,1.3887-.6123,2.2402-.6123ZM80.5364,16.4941c-.7559,0-1.3535.2432-1.791.729-.4375.4863-.6992,1.1611-.7832,2.0254h4.9141c-.0117-.8159-.2031-1.479-.5762-1.9893-.3711-.5098-.959-.7651-1.7637-.7651Z" fill="#999"/><path d="M90.4006,25.2065c-1.2002,0-2.1602-.417-2.8799-1.251-.7207-.834-1.0801-2.0791-1.0801-3.7354s.3633-2.9067,1.0889-3.7529c.7256-.8457,1.6885-1.269,2.8887-1.269.7441,0,1.3525.1382,1.8271.4141.4746.2764.8613.6123,1.1611,1.0083h.1084c-.0127-.1562-.0332-.3872-.0635-.6934-.0303-.3057-.0449-.5488-.0449-.729v-3.8521h1.584v13.6802h-1.2783l-.2344-1.2959h-.0713c-.2881.4082-.6729.7559-1.1514,1.0439-.4805.2881-1.0986.4321-1.8545.4321ZM90.6526,23.8925c1.0195,0,1.7373-.2793,2.1514-.8374.4141-.5576.6211-1.4009.6211-2.5288v-.2881c0-1.1997-.1992-2.1206-.5947-2.7627s-1.1279-.9634-2.1963-.9634c-.8516,0-1.4902.3394-1.916,1.0171-.4268.6782-.6396,1.5874-.6396,2.7271,0,1.1519.2129,2.0459.6396,2.6821.4258.6362,1.0703.9541,1.9346.9541Z" fill="#999"/></svg>