<?xml version="1.0" encoding="UTF-8"?>
<svg id="Layer_1" xmlns="http://www.w3.org/2000/svg" version="1.1" viewBox="0 0 432 432">
  <!-- Generator: Adobe Illustrator 30.1.0, SVG Export Plug-In . SVG Version: 2.1.1 Build 136)  -->
  <g>
    <path d="M75.558,53.674h281.86c12.848,0,23.279,10.431,23.279,23.279v281.86c0,12.848-10.431,23.279-23.279,23.279H75.557c-12.848,0-23.278-10.431-23.278-23.278V76.953c0-12.848,10.431-23.279,23.279-23.279Z" style="fill: #fff;"/>
    <path d="M357.419,61.674c8.425,0,15.279,6.854,15.279,15.279v281.861c0,8.425-6.854,15.279-15.279,15.279H75.558c-8.425,0-15.279-6.854-15.279-15.279V76.953c0-8.425,6.854-15.279,15.279-15.279h281.861M357.419,45.674H75.558c-17.203,0-31.279,14.076-31.279,31.279v281.861c0,17.203,14.076,31.279,31.279,31.279h281.861c17.203,0,31.279-14.076,31.279-31.279V76.953c0-17.203-14.076-31.279-31.279-31.279h0Z"/>
  </g>
  <polygon points="79.395 250.093 125.907 208 197.767 285.442 356.372 34.047 423.116 88.698 206.14 373.814 79.395 250.093" style="stroke: #fff; stroke-miterlimit: 10; stroke-width: 16px;"/>
</svg>