<?xml version="1.0" encoding="utf-8"?>
<!-- Generator: Adobe Illustrator 22.0.1, SVG Export Plug-In . SVG Version: 6.00 Build 0)  -->
<svg version="1.1" id="Layer_1" xmlns="http://www.w3.org/2000/svg" xmlns:xlink="http://www.w3.org/1999/xlink" x="0px" y="0px"
	 viewBox="0 0 751 751" style="enable-background:new 0 0 751 751;" xml:space="preserve">
<style type="text/css">
	.st0{fill:none;stroke:#000000;stroke-width:1.25;}
	.st1{fill:none;stroke:#FF0000;stroke-width:1.25;}
	.st2{fill:#FFFFFF;}
	.st3{fill:none;stroke:#000000;stroke-width:1.25;stroke-miterlimit:10;}
</style>
<line class="st0" x1="0.4" y1="375.3" x2="750.4" y2="375.3"/>
<line class="st0" x1="375.4" y1="750.2" x2="375.4" y2="0.3"/>
<polyline class="st1" points="0.4,750.2 3.2,747.5 3.4,747.5 3.7,747.1 3.9,746.8 4.1,746.6 4.3,746.6 4.5,746.4 4.7,746 5,745.7 
	5.2,745.7 5.4,745.5 5.6,745.1 5.8,744.9 5.9,744.9 6.1,744.8 6.3,744.4 6.7,744 6.9,744 7,743.8 7.2,743.5 7.4,743.3 7.6,743.3 
	7.8,743.1 7.9,742.7 8.3,742.4 8.5,742.4 8.7,742.2 8.9,741.8 9.2,741.5 9.4,741.5 9.6,741.3 9.8,740.9 10,740.7 10.1,740.7 
	10.3,740.5 10.5,740.2 10.9,739.8 11.1,739.8 11.2,739.6 11.4,739.3 11.6,739.1 11.8,739.1 12,738.9 12.2,738.5 12.5,738.2 
	12.7,738.2 12.9,738 13.1,737.6 13.3,737.4 13.4,737.4 13.6,737.2 13.8,736.9 14.2,736.5 14.4,736.5 14.5,736.3 14.7,736 
	14.9,735.8 15.1,735.8 15.3,735.6 15.5,735.2 15.8,734.9 16,734.9 16.2,734.7 16.4,734.3 16.7,734 16.9,734 17.1,733.8 17.3,733.4 
	17.5,733.2 17.7,733.2 17.8,733 18,732.7 18.4,732.3 18.6,732.3 18.8,732.1 18.9,731.8 19.1,731.6 19.3,731.6 19.5,731.4 19.7,731 
	20,730.7 20.2,730.7 20.4,730.5 20.6,730.1 20.9,729.7 21.1,729.7 21.3,729.4 21.7,729 21.9,729 22,728.8 22.2,728.5 22.6,728.1 
	22.8,728.1 23,727.9 23.1,727.5 23.3,727.4 23.5,727.4 23.7,727.2 23.9,726.8 24.2,726.4 24.4,726.4 24.6,726.3 24.8,725.9 
	25,725.7 25.2,725.7 25.3,725.5 25.5,725.2 25.9,724.8 26.1,724.8 26.3,724.6 26.4,724.2 26.6,724.1 26.8,724.1 27,723.9 
	27.2,723.5 27.5,723.1 27.7,723.1 27.9,723 28.1,722.6 28.5,722.2 28.6,722.2 28.8,722.1 29,721.7 29.2,721.5 29.4,721.5 
	29.6,721.3 29.7,721 30.1,720.6 30.3,720.6 30.5,720.4 30.7,720 30.8,719.9 31,719.9 31.2,719.7 31.4,719.3 31.8,718.9 31.9,718.9 
	32.1,718.8 32.3,718.4 32.7,718 32.9,718 33,717.7 33.4,717.3 33.6,717.3 33.8,717.1 33.9,716.7 34.3,716.4 34.5,716.4 34.7,716.2 
	34.9,715.8 35,715.6 35.2,715.6 35.4,715.5 35.6,715.1 36,714.7 36.1,714.7 36.3,714.5 36.5,714.2 36.7,714 36.9,714 37.1,713.8 
	37.2,713.4 37.6,713.1 37.8,713.1 38,712.9 38.2,712.5 38.3,712.3 38.5,712.3 38.7,712.2 38.9,711.8 39.3,711.4 39.4,711.4 
	39.6,711.2 39.8,710.9 40.2,710.5 40.4,710.5 40.5,710.3 40.7,710 40.9,709.8 41.1,709.8 41.3,709.6 41.5,709.2 41.8,708.9 
	42,708.9 42.2,708.7 42.4,708.3 42.6,708.1 42.7,708.1 42.9,707.9 43.1,707.6 43.5,707.2 43.7,707.2 43.8,707 44,706.7 44.4,706.3 
	44.6,706.3 44.8,705.9 45.1,705.6 45.3,705.6 45.5,705.4 45.7,705 46,704.7 46.2,704.7 46.4,704.5 46.6,704.1 46.8,703.9 
	46.9,703.9 47.1,703.7 47.3,703.4 47.7,703 47.9,703 48,702.8 48.2,702.5 48.4,702.3 48.6,702.3 48.8,702.1 49,701.7 49.3,701.4 
	49.5,701.4 49.7,701.2 49.9,700.8 50.1,700.6 50.2,700.6 50.4,700.4 50.6,700.1 51,699.7 51.2,699.7 51.3,699.5 51.5,699.2 
	51.9,698.8 52.1,698.8 52.3,698.4 52.6,698.1 52.8,698.1 53,697.9 53.2,697.5 53.5,697.1 53.7,697.1 53.9,697 54.1,696.6 
	54.3,696.4 54.5,696.4 54.6,696.2 54.8,695.9 55.2,695.5 55.4,695.5 55.6,695.3 55.7,694.9 56.1,694.6 56.3,694.6 56.5,694.2 
	56.8,693.9 57,693.9 57.2,693.7 57.4,693.3 57.8,692.9 57.9,692.9 58.1,692.6 58.5,692.2 58.7,692.2 58.9,692 59,691.7 59.4,691.3 
	59.6,691.3 59.8,691.1 59.9,690.7 60.1,690.6 60.3,690.6 60.5,690.4 60.7,690 61.1,689.6 61.2,689.6 61.4,689.5 61.6,689.1 
	61.8,688.9 62,688.9 62.1,688.7 62.3,688.4 62.7,688 62.9,688 63.1,687.8 63.2,687.4 63.6,687.1 63.8,687.1 64,686.7 64.3,686.3 
	64.5,686.3 64.7,686.2 64.9,685.8 65.3,685.4 65.4,685.4 65.6,685.2 65.8,684.9 66,684.7 66.2,684.7 66.4,684.5 66.5,684.1 
	66.9,683.8 67.1,683.8 67.3,683.6 67.5,683.2 67.8,682.9 68,682.9 68.2,682.5 68.6,682.1 68.7,682.1 68.9,681.9 69.1,681.6 
	69.5,681.2 69.7,681.2 69.8,680.9 70.2,680.5 70.4,680.5 70.6,680.3 70.8,679.9 71.1,679.6 71.3,679.6 71.5,679.4 71.7,679 
	71.9,678.8 72,678.8 72.2,678.7 72.4,678.3 72.8,677.9 72.9,677.9 73.1,677.7 73.3,677.4 73.5,677.2 73.7,677.2 73.9,677 
	74.1,676.6 74.4,676.3 74.6,676.3 74.8,676.1 75,675.7 75.3,675.4 75.5,675.4 75.7,675 76.1,674.6 76.2,674.6 76.4,674.4 
	76.6,674.1 77,673.7 77.2,673.7 77.3,673.5 77.5,673.2 77.7,673 77.9,673 78.1,672.8 78.3,672.4 78.6,672.1 78.8,672.1 79,671.9 
	79.2,671.5 79.5,671.1 79.7,671.1 79.9,670.8 80.3,670.4 80.5,670.4 80.6,670.2 80.8,669.9 81.2,669.5 81.4,669.5 81.6,669.1 
	81.9,668.8 82.1,668.8 82.3,668.6 82.5,668.2 82.8,667.9 83,667.9 83.2,667.7 83.4,667.3 83.6,667.1 83.8,667.1 83.9,666.9 
	84.1,666.6 84.5,666.2 84.7,666.2 84.9,666 85,665.7 85.2,665.5 85.4,665.5 85.6,665.3 85.8,664.9 86.1,664.6 86.3,664.6 
	86.5,664.4 86.7,664 87.1,663.6 87.2,663.6 87.4,663.3 87.8,662.9 88,662.9 88.1,662.7 88.3,662.4 88.7,662 88.9,662 89.1,661.6 
	89.4,661.3 89.6,661.3 89.8,661.1 90,660.7 90.3,660.3 90.5,660.3 90.7,660.2 90.9,659.8 91.3,659.4 91.4,659.4 91.6,659.1 
	92,658.7 92.2,658.7 92.4,658.5 92.5,658.1 92.9,657.8 93.1,657.8 93.3,657.4 93.6,657.1 93.8,657.1 94,656.9 94.2,656.5 
	94.6,656.1 94.7,656.1 94.9,655.8 95.3,655.4 95.5,655.4 95.7,655.2 95.8,654.9 96.2,654.5 96.4,654.5 96.6,654.3 96.8,653.9 
	96.9,653.8 97.1,653.8 97.3,653.6 97.5,653.2 97.9,652.8 98,652.8 98.2,652.7 98.4,652.3 98.8,651.9 98.9,651.9 99.1,651.6 
	99.5,651.2 99.7,651.2 99.9,651 100.1,650.6 100.4,650.3 100.6,650.3 100.8,649.9 101.1,649.5 101.3,649.5 101.5,649.4 101.7,649 
	102.1,648.6 102.2,648.6 102.4,648.4 102.6,648.1 103,647.7 103.2,647.7 103.3,647.3 103.7,647 103.9,647 104.1,646.8 104.3,646.4 
	104.6,646.1 104.8,646.1 105,645.7 105.4,645.3 105.5,645.3 105.7,645.1 105.9,644.8 106.3,644.4 106.5,644.4 106.6,644 107,643.7 
	107.2,643.7 107.4,643.5 107.6,643.1 107.9,642.8 108.1,642.8 108.3,642.6 108.5,642.2 108.7,642 108.8,642 109,641.9 109.2,641.5 
	109.6,641.1 109.8,641.1 109.9,640.9 110.1,640.6 110.5,640.2 110.7,640.2 110.9,639.8 111.2,639.5 111.4,639.5 111.6,639.3 
	111.8,638.9 112.1,638.6 112.3,638.6 112.5,638.2 112.9,637.8 113.1,637.8 113.2,637.6 113.4,637.3 113.8,636.9 114,636.9 
	114.1,636.7 114.3,636.4 114.7,636 114.9,636 115.1,635.6 115.4,635.3 115.6,635.3 115.8,635.1 116,634.7 116.3,634.3 116.5,634.3 
	116.7,634 117.1,633.6 117.3,633.6 117.4,633.4 117.6,633.1 118,632.7 118.2,632.7 118.4,632.3 118.7,632 118.9,632 119.1,631.8 
	119.3,631.4 119.6,631 119.8,631 120,630.7 120.4,630.3 120.6,630.3 120.7,630.1 120.9,629.8 121.3,629.4 121.5,629.4 121.7,629.2 
	121.8,628.9 122.2,628.5 122.4,628.5 122.6,628.1 122.9,627.8 123.1,627.8 123.3,627.6 123.5,627.2 123.9,626.8 124,626.8 
	124.2,626.5 124.6,626.1 124.8,626.1 125,625.9 125.1,625.6 125.5,625.2 125.7,625.2 125.9,624.8 126.4,624.3 126.6,624.3 
	126.8,623.9 127.1,623.5 127.3,623.5 127.5,623.4 127.7,623 128.1,622.6 128.3,622.6 128.4,622.3 128.8,621.9 129,621.9 
	129.2,621.7 129.3,621.3 129.7,621 129.9,621 130.1,620.6 130.4,620.2 130.6,620.2 130.8,620.1 131,619.7 131.4,619.3 131.5,619.3 
	131.7,619 132.1,618.6 132.3,618.6 132.5,618.4 132.6,618 133,617.7 133.2,617.7 133.4,617.5 133.6,617.1 133.9,616.8 134.1,616.8 
	134.3,616.4 134.7,616 134.8,616 135,615.9 135.2,615.5 136.1,614.6 136.3,614.6 136.5,614.2 136.7,614.2 136.9,613.8 137.8,612.9 
	138,612.9 138.1,612.6 139.1,611.6 139.2,611.6 139.4,611.3 140.7,610 140.9,610 141.1,609.6 142,608.7 142.2,608.7 142.3,608.3 
	142.5,608.3 142.7,608 143.6,607.1 143.8,607.1 144,606.7 144.9,605.8 145.1,605.8 145.3,605.4 146.6,604.1 146.7,604.1 
	146.9,603.8 147.8,602.9 148,602.9 148.2,602.5 148.4,602.5 148.6,602.1 149.5,601.2 149.7,601.2 149.9,600.8 150.8,599.9 
	151,599.9 151.1,599.6 152.4,598.3 152.6,598.3 152.8,597.9 154.1,596.6 154.2,596.6 154.4,596.3 155.3,595.3 155.5,595.3 
	155.7,595 158.3,592.4 158.5,592.4 158.6,592 159.9,590.8 160.1,590.8 160.3,590.4 161.2,589.5 161.4,589.5 161.6,589.1 
	164.1,586.6 164.3,586.6 164.5,586.2 165.8,584.9 166,584.9 166.1,584.5 167.1,583.6 167.3,583.6 167.4,583.3 170,580.7 
	170.2,580.7 170.4,580.3 171.6,579 171.8,579 172,578.7 172.9,577.8 173.1,577.8 173.3,577.4 175.9,574.8 176,574.8 176.2,574.5 
	177.5,573.2 177.7,573.2 177.9,572.8 178.8,571.9 179,571.9 179.1,571.5 181.7,569 181.9,569 182.1,568.6 183.4,567.3 183.5,567.3 
	183.7,567 184.6,566 184.8,566 185,565.7 188.1,562.6 188.2,562.6 188.3,562.5 188.4,562.3 188.5,562.2 188.6,562.2 188.7,562.1 
	188.8,561.9 188.9,561.7 189,561.7 189.1,561.7 189.2,561.5 189.3,561.4 189.4,561.4 189.6,561.2 189.7,561 189.8,560.9 
	189.9,560.9 190,560.8 190,560.6 190.2,560.5 190.3,560.5 190.4,560.4 190.5,560.2 190.6,560.1 190.7,560.1 190.8,560 190.9,559.8 
	191.1,559.6 191.1,559.6 191.2,559.5 191.3,559.4 191.4,559.3 191.5,559.3 191.6,559.2 191.7,559 191.9,558.8 192,558.8 
	192.1,558.7 192.2,558.5 192.3,558.4 192.4,558.4 192.5,558.3 192.6,558.1 192.7,558 192.8,558 192.9,557.9 193,557.7 193.2,557.5 
	193.3,557.5 193.3,557.4 193.4,557.3 193.5,557.2 193.6,557.2 193.7,557.1 193.8,556.9 194,556.7 194.1,556.7 194.2,556.6 
	194.3,556.4 194.3,556.3 194.4,556.3 194.5,556.3 194.6,556.1 194.8,555.9 194.9,555.9 195,555.8 195.1,555.6 195.2,555.5 
	195.3,555.5 195.4,555.4 195.4,555.2 195.6,555.1 195.7,555.1 195.8,555 195.9,554.8 196.1,554.6 196.2,554.6 196.3,554.5 
	196.4,554.3 196.5,554.2 196.5,554.2 196.6,554.1 196.7,554 196.9,553.8 197,553.8 197.1,553.7 197.2,553.5 197.3,553.4 
	197.4,553.4 197.5,553.3 197.6,553.1 197.7,553 197.8,553 197.9,552.9 198,552.7 198.2,552.5 198.3,552.5 198.4,552.3 198.6,552.1 
	198.7,552.1 198.7,552 198.8,551.9 199,551.7 199.1,551.7 199.2,551.6 199.3,551.4 199.4,551.3 199.5,551.3 199.6,551.2 199.7,551 
	199.8,550.8 199.9,550.8 200,550.8 200.1,550.6 200.2,550.5 200.3,550.5 200.4,550.4 200.5,550.2 200.7,550 200.8,550 200.8,549.9 
	200.9,549.8 201,549.7 201.1,549.7 201.2,549.6 201.3,549.4 201.5,549.2 201.6,549.2 201.7,549.1 201.8,548.9 201.9,548.7 
	202,548.7 202.1,548.7 202.2,548.5 202.3,548.4 202.4,548.4 202.5,548.3 202.6,548.1 202.8,547.9 202.9,547.9 203,547.8 203,547.6 
	203.1,547.6 203.2,547.6 203.3,547.5 203.4,547.3 203.6,547.1 203.7,547.1 203.8,547 203.9,546.8 204.1,546.6 204.1,546.6 
	204.2,546.5 204.4,546.3 204.5,546.3 204.6,546.2 204.7,546 204.9,545.8 205,545.8 205.1,545.7 205.2,545.5 205.2,545.4 
	205.3,545.4 205.4,545.4 205.5,545.2 205.7,545 205.8,545 205.9,544.9 206,544.7 206.1,544.6 206.2,544.6 206.3,544.5 206.3,544.3 
	206.5,544.2 206.6,544.2 206.7,544.1 206.8,543.9 206.9,543.8 207,543.8 207.1,543.7 207.2,543.5 207.3,543.3 207.4,543.3 
	207.5,543.3 207.6,543.1 207.8,542.9 207.9,542.9 208,542.8 208.1,542.6 208.2,542.5 208.3,542.5 208.4,542.4 208.4,542.2 
	208.6,542.1 208.7,542.1 208.8,542 208.9,541.8 209,541.7 209.1,541.7 209.2,541.6 209.3,541.4 209.5,541.2 209.5,541.2 
	209.6,541.1 209.7,541 209.9,540.8 210,540.8 210.1,540.6 210.3,540.4 210.4,540.4 210.5,540.3 210.6,540.1 210.7,540 210.8,540 
	210.9,539.9 211,539.7 211.1,539.6 211.2,539.6 211.3,539.5 211.4,539.3 211.6,539.1 211.7,539.1 211.7,539 211.8,538.9 
	211.9,538.8 212,538.8 212.1,538.7 212.2,538.5 212.4,538.3 212.5,538.3 212.6,538.2 212.7,538 212.8,537.9 212.8,537.9 
	212.9,537.8 213,537.7 213.2,537.5 213.3,537.5 213.4,537.4 213.5,537.2 213.7,537 213.8,537 213.8,536.8 214,536.7 214.1,536.7 
	214.2,536.6 214.3,536.4 214.5,536.2 214.6,536.2 214.7,536.1 214.8,535.9 214.9,535.8 214.9,535.8 215,535.7 215.1,535.6 
	215.3,535.4 215.4,535.4 215.5,535.3 215.6,535.1 215.8,534.9 215.9,534.9 216,534.7 216.1,534.6 216.2,534.6 216.3,534.5 
	216.4,534.3 216.6,534.1 216.7,534.1 216.8,533.9 217,533.7 217.1,533.7 217.1,533.6 217.2,533.5 217.4,533.3 217.5,533.3 
	217.6,533.2 217.7,533 217.8,532.9 217.9,532.9 218,532.8 218.1,532.6 218.2,532.4 218.3,532.4 218.4,532.4 218.5,532.2 
	218.6,532.1 218.7,532.1 218.8,532 218.9,531.8 219.1,531.6 219.2,531.6 219.3,531.5 219.3,531.3 219.5,531.2 219.6,531.2 
	219.7,531 219.9,530.8 220,530.8 220.1,530.7 220.2,530.5 220.3,530.3 220.4,530.3 220.5,530.3 220.6,530.1 220.7,530 220.8,530 
	220.9,529.9 221,529.7 221.2,529.5 221.3,529.5 221.4,529.4 221.4,529.2 221.6,529.1 221.7,529.1 221.8,528.9 222,528.7 
	222.1,528.7 222.2,528.6 222.3,528.4 222.5,528.2 222.5,528.2 222.6,528.1 222.8,527.9 222.9,527.9 223,527.8 223.1,527.6 
	223.3,527.4 223.4,527.4 223.5,527.3 223.6,527.1 223.6,527 223.7,527 223.8,527 223.9,526.8 224.1,526.6 224.2,526.6 224.3,526.5 
	224.4,526.3 224.5,526.2 224.6,526.2 224.7,526.1 224.7,525.9 224.9,525.8 225,525.8 225.1,525.7 225.2,525.5 225.4,525.3 
	225.5,525.3 225.6,525.1 225.8,524.9 225.8,524.9 225.9,524.8 226,524.7 226.2,524.5 226.3,524.5 226.4,524.4 226.5,524.2 
	226.6,524.1 226.7,524.1 226.8,524 226.8,523.8 227,523.7 227.1,523.7 227.2,523.6 227.3,523.4 227.5,523.2 227.6,523.2 227.7,523 
	227.9,522.8 227.9,522.8 228,522.7 228.1,522.6 228.3,522.4 228.4,522.4 228.5,522.2 228.7,522 228.8,522 228.9,521.9 229,521.7 
	229.1,521.6 229.2,521.6 229.3,521.5 229.4,521.3 229.5,521.2 229.6,521.2 229.7,521.1 229.8,520.9 230,520.7 230.1,520.7 
	230.1,520.6 230.2,520.5 230.3,520.4 230.4,520.4 230.5,520.3 230.6,520.1 230.8,519.9 230.9,519.9 231,519.8 231.1,519.6 
	231.2,519.4 231.3,519.4 231.4,519.3 231.6,519.1 231.7,519.1 231.8,519 231.9,518.8 232.1,518.6 232.2,518.6 232.3,518.4 
	232.4,518.3 232.5,518.3 232.6,518.2 232.7,518 232.9,517.8 233,517.8 233.1,517.7 233.2,517.5 233.3,517.3 233.4,517.3 
	233.5,517.2 233.7,517 233.8,517 233.9,516.9 234,516.7 234.2,516.5 234.3,516.5 234.4,516.3 234.5,516.2 234.6,516.2 234.7,516.1 
	234.8,515.9 235,515.7 235.1,515.7 235.2,515.5 235.4,515.3 235.5,515.3 235.5,515.2 235.6,515.1 235.8,514.9 235.9,514.9 
	236,514.8 236.1,514.6 236.2,514.5 236.3,514.5 236.4,514.4 236.5,514.2 236.6,514 236.7,514 236.8,514 236.9,513.8 237.1,513.6 
	237.2,513.6 237.3,513.4 237.5,513.2 237.6,513.2 237.7,513.1 237.7,512.9 237.9,512.8 238,512.8 238.1,512.6 238.3,512.4 
	238.4,512.4 238.5,512.3 238.6,512.1 238.8,511.9 238.8,511.9 238.9,511.8 239,511.7 239.2,511.5 239.3,511.5 239.4,511.3 
	239.6,511.1 239.7,511.1 239.8,511 239.8,510.8 240,510.7 240.1,510.7 240.2,510.5 240.4,510.3 240.5,510.3 240.6,510.2 240.7,510 
	240.9,509.8 240.9,509.8 241,509.7 241.2,509.5 241.3,509.5 241.4,509.4 241.5,509.2 241.7,509 241.8,509 241.9,508.9 242,508.7 
	242,508.6 242.1,508.6 242.2,508.6 242.3,508.4 242.5,508.2 242.6,508.2 242.7,508.1 242.8,507.9 243,507.7 243.1,507.7 
	243.1,507.5 243.3,507.4 243.4,507.4 243.5,507.3 243.6,507.1 243.8,506.9 243.9,506.9 244,506.7 244.2,506.5 244.2,506.5 
	244.3,506.4 244.4,506.3 244.6,506.1 244.7,506.1 244.8,506 244.9,505.8 245.1,505.6 245.2,505.6 245.3,505.4 245.4,505.3 
	245.5,505.3 245.6,505.2 245.7,505 245.9,504.8 246,504.8 246.1,504.6 246.3,504.4 246.3,504.4 246.4,504.3 246.5,504.2 246.7,504 
	246.8,504 246.9,503.8 247.1,503.6 247.2,503.6 247.3,503.5 247.4,503.3 247.5,503.1 247.6,503.1 247.7,503 247.9,502.8 248,502.8 
	248.1,502.7 248.2,502.5 248.4,502.3 248.5,502.3 248.5,502.2 248.6,502.1 248.8,501.9 248.9,501.9 249,501.7 249.2,501.5 
	249.3,501.5 249.4,501.4 249.5,501.2 249.6,501 249.7,501 249.8,500.9 250,500.7 250.1,500.7 250.2,500.6 250.3,500.4 250.5,500.2 
	250.6,500.2 250.7,500 250.9,499.8 251,499.8 251.1,499.6 251.3,499.4 251.4,499.4 251.5,499.3 251.6,499.1 251.8,498.9 
	251.8,498.9 251.9,498.8 252.1,498.6 252.2,498.6 252.3,498.5 252.4,498.3 252.6,498.1 252.7,498.1 252.8,497.9 252.9,497.8 
	253,497.8 253.1,497.7 253.2,497.5 253.4,497.3 253.5,497.3 253.6,497.1 253.8,496.9 253.9,496.9 253.9,496.8 254,496.6 
	254.2,496.5 254.3,496.5 254.4,496.4 254.5,496.2 254.7,496 254.8,496 254.9,495.8 255,495.6 255.1,495.6 255.2,495.6 255.3,495.4 
	255.8,494.9 255.9,494.9 256,494.7 256.1,494.7 256.1,494.5 256.6,494.1 256.7,494.1 256.8,493.9 257.2,493.4 257.3,493.4 
	257.4,493.3 258.1,492.6 258.2,492.6 258.3,492.4 258.7,492 258.8,492 258.9,491.8 259,491.8 259.1,491.6 259.5,491.2 259.6,491.2 
	259.7,491 260.2,490.5 260.3,490.5 260.4,490.3 261,489.7 261.1,489.7 261.2,489.5 261.6,489.1 261.7,489.1 261.8,488.9 
	261.9,488.9 262,488.7 262.5,488.2 262.6,488.2 262.6,488 263.1,487.6 263.2,487.6 263.3,487.4 263.9,486.8 264,486.8 264.1,486.6 
	264.8,485.9 264.8,485.9 264.9,485.8 265.4,485.3 265.5,485.3 265.6,485.1 266.9,483.8 266.9,483.8 267,483.6 267.7,483 267.8,483 
	267.9,482.8 268.3,482.4 268.4,482.4 268.5,482.2 269.8,480.9 269.9,480.9 270,480.7 270.6,480.1 270.7,480.1 270.8,479.9 
	271.3,479.4 271.3,479.4 271.4,479.3 272.7,478 272.8,478 272.9,477.8 273.5,477.1 273.6,477.1 273.7,477 274.2,476.5 274.3,476.5 
	274.4,476.3 275.6,475 275.7,475 275.8,474.9 276.5,474.2 276.6,474.2 276.7,474 277.1,473.6 277.2,473.6 277.3,473.4 278.6,472.1 
	278.7,472.1 278.8,471.9 279.4,471.3 279.5,471.3 279.6,471.1 280,470.6 280.1,470.6 280.2,470.5 470.6,280 470.7,279.9 
	470.8,279.9 471.3,279.4 471.4,279.2 471.5,279.2 472.1,278.6 472.2,278.4 472.3,278.4 473.6,277.1 473.7,276.9 473.8,276.9 
	474.2,276.5 474.3,276.3 474.4,276.3 475,275.6 475.1,275.5 475.2,275.5 476.5,274.2 476.6,274 476.7,274 477.1,273.5 477.2,273.4 
	477.3,273.4 478,272.7 478.1,272.5 478.2,272.5 479.4,271.3 479.5,271.1 479.6,271.1 480.1,270.6 480.2,270.4 480.3,270.4 
	480.9,269.8 481,269.6 481.1,269.6 482.4,268.3 482.5,268.1 482.6,268.1 483,267.7 483.1,267.5 483.2,267.5 483.8,266.9 
	483.9,266.7 484,266.7 485.3,265.4 485.4,265.2 485.5,265.2 485.9,264.8 486,264.6 486.1,264.6 486.8,263.9 486.9,263.7 
	486.9,263.7 487.6,263.1 487.7,262.9 487.8,262.9 488.2,262.5 488.3,262.3 488.4,262.3 488.9,261.8 489,261.6 489.1,261.6 
	489.1,261.5 489.2,261.5 489.7,261 489.8,260.8 489.9,260.8 490.5,260.2 490.6,260 490.7,260 491.2,259.5 491.3,259.3 491.3,259.3 
	491.8,258.9 491.9,258.7 492,258.7 492.1,258.5 492.2,258.5 492.6,258.1 492.7,257.9 492.8,257.9 493.4,257.2 493.5,257.1 
	493.6,257.1 494.1,256.6 494.2,256.4 494.3,256.4 494.7,256 494.8,255.8 494.9,255.8 495,255.6 495.1,255.6 495.6,255.1 495.6,255 
	495.7,254.9 495.8,254.9 496,254.7 496.1,254.5 496.2,254.5 496.4,254.3 496.5,254.1 496.6,254 496.6,254 496.8,253.9 496.9,253.7 
	497,253.6 497.1,253.6 497.3,253.4 497.4,253.2 497.5,253.2 497.7,253 497.8,252.8 497.8,252.8 497.9,252.8 498.1,252.6 
	498.2,252.4 498.3,252.4 498.5,252.2 498.6,252 498.7,251.9 498.8,251.9 498.9,251.8 499,251.6 499.1,251.6 499.3,251.4 
	499.4,251.2 499.5,251.1 499.6,251.1 499.8,250.9 499.9,250.7 499.9,250.7 500.2,250.5 500.3,250.3 500.4,250.3 500.6,250.1 
	500.7,249.9 500.8,249.8 500.9,249.8 501,249.6 501.1,249.5 501.2,249.5 501.4,249.3 501.5,249.1 501.6,249 501.7,249 501.9,248.8 
	502,248.6 502.1,248.6 502.2,248.5 502.3,248.3 502.4,248.2 502.5,248.2 502.7,248 502.8,247.8 502.9,247.7 503,247.7 503.1,247.5 
	503.2,247.4 503.3,247.4 503.5,247.2 503.6,247 503.7,246.9 503.8,246.9 504,246.7 504.1,246.5 504.2,246.5 504.3,246.3 
	504.4,246.2 504.5,246.1 504.6,246.1 504.8,245.9 504.9,245.7 505,245.7 505.2,245.5 505.3,245.3 505.3,245.3 505.4,245.3 
	505.6,245.1 505.7,244.9 505.8,244.9 506,244.7 506.1,244.5 506.2,244.4 506.3,244.4 506.4,244.2 506.5,244.1 506.6,244 506.7,244 
	506.9,243.8 507,243.6 507.1,243.6 507.3,243.4 507.4,243.2 507.5,243.1 507.5,243.1 507.7,243 507.8,242.8 507.9,242.8 
	508.1,242.6 508.2,242.4 508.3,242.3 508.4,242.3 508.6,242.1 508.6,242 508.7,241.9 508.8,241.9 508.9,241.8 509,241.6 
	509.1,241.5 509.2,241.5 509.4,241.3 509.5,241.1 509.6,241 509.7,241 509.8,240.9 509.9,240.7 510,240.7 510.2,240.5 510.3,240.3 
	510.4,240.2 510.5,240.2 510.7,240 510.8,239.8 510.8,239.8 511,239.7 511.1,239.5 511.2,239.4 511.3,239.4 511.5,239.2 511.6,239 
	511.7,239 511.8,238.8 511.9,238.7 512,238.6 512.1,238.6 512.3,238.4 512.4,238.2 512.5,238.1 512.6,238.1 512.8,237.9 
	512.9,237.7 512.9,237.7 513.1,237.6 513.2,237.4 513.3,237.3 513.4,237.3 513.6,237.1 513.7,236.9 513.8,236.9 514,236.7 
	514,236.6 514.1,236.5 514.2,236.5 514.4,236.3 514.5,236.1 514.6,236 514.7,236 514.8,235.9 514.9,235.7 515,235.6 515.1,235.6 
	515.2,235.5 515.3,235.3 515.4,235.2 515.5,235.2 515.7,235 515.8,234.8 515.9,234.8 516.1,234.6 516.2,234.4 516.2,234.4 
	516.3,234.4 516.5,234.2 516.6,234 516.7,234 516.9,233.8 517,233.6 517.1,233.5 517.2,233.5 517.3,233.3 517.4,233.2 517.5,233.2 
	517.7,233 517.8,232.8 517.9,232.7 518,232.7 518.2,232.5 518.3,232.3 518.3,232.3 518.4,232.3 518.6,232.1 518.7,231.9 
	518.8,231.9 519,231.7 519.1,231.5 519.2,231.4 519.3,231.4 519.4,231.2 519.5,231.1 519.6,231.1 519.8,230.9 519.9,230.7 
	520,230.6 520.1,230.6 520.3,230.4 520.4,230.2 520.5,230.1 520.5,230.1 520.6,230.1 520.7,229.9 520.8,229.8 520.9,229.8 
	521.1,229.6 521.2,229.4 521.3,229.3 521.4,229.3 521.5,229.2 521.6,229 521.6,229 521.7,229 521.9,228.8 522,228.6 522.1,228.5 
	522.2,228.5 522.4,228.3 522.5,228.1 522.6,228.1 522.7,227.9 522.8,227.8 522.9,227.7 523,227.7 523.2,227.5 523.3,227.3 
	523.4,227.3 523.6,227.1 523.7,226.9 523.8,226.8 523.8,226.8 524,226.7 524.1,226.5 524.2,226.4 524.3,226.4 524.4,226.3 
	524.5,226.1 524.6,226 524.7,226 524.8,225.8 524.9,225.7 525,225.6 525.1,225.6 525.3,225.4 525.4,225.2 525.5,225.2 525.7,225 
	525.8,224.8 525.9,224.7 525.9,224.7 526.1,224.6 526.2,224.4 526.3,224.3 526.4,224.3 526.5,224.2 526.6,224 526.7,223.9 
	526.8,223.9 527,223.7 527,223.6 527.1,223.5 527.2,223.5 527.3,223.4 527.4,223.2 527.5,223.1 527.6,223.1 527.8,222.9 
	527.9,222.7 528,222.6 528.1,222.6 528.2,222.5 528.3,222.3 528.4,222.3 528.6,222.1 528.7,221.9 528.8,221.8 528.9,221.8 
	529.1,221.6 529.2,221.4 529.2,221.4 529.4,221.3 529.5,221.1 529.6,221 529.7,221 529.9,220.8 530,220.6 530.1,220.5 530.2,220.5 
	530.3,220.4 530.3,220.3 530.4,220.2 530.5,220.2 530.7,220 530.8,219.8 530.9,219.7 531,219.7 531.2,219.5 531.3,219.3 
	531.3,219.3 531.5,219.2 531.6,219 531.7,218.9 531.8,218.9 532,218.7 532.1,218.5 532.2,218.4 532.3,218.4 532.4,218.3 
	532.4,218.2 532.5,218.1 532.6,218.1 532.8,217.9 532.9,217.7 533,217.6 533.1,217.6 533.2,217.5 533.3,217.3 533.4,217.2 
	533.5,217.2 533.6,217.1 533.7,216.9 533.8,216.8 533.9,216.8 534.1,216.6 534.2,216.4 534.3,216.4 534.5,216.2 534.6,216 
	534.6,216 534.7,216 534.9,215.8 535,215.6 535.1,215.6 535.3,215.4 535.4,215.2 535.5,215.1 535.6,215.1 535.7,214.9 535.8,214.8 
	535.9,214.7 536,214.7 536.1,214.6 536.2,214.4 536.3,214.3 536.4,214.3 536.6,214.1 536.7,213.9 536.8,213.8 536.8,213.8 
	537,213.7 537.1,213.5 537.2,213.5 537.4,213.3 537.5,213.1 537.6,213 537.7,213 537.8,212.8 537.9,212.7 538,212.6 538.1,212.6 
	538.2,212.5 538.3,212.3 538.4,212.2 538.5,212.2 538.7,212 538.8,211.8 538.9,211.7 538.9,211.7 539,211.7 539.1,211.5 
	539.2,211.4 539.3,211.4 539.5,211.2 539.6,211 539.7,210.9 539.8,210.9 539.9,210.8 540,210.6 540,210.6 540.1,210.6 540.3,210.4 
	540.4,210.2 540.5,210.1 540.6,210.1 540.8,209.9 540.9,209.7 541,209.7 541.1,209.5 541.2,209.4 541.3,209.3 541.4,209.3 
	541.6,209.1 541.7,208.9 541.8,208.8 541.9,208.8 542,208.7 542.1,208.5 542.2,208.4 542.2,208.4 542.4,208.3 542.5,208.1 
	542.6,208 542.7,208 542.8,207.9 542.9,207.7 543,207.6 543.1,207.6 543.3,207.4 543.3,207.3 543.4,207.2 543.5,207.2 543.7,207 
	543.8,206.8 543.9,206.7 544,206.7 544.1,206.6 544.2,206.4 544.3,206.3 544.3,206.3 544.5,206.2 544.6,206 544.7,205.9 
	544.8,205.9 544.9,205.8 545,205.6 545.1,205.5 545.2,205.5 545.4,205.3 545.4,205.2 545.5,205.1 545.6,205.1 545.7,205 
	545.8,204.8 545.9,204.7 546,204.7 546.2,204.5 546.3,204.3 546.4,204.2 546.5,204.2 546.6,204.1 546.7,203.9 546.8,203.9 
	547,203.7 547.1,203.5 547.2,203.4 547.3,203.4 547.5,203.2 547.6,203 547.6,203 547.7,203 547.8,202.9 547.9,202.7 548,202.6 
	548.1,202.6 548.3,202.4 548.4,202.2 548.5,202.1 548.6,202.1 548.7,202 548.7,201.9 548.8,201.8 548.9,201.8 549.1,201.6 
	549.2,201.4 549.3,201.3 549.4,201.3 549.6,201.1 549.7,200.9 549.8,200.8 549.8,200.8 549.9,200.8 550,200.6 550.1,200.5 
	550.2,200.5 550.4,200.3 550.5,200.1 550.6,200 550.7,200 550.8,199.9 550.8,199.8 550.9,199.7 551,199.7 551.2,199.5 551.3,199.3 
	551.4,199.2 551.5,199.2 551.6,199.1 551.7,198.9 551.8,198.8 551.9,198.8 552,198.7 552.1,198.5 552.2,198.4 552.3,198.4 
	552.5,198.2 552.6,198 552.7,198 552.9,197.8 553,197.6 553,197.6 553.1,197.6 553.3,197.4 553.4,197.2 553.5,197.1 553.6,197.1 
	553.7,197 553.8,196.8 553.9,196.7 554,196.7 554.1,196.5 554.2,196.4 554.3,196.3 554.4,196.3 554.5,196.2 554.6,196 554.7,195.9 
	554.8,195.9 555,195.7 555.1,195.5 555.2,195.4 555.2,195.4 555.4,195.3 555.5,195.1 555.6,195 555.7,195 555.8,194.9 555.9,194.7 
	556,194.6 556.1,194.6 556.3,194.4 556.3,194.3 556.4,194.2 556.5,194.2 556.6,194.1 556.7,193.9 556.8,193.8 556.9,193.8 
	557.1,193.6 557.2,193.4 557.3,193.3 557.3,193.3 557.4,193.3 557.5,193.1 557.6,193 557.7,193 557.9,192.8 558,192.6 558.1,192.5 
	558.2,192.5 558.3,192.4 558.4,192.2 558.4,192.2 558.5,192.2 558.7,192 558.8,191.8 558.9,191.7 559,191.7 559.2,191.5 
	559.3,191.3 559.4,191.2 559.5,191.2 559.5,191.1 559.6,191 559.7,190.9 559.8,190.9 560,190.7 560.1,190.5 560.2,190.4 
	560.3,190.4 560.4,190.3 560.5,190.1 560.6,190 560.6,190 560.8,189.9 560.9,189.7 561,189.6 561.1,189.6 561.2,189.5 561.3,189.3 
	561.5,189.1 561.6,189.1 561.7,189 561.7,188.9 561.8,188.8 561.9,188.8 562.1,188.6 562.2,188.4 562.3,188.3 562.4,188.3 
	562.5,188.2 562.6,188 562.7,187.9 562.8,187.9 565.9,184.8 566,184.5 566.2,184.5 567.1,183.5 567.3,183.2 567.5,183.2 
	568.8,181.9 569,181.5 569.2,181.5 571.7,179 571.9,178.6 572.1,178.6 573,177.7 573.2,177.3 573.4,177.3 574.7,176 574.8,175.7 
	575,175.7 577.6,173.1 577.8,172.7 577.9,172.7 578.9,171.8 579,171.5 579.2,171.5 580.5,170.2 580.7,169.8 580.9,169.8 
	583.4,167.3 583.6,166.9 583.8,166.9 584.7,166 584.9,165.6 585.1,165.6 586.4,164.3 586.6,164 586.7,164 589.3,161.4 589.5,161 
	589.7,161 590.6,160.1 590.8,159.7 590.9,159.7 592.2,158.5 592.4,158.1 592.6,158.1 595.2,155.5 595.3,155.2 595.5,155.2 
	596.4,154.2 596.6,153.9 596.8,153.9 598.1,152.6 598.3,152.2 598.5,152.2 599.7,151 599.9,150.6 600.1,150.6 601,149.7 
	601.2,149.3 601.4,149.3 602.3,148.4 602.5,148 602.7,148 602.9,147.7 603,147.7 603.9,146.7 604.1,146.4 604.3,146.4 605.6,145.1 
	605.8,144.7 606,144.7 606.9,143.8 607.1,143.4 607.2,143.4 608.2,142.5 608.3,142.2 608.5,142.2 608.7,141.8 608.9,141.8 
	609.8,140.9 610,140.5 610.2,140.5 611.5,139.2 611.6,138.9 611.8,138.9 612.7,138 612.9,137.6 613.1,137.6 614,136.7 614.2,136.3 
	614.4,136.3 614.6,135.9 614.8,135.9 615.7,135 615.9,134.7 616,134.5 616.2,134.5 616.6,134.1 616.8,133.7 616.9,133.7 
	617.3,133.4 617.5,133 617.7,132.8 617.9,132.8 618.2,132.5 618.4,132.1 618.6,131.9 618.8,131.9 619.1,131.5 619.3,131.2 
	619.5,131.2 619.9,130.8 620.1,130.4 620.2,130.3 620.4,130.3 620.8,129.9 621,129.5 621.2,129.5 621.5,129.2 621.7,128.8 
	621.9,128.6 622.1,128.6 622.4,128.3 622.6,127.9 622.8,127.9 623.2,127.5 623.4,127.1 623.5,127 623.7,127 624.1,126.6 
	624.3,126.2 624.5,126.2 625,125.7 625.2,125.3 625.4,125.3 625.7,125 625.9,124.6 626.1,124.4 626.3,124.4 626.7,124 626.8,123.7 
	627,123.7 627.4,123.3 627.6,122.9 627.8,122.8 627.9,122.8 628.3,122.4 628.5,122 628.7,122 629,121.7 629.2,121.3 629.4,121.1 
	629.6,121.1 629.9,120.7 630.1,120.4 630.3,120.2 630.5,120.2 630.9,119.8 631,119.5 631.2,119.5 631.6,119.1 631.8,118.7 
	632,118.5 632.1,118.5 632.5,118.2 632.7,117.8 632.9,117.8 633.2,117.4 633.4,117.1 633.6,116.9 633.8,116.9 634.2,116.5 
	634.3,116.2 634.5,116.2 634.9,115.8 635.1,115.4 635.3,115.2 635.4,115.2 635.8,114.9 636,114.5 636.2,114.5 636.5,114.1 
	636.7,113.8 636.9,113.6 637.1,113.6 637.5,113.2 637.6,112.9 637.8,112.7 638,112.7 638.4,112.3 638.6,112 638.7,112 639.1,111.6 
	639.3,111.2 639.5,111 639.7,111 640,110.7 640.2,110.3 640.4,110.3 640.8,109.9 640.9,109.6 641.1,109.4 641.3,109.4 641.7,109 
	641.9,108.7 642,108.5 642.2,108.5 642.4,108.3 642.6,107.9 642.8,107.7 642.9,107.7 643.3,107.4 643.5,107 643.7,106.8 
	643.9,106.8 644.2,106.5 644.4,106.1 644.6,106.1 645,105.7 645.1,105.4 645.3,105.2 645.5,105.2 645.9,104.8 646.1,104.4 
	646.2,104.4 646.6,104.1 646.8,103.7 647,103.5 647.2,103.5 647.5,103.2 647.7,102.8 647.9,102.8 648.3,102.4 648.4,102.1 
	648.6,101.9 648.8,101.9 649.2,101.5 649.4,101.1 649.5,101 649.7,101 650.1,100.6 650.3,100.2 650.5,100.2 650.8,99.9 651,99.5 
	651.2,99.3 651.4,99.3 651.7,98.9 651.9,98.6 652.1,98.6 652.5,98.2 652.7,97.9 652.8,97.7 653,97.7 653.4,97.3 653.6,96.9 
	653.8,96.8 653.9,96.8 654.1,96.6 654.3,96.2 654.5,96 654.7,96 655,95.7 655.2,95.3 655.4,95.1 655.6,95.1 655.9,94.7 656.1,94.4 
	656.3,94.4 656.7,94 656.9,93.6 657.1,93.5 657.2,93.5 657.6,93.1 657.8,92.7 658,92.7 658.3,92.4 658.5,92 658.7,91.8 658.9,91.8 
	659.2,91.4 659.4,91.1 659.6,91.1 660,90.7 660.2,90.3 660.3,90.2 660.5,90.2 660.9,89.8 661.1,89.4 661.3,89.2 661.4,89.2 
	661.8,88.9 662,88.5 662.2,88.5 662.5,88.1 662.7,87.8 662.9,87.6 663.1,87.6 663.5,87.2 663.6,86.9 663.8,86.9 664.2,86.5 
	664.4,86.1 664.6,86 664.7,86 665.1,85.6 665.3,85.2 665.5,85 665.7,85 665.8,84.9 666,84.5 666.2,84.3 666.4,84.3 666.8,83.9 
	666.9,83.6 667.1,83.4 667.3,83.4 667.5,83.2 667.7,82.8 667.9,82.7 668,82.7 668.4,82.3 668.6,81.9 668.8,81.7 668.9,81.7 
	669.3,81.4 669.5,81 669.7,81 670,80.6 670.2,80.3 670.4,80.1 670.6,80.1 671,79.7 671.1,79.4 671.3,79.4 671.7,79 671.9,78.6 
	672.1,78.4 672.2,78.4 672.6,78.1 672.8,77.7 673,77.5 673.2,77.5 673.3,77.3 673.5,77 673.7,76.8 673.9,76.8 674.3,76.4 
	674.4,76.1 674.6,75.9 674.8,75.9 675.2,75.5 675.4,75.1 675.5,75.1 675.9,74.8 676.1,74.4 676.3,74.2 676.5,74.2 676.8,73.9 
	677,73.5 677.2,73.3 677.4,73.3 677.6,73.1 677.7,72.8 677.9,72.6 678.1,72.6 678.5,72.2 678.7,71.9 678.8,71.7 679,71.7 
	679.2,71.5 679.4,71.1 679.6,70.9 679.8,70.9 680.1,70.6 680.3,70.2 680.5,70 680.7,70 681,69.7 681.2,69.3 681.4,69.3 681.8,68.9 
	681.9,68.6 682.1,68.4 682.3,68.4 682.7,68 682.9,67.6 683,67.6 683.4,67.3 683.6,66.9 683.8,66.7 684,66.7 684.3,66.4 684.5,66 
	684.7,65.8 684.9,65.8 685.1,65.6 685.2,65.3 685.4,65.1 685.6,65.1 686,64.7 686.2,64.3 686.3,64.2 686.5,64.2 686.9,63.8 
	687.1,63.4 687.3,63.4 687.6,63.1 687.8,62.7 688,62.5 688.2,62.5 688.5,62.1 688.7,61.8 688.9,61.6 689.1,61.6 689.3,61.4 
	689.5,61.1 689.6,60.9 689.8,60.9 690.2,60.5 690.4,60.1 690.6,59.9 690.7,59.9 690.9,59.8 691.1,59.4 691.3,59.2 691.5,59.2 
	691.8,58.9 692,58.5 692.2,58.3 692.4,58.3 692.8,57.9 692.9,57.6 693.1,57.6 693.5,57.2 693.7,56.8 693.9,56.7 694,56.7 
	694.4,56.3 694.6,55.9 694.8,55.9 695.1,55.6 695.3,55.2 695.5,55 695.7,55 696.1,54.6 696.2,54.3 696.4,54.1 696.6,54.1 
	696.8,53.9 697,53.5 697.1,53.4 697.3,53.4 697.7,53 697.9,52.6 698.1,52.4 698.2,52.4 698.6,52.1 698.8,51.7 699,51.7 699.3,51.3 
	699.5,51 699.7,50.8 699.9,50.8 700.3,50.4 700.4,50.1 700.6,49.9 700.8,49.9 701,49.7 701.2,49.3 701.4,49.1 701.5,49.1 
	701.9,48.8 702.1,48.4 702.3,48.2 702.5,48.2 702.6,48 702.8,47.7 703,47.5 703.2,47.5 703.6,47.1 703.7,46.8 703.9,46.6 
	704.1,46.6 704.3,46.4 704.5,46 704.7,45.9 704.8,45.9 705.2,45.5 705.4,45.1 705.6,44.9 705.8,44.9 706.1,44.6 706.3,44.2 
	706.5,44.2 706.9,43.8 707,43.5 707.2,43.3 707.4,43.3 707.8,42.9 707.9,42.6 708.1,42.4 708.3,42.4 708.5,42.2 708.7,41.8 
	708.9,41.6 709.1,41.6 709.4,41.3 709.6,40.9 709.8,40.7 710,40.7 710.1,40.5 710.3,40.2 710.5,40 710.7,40 711.1,39.6 711.2,39.3 
	711.4,39.1 711.6,39.1 712,38.7 712.2,38.3 712.3,38.2 712.5,38.2 712.7,38 712.9,37.6 713.1,37.4 713.3,37.4 713.6,37.1 
	713.8,36.7 714,36.5 714.2,36.5 714.4,36.3 714.5,36 714.7,35.8 714.9,35.8 715.3,35.4 715.5,35 715.6,34.9 715.8,34.9 716,34.7 
	716.2,34.3 716.4,34.1 716.6,34.1 716.9,33.8 717.1,33.4 717.3,33.2 717.5,33.2 717.8,32.9 718,32.5 718.2,32.5 718.6,32.1 
	718.8,31.8 718.9,31.6 719.1,31.6 719.5,31.2 719.7,30.8 719.9,30.7 720,30.7 720.2,30.5 720.4,30.1 720.6,29.9 720.8,29.9 
	721.1,29.6 721.3,29.2 721.5,29 721.7,29 721.9,28.8 722.1,28.5 722.2,28.3 722.4,28.3 722.8,27.9 723,27.5 723.1,27.4 723.3,27.4 
	723.7,27 723.9,26.6 724.1,26.4 724.2,26.4 724.4,26.3 724.6,25.9 724.8,25.7 725,25.7 725.3,25.3 725.5,25 725.7,24.8 725.9,24.8 
	726.1,24.6 726.3,24.2 726.4,24.1 726.6,24.1 727,23.7 727.2,23.3 727.4,23.1 727.5,23.1 727.7,23 727.9,22.6 728.1,22.4 
	728.3,22.4 728.6,22 728.8,21.7 729,21.5 729.2,21.5 729.6,21.1 729.7,20.8 729.9,20.8 730.3,20.4 730.5,20 730.7,19.9 730.8,19.9 
	731.2,19.5 731.4,19.1 731.6,18.9 731.8,18.9 731.9,18.8 732.1,18.4 732.3,18.2 732.5,18.2 732.9,17.8 733,17.5 733.2,17.3 
	733.4,17.3 733.6,17.1 733.8,16.7 734,16.6 734.1,16.6 734.5,16.2 734.7,15.8 734.9,15.6 735.1,15.6 735.4,15.3 735.6,14.9 
	735.8,14.7 736,14.7 736.1,14.5 736.3,14.2 736.5,14 736.7,14 737.1,13.6 737.2,13.3 737.4,13.1 737.6,13.1 737.8,12.9 738,12.5 
	738.2,12.3 738.3,12.3 738.7,12 738.9,11.6 739.1,11.4 739.3,11.4 739.4,11.2 739.6,10.9 739.8,10.7 740,10.7 740.4,10.3 740.5,10 
	740.7,9.8 740.9,9.8 741.1,9.6 741.3,9.2 741.5,9 741.6,9 742,8.7 742.2,8.3 742.4,8.1 742.6,8.1 742.9,7.8 743.1,7.4 743.3,7.2 
	743.5,7.2 743.7,7 743.8,6.7 744,6.5 744.2,6.5 744.6,6.1 744.8,5.8 744.9,5.6 745.1,5.6 745.3,5.4 745.5,5 745.7,4.8 745.9,4.8 
	746.2,4.5 746.4,4.1 746.6,3.9 746.8,3.9 747,3.7 747.1,3.4 747.5,3 747.7,3 747.9,2.8 748.1,2.5 748.2,2.3 748.4,2.3 748.8,1.9 
	749,1.5 749.1,1.4 749.3,1.4 749.5,1.2 749.7,0.8 749.9,0.6 750.1,0.6 750.2,0.4 "/>
<path class="st2" d="M440.3,176.6c0,88-71.4,159.4-159.4,159.4c-88,0-159.4-71.4-159.4-159.4c0-88,71.4-159.4,159.4-159.4
	C368.9,17.3,440.3,88.6,440.3,176.6z"/>
<polyline class="st1" points="169.7,290.1 173.8,286 177.9,281.9 182,277.8 186,273.8 190.1,269.7 194.2,269.7 198.3,261.5 
	202.4,257.4 206.4,253.3 210.5,249.3 214.6,245.2 218.7,241.1 222.8,241.1 226.9,232.9 230.9,228.9 235,224.8 239.1,220.7 
	243.2,216.6 247.3,212.5 251.3,208.4 255.4,204.4 259.5,204.4 263.6,196.2 267.7,192.1 271.8,188 275.8,184 279.9,179.9 284,175.8 
	288.1,171.7 292.2,167.6 296.2,167.6 300.3,159.5 304.4,155.4 308.5,151.3 312.6,147.2 316.7,143.1 320.7,139.1 324.8,139.1 
	328.9,130.9 333,126.8 337.1,122.7 341.1,118.6 345.2,114.6 349.3,110.5 353.4,106.4 357.5,102.3 361.5,98.2 365.6,94.2 369.7,90.1 
	373.8,86 377.9,81.9 382,77.8 386,73.7 390.1,73.7 394.2,65.6 "/>
<path class="st3" d="M440.3,176.6c0,88-71.4,159.4-159.4,159.4c-88,0-159.4-71.4-159.4-159.4c0-88,71.4-159.4,159.4-159.4
	C368.9,17.3,440.3,88.6,440.3,176.6z"/>
<path class="st3" d="M728.7,24.2c0,1.4-1.1,2.5-2.5,2.5c-1.4,0-2.5-1.1-2.5-2.5s1.1-2.5,2.5-2.5C727.6,21.8,728.7,22.9,728.7,24.2z"
	/>
<line class="st3" x1="289.2" y1="17.5" x2="726.3" y2="21.8"/>
<line class="st3" x1="375.3" y1="305.1" x2="726.3" y2="26.7"/>
</svg>
