<svg id="Layer_1" data-name="Layer 1" xmlns="http://www.w3.org/2000/svg" width="8.341in" height="8.341in" viewBox="0 0 600.561 600.561"><line x1="0.354" y1="300.207" x2="600.354" y2="300.207" style="fill:none;stroke:#000"/><line x1="300.354" y1="600.207" x2="300.354" y2="0.207" style="fill:none;stroke:#000"/><polyline points="0.354 600.207 2.551 598.01 2.697 598.01 2.99 597.717 3.137 597.424 3.283 597.277 3.43 597.277 3.576 597.131 3.723 596.838 4.016 596.545 4.162 596.545 4.309 596.398 4.455 596.106 4.602 595.959 4.748 595.959 4.895 595.813 5.041 595.52 5.334 595.227 5.481 595.227 5.627 595.08 5.773 594.787 5.92 594.641 6.066 594.641 6.213 594.494 6.359 594.201 6.652 593.908 6.799 593.908 6.945 593.762 7.092 593.469 7.385 593.176 7.531 593.176 7.678 593.029 7.824 592.736 7.971 592.59 8.117 592.59 8.264 592.443 8.41 592.15 8.703 591.857 8.85 591.857 8.996 591.711 9.143 591.418 9.289 591.272 9.436 591.272 9.582 591.125 9.729 590.832 10.022 590.539 10.168 590.539 10.314 590.393 10.461 590.1 10.607 589.953 10.754 589.953 10.9 589.807 11.047 589.514 11.34 589.221 11.486 589.221 11.633 589.074 11.779 588.781 11.926 588.635 12.072 588.635 12.219 588.488 12.365 588.195 12.658 587.902 12.805 587.902 12.951 587.756 13.098 587.463 13.391 587.17 13.537 587.17 13.684 587.023 13.83 586.731 13.977 586.584 14.123 586.584 14.27 586.438 14.416 586.145 14.709 585.852 14.856 585.852 15.002 585.705 15.148 585.412 15.295 585.266 15.441 585.266 15.588 585.119 15.734 584.826 16.027 584.533 16.174 584.533 16.32 584.387 16.467 584.094 16.76 583.801 16.906 583.801 17.053 583.508 17.346 583.215 17.492 583.215 17.639 583.068 17.785 582.775 18.078 582.482 18.225 582.482 18.371 582.336 18.518 582.043 18.664 581.897 18.811 581.897 18.957 581.75 19.104 581.457 19.397 581.164 19.543 581.164 19.689 581.018 19.836 580.725 19.982 580.578 20.129 580.578 20.275 580.432 20.422 580.139 20.715 579.846 20.861 579.846 21.008 579.699 21.154 579.406 21.301 579.26 21.447 579.26 21.594 579.113 21.74 578.82 22.033 578.527 22.18 578.527 22.326 578.381 22.473 578.088 22.766 577.795 22.912 577.795 23.059 577.648 23.205 577.356 23.352 577.209 23.498 577.209 23.645 577.063 23.791 576.77 24.084 576.477 24.231 576.477 24.377 576.33 24.523 576.037 24.67 575.891 24.816 575.891 24.963 575.744 25.109 575.451 25.402 575.158 25.549 575.158 25.695 575.012 25.842 574.719 26.135 574.426 26.281 574.426 26.428 574.133 26.721 573.84 26.867 573.84 27.014 573.693 27.16 573.4 27.453 573.107 27.6 573.107 27.746 572.961 27.893 572.668 28.039 572.522 28.186 572.522 28.332 572.375 28.479 572.082 28.772 571.789 28.918 571.789 29.064 571.643 29.211 571.35 29.357 571.203 29.504 571.203 29.65 571.057 29.797 570.764 30.09 570.471 30.236 570.471 30.383 570.324 30.529 570.031 30.676 569.885 30.822 569.885 30.969 569.738 31.115 569.445 31.408 569.152 31.555 569.152 31.701 569.006 31.848 568.713 32.141 568.42 32.287 568.42 32.434 568.273 32.58 567.981 32.727 567.834 32.873 567.834 33.02 567.688 33.166 567.395 33.459 567.102 33.606 567.102 33.752 566.955 33.898 566.662 34.045 566.516 34.191 566.516 34.338 566.369 34.484 566.076 34.777 565.783 34.924 565.783 35.07 565.637 35.217 565.344 35.51 565.051 35.656 565.051 35.803 564.758 36.096 564.465 36.242 564.465 36.389 564.318 36.535 564.025 36.828 563.732 36.975 563.732 37.121 563.586 37.268 563.293 37.414 563.147 37.561 563.147 37.707 563 37.854 562.707 38.147 562.414 38.293 562.414 38.439 562.268 38.586 561.975 38.732 561.828 38.879 561.828 39.025 561.682 39.172 561.389 39.465 561.096 39.611 561.096 39.758 560.949 39.904 560.656 40.051 560.51 40.197 560.51 40.344 560.363 40.49 560.07 40.783 559.777 40.93 559.777 41.076 559.631 41.223 559.338 41.516 559.045 41.662 559.045 41.809 558.752 42.102 558.459 42.248 558.459 42.395 558.313 42.541 558.02 42.834 557.727 42.981 557.727 43.127 557.58 43.273 557.287 43.42 557.141 43.566 557.141 43.713 556.994 43.859 556.701 44.152 556.408 44.299 556.408 44.445 556.262 44.592 555.969 44.885 555.676 45.031 555.676 45.178 555.383 45.471 555.09 45.617 555.09 45.764 554.943 45.91 554.65 46.203 554.357 46.35 554.357 46.496 554.064 46.789 553.772 46.936 553.772 47.082 553.625 47.229 553.332 47.522 553.039 47.668 553.039 47.814 552.893 47.961 552.6 48.107 552.453 48.254 552.453 48.4 552.307 48.547 552.014 48.84 551.721 48.986 551.721 49.133 551.574 49.279 551.281 49.426 551.135 49.572 551.135 49.719 550.988 49.865 550.695 50.158 550.402 50.305 550.402 50.451 550.256 50.598 549.963 50.891 549.67 51.037 549.67 51.184 549.377 51.477 549.084 51.623 549.084 51.77 548.938 51.916 548.645 52.209 548.352 52.356 548.352 52.502 548.205 52.648 547.912 52.795 547.766 52.941 547.766 53.088 547.619 53.234 547.326 53.527 547.033 53.674 547.033 53.82 546.887 53.967 546.594 54.26 546.301 54.406 546.301 54.553 546.008 54.846 545.715 54.992 545.715 55.139 545.568 55.285 545.275 55.578 544.982 55.725 544.982 55.871 544.689 56.164 544.397 56.311 544.397 56.457 544.25 56.604 543.957 56.897 543.664 57.043 543.664 57.189 543.518 57.336 543.225 57.482 543.078 57.629 543.078 57.775 542.932 57.922 542.639 58.215 542.346 58.361 542.346 58.508 542.199 58.654 541.906 58.801 541.76 58.947 541.76 59.094 541.613 59.24 541.32 59.533 541.027 59.68 541.027 59.826 540.881 59.973 540.588 60.266 540.295 60.412 540.295 60.559 540.002 60.852 539.709 60.998 539.709 61.145 539.563 61.291 539.27 61.584 538.977 61.731 538.977 61.877 538.83 62.023 538.537 62.17 538.391 62.316 538.391 62.463 538.244 62.609 537.951 62.902 537.658 63.049 537.658 63.195 537.512 63.342 537.219 63.635 536.926 63.781 536.926 63.928 536.633 64.221 536.34 64.367 536.34 64.514 536.193 64.66 535.9 64.953 535.607 65.1 535.607 65.246 535.314 65.539 535.022 65.686 535.022 65.832 534.875 65.979 534.582 66.272 534.289 66.418 534.289 66.564 534.143 66.711 533.85 66.857 533.703 67.004 533.703 67.15 533.557 67.297 533.264 67.59 532.971 67.736 532.971 67.883 532.824 68.029 532.531 68.176 532.385 68.322 532.385 68.469 532.238 68.615 531.945 68.908 531.652 69.055 531.652 69.201 531.506 69.348 531.213 69.641 530.92 69.787 530.92 69.934 530.627 70.227 530.334 70.373 530.334 70.52 530.188 70.666 529.895 70.959 529.602 71.106 529.602 71.252 529.309 71.545 529.016 71.691 529.016 71.838 528.869 71.984 528.576 72.277 528.283 72.424 528.283 72.57 528.137 72.717 527.844 73.01 527.551 73.156 527.551 73.303 527.258 73.596 526.965 73.742 526.965 73.889 526.818 74.035 526.525 74.328 526.232 74.475 526.232 74.621 525.939 74.914 525.647 75.061 525.647 75.207 525.5 75.354 525.207 75.647 524.914 75.793 524.914 75.939 524.621 76.232 524.328 76.379 524.328 76.525 524.182 76.672 523.889 76.965 523.596 77.111 523.596 77.258 523.449 77.404 523.156 77.551 523.01 77.697 523.01 77.844 522.863 77.99 522.57 78.283 522.277 78.43 522.277 78.576 522.131 78.723 521.838 79.016 521.545 79.162 521.545 79.309 521.252 79.602 520.959 79.748 520.959 79.895 520.813 80.041 520.52 80.334 520.227 80.481 520.227 80.627 519.934 80.92 519.641 81.066 519.641 81.213 519.494 81.359 519.201 81.652 518.908 81.799 518.908 81.945 518.762 82.092 518.469 82.385 518.176 82.531 518.176 82.678 517.883 82.971 517.59 83.117 517.59 83.264 517.443 83.41 517.15 83.703 516.857 83.85 516.857 83.996 516.564 84.289 516.272 84.436 516.272 84.582 516.125 84.729 515.832 85.022 515.539 85.168 515.539 85.314 515.246 85.607 514.953 85.754 514.953 85.9 514.807 86.047 514.514 86.34 514.221 86.486 514.221 86.633 514.074 86.779 513.781 86.926 513.635 87.072 513.635 87.219 513.488 87.365 513.195 87.658 512.902 87.805 512.902 87.951 512.756 88.098 512.463 88.391 512.17 88.537 512.17 88.684 511.877 88.977 511.584 89.123 511.584 89.27 511.438 89.416 511.145 89.709 510.852 89.856 510.852 90.002 510.559 90.295 510.266 90.441 510.266 90.588 510.119 90.734 509.826 91.027 509.533 91.174 509.533 91.32 509.387 91.467 509.094 91.76 508.801 91.906 508.801 92.053 508.508 92.346 508.215 92.492 508.215 92.639 508.068 92.785 507.775 93.078 507.482 93.225 507.482 93.371 507.189 93.664 506.897 93.811 506.897 93.957 506.75 94.104 506.457 94.397 506.164 94.543 506.164 94.689 505.871 94.982 505.578 95.129 505.578 95.275 505.432 95.422 505.139 95.715 504.846 95.861 504.846 96.008 504.553 96.301 504.26 96.447 504.26 96.594 504.113 96.74 503.82 97.033 503.527 97.18 503.527 97.326 503.381 97.473 503.088 97.766 502.795 97.912 502.795 98.059 502.502 98.352 502.209 98.498 502.209 98.645 502.063 98.791 501.77 99.084 501.477 99.231 501.477 99.377 501.184 99.67 500.891 99.816 500.891 99.963 500.744 100.109 500.451 100.402 500.158 100.549 500.158 100.695 499.865 101.135 499.426 101.281 499.426 101.428 499.133 101.721 498.84 101.867 498.84 102.014 498.693 102.16 498.4 102.453 498.107 102.6 498.107 102.746 497.814 103.039 497.522 103.186 497.522 103.332 497.375 103.479 497.082 103.772 496.789 103.918 496.789 104.064 496.496 104.357 496.203 104.504 496.203 104.65 496.057 104.797 495.764 105.09 495.471 105.236 495.471 105.383 495.178 105.676 494.885 105.822 494.885 105.969 494.738 106.115 494.445 106.408 494.152 106.555 494.152 106.701 494.006 106.848 493.713 107.141 493.42 107.287 493.42 107.434 493.127 107.727 492.834 107.873 492.834 108.02 492.688 108.166 492.395 108.898 491.662 109.045 491.662 109.191 491.369 109.338 491.369 109.484 491.076 110.217 490.344 110.363 490.344 110.51 490.051 111.242 489.318 111.389 489.318 111.535 489.025 112.561 488 112.707 488 112.854 487.707 113.586 486.975 113.732 486.975 113.879 486.682 114.025 486.682 114.172 486.389 114.904 485.656 115.051 485.656 115.197 485.363 115.93 484.631 116.076 484.631 116.223 484.338 117.248 483.313 117.395 483.313 117.541 483.02 118.273 482.287 118.42 482.287 118.566 481.994 118.713 481.994 118.859 481.701 119.592 480.969 119.738 480.969 119.885 480.676 120.617 479.943 120.764 479.943 120.91 479.65 121.936 478.625 122.082 478.625 122.229 478.332 123.254 477.307 123.4 477.307 123.547 477.014 124.279 476.281 124.426 476.281 124.572 475.988 126.623 473.938 126.77 473.938 126.916 473.645 127.941 472.619 128.088 472.619 128.234 472.326 128.967 471.594 129.113 471.594 129.26 471.301 131.311 469.25 131.457 469.25 131.604 468.957 132.629 467.932 132.775 467.932 132.922 467.639 133.654 466.906 133.801 466.906 133.947 466.613 135.998 464.563 136.145 464.563 136.291 464.27 137.316 463.244 137.463 463.244 137.609 462.951 138.342 462.219 138.488 462.219 138.635 461.926 140.686 459.875 140.832 459.875 140.979 459.582 142.004 458.557 142.15 458.557 142.297 458.264 143.029 457.531 143.176 457.531 143.322 457.238 145.373 455.188 145.52 455.188 145.666 454.895 146.691 453.869 146.838 453.869 146.984 453.576 147.717 452.844 147.863 452.844 148.01 452.551 150.5 450.061 150.573 450.061 150.647 449.987 150.72 449.841 150.793 449.768 150.866 449.768 150.939 449.694 151.013 449.548 151.159 449.401 151.232 449.401 151.306 449.328 151.379 449.182 151.452 449.108 151.525 449.108 151.672 448.962 151.745 448.815 151.818 448.742 151.892 448.742 151.965 448.669 152.038 448.522 152.185 448.376 152.258 448.376 152.331 448.303 152.404 448.156 152.478 448.083 152.551 448.083 152.624 448.01 152.697 447.863 152.844 447.717 152.917 447.717 152.99 447.644 153.064 447.497 153.137 447.424 153.21 447.424 153.283 447.351 153.356 447.204 153.503 447.058 153.576 447.058 153.649 446.984 153.723 446.838 153.869 446.691 153.942 446.691 154.016 446.618 154.089 446.472 154.162 446.398 154.235 446.398 154.309 446.325 154.382 446.179 154.528 446.032 154.602 446.032 154.675 445.959 154.748 445.813 154.821 445.739 154.895 445.739 154.968 445.666 155.041 445.52 155.188 445.373 155.261 445.373 155.334 445.3 155.407 445.153 155.481 445.08 155.554 445.08 155.627 445.007 155.7 444.86 155.847 444.714 155.92 444.714 155.993 444.641 156.066 444.494 156.14 444.421 156.213 444.421 156.286 444.348 156.359 444.201 156.506 444.055 156.579 444.055 156.652 443.981 156.726 443.835 156.872 443.689 156.945 443.689 157.019 443.615 157.092 443.469 157.165 443.396 157.238 443.396 157.312 443.322 157.385 443.176 157.531 443.029 157.605 443.029 157.678 442.956 157.751 442.81 157.824 442.736 157.897 442.736 157.971 442.663 158.044 442.517 158.19 442.37 158.264 442.37 158.337 442.297 158.41 442.15 158.557 442.004 158.63 442.004 158.703 441.857 158.85 441.711 158.923 441.711 158.996 441.638 159.069 441.491 159.216 441.345 159.289 441.345 159.362 441.272 159.436 441.125 159.509 441.052 159.582 441.052 159.655 440.979 159.729 440.832 159.875 440.686 159.948 440.686 160.022 440.612 160.095 440.466 160.168 440.393 160.241 440.393 160.314 440.319 160.388 440.173 160.534 440.026 160.607 440.026 160.681 439.953 160.754 439.807 160.827 439.733 160.9 439.733 160.974 439.66 161.047 439.514 161.193 439.367 161.267 439.367 161.34 439.294 161.413 439.147 161.56 439.001 161.633 439.001 161.706 438.928 161.779 438.781 161.853 438.708 161.926 438.708 161.999 438.635 162.072 438.488 162.219 438.342 162.292 438.342 162.365 438.269 162.439 438.122 162.512 438.049 162.585 438.049 162.658 437.976 162.731 437.829 162.878 437.683 162.951 437.683 163.024 437.609 163.098 437.463 163.244 437.316 163.317 437.316 163.391 437.17 163.537 437.023 163.61 437.023 163.684 436.95 163.757 436.804 163.903 436.657 163.977 436.657 164.05 436.584 164.123 436.438 164.196 436.364 164.27 436.364 164.343 436.291 164.416 436.145 164.563 435.998 164.636 435.998 164.709 435.925 164.782 435.778 164.856 435.705 164.929 435.705 165.002 435.632 165.075 435.485 165.222 435.339 165.295 435.339 165.368 435.266 165.441 435.119 165.515 435.046 165.588 435.046 165.661 434.973 165.734 434.826 165.881 434.68 165.954 434.68 166.027 434.606 166.101 434.46 166.247 434.314 166.32 434.314 166.394 434.24 166.467 434.094 166.54 434.021 166.613 434.021 166.687 433.947 166.76 433.801 166.906 433.654 166.98 433.654 167.053 433.581 167.126 433.435 167.199 433.361 167.272 433.361 167.346 433.288 167.419 433.142 167.565 432.995 167.639 432.995 167.712 432.922 167.785 432.775 167.932 432.629 168.005 432.629 168.078 432.482 168.225 432.336 168.298 432.336 168.371 432.263 168.444 432.116 168.591 431.97 168.664 431.97 168.737 431.897 168.811 431.75 168.884 431.677 168.957 431.677 169.03 431.604 169.104 431.457 169.25 431.311 169.323 431.311 169.397 431.237 169.47 431.091 169.543 431.018 169.616 431.018 169.689 430.944 169.763 430.798 169.909 430.651 169.982 430.651 170.056 430.578 170.129 430.432 170.202 430.358 170.275 430.358 170.349 430.285 170.422 430.139 170.568 429.992 170.642 429.992 170.715 429.919 170.788 429.772 170.935 429.626 171.008 429.626 171.081 429.48 171.228 429.333 171.301 429.333 171.374 429.26 171.447 429.113 171.594 428.967 171.667 428.967 171.74 428.894 171.814 428.747 171.887 428.674 171.96 428.674 172.033 428.601 172.106 428.454 172.253 428.308 172.326 428.308 172.399 428.234 172.473 428.088 172.619 427.941 172.692 427.941 172.766 427.795 172.912 427.648 172.985 427.648 173.059 427.575 173.132 427.429 173.278 427.282 173.352 427.282 173.425 427.136 173.571 426.989 173.645 426.989 173.718 426.916 173.791 426.77 173.938 426.623 174.011 426.623 174.084 426.55 174.157 426.403 174.231 426.33 174.304 426.33 174.377 426.257 174.45 426.11 174.597 425.964 174.67 425.964 174.743 425.891 174.816 425.744 174.89 425.671 174.963 425.671 175.036 425.598 175.109 425.451 175.256 425.305 175.329 425.305 175.402 425.231 175.476 425.085 175.622 424.939 175.695 424.939 175.769 424.792 175.915 424.646 175.988 424.646 176.062 424.572 176.135 424.426 176.281 424.279 176.355 424.279 176.428 424.206 176.501 424.06 176.574 423.986 176.647 423.986 176.721 423.913 176.794 423.767 176.94 423.62 177.014 423.62 177.087 423.547 177.16 423.4 177.307 423.254 177.38 423.254 177.453 423.107 177.6 422.961 177.673 422.961 177.746 422.888 177.819 422.741 177.966 422.595 178.039 422.595 178.112 422.448 178.259 422.302 178.332 422.302 178.405 422.229 178.479 422.082 178.625 421.936 178.698 421.936 178.772 421.862 178.845 421.716 178.918 421.643 178.991 421.643 179.064 421.569 179.138 421.423 179.284 421.276 179.357 421.276 179.431 421.203 179.504 421.057 179.577 420.983 179.65 420.983 179.724 420.91 179.797 420.764 179.943 420.617 180.017 420.617 180.09 420.544 180.163 420.397 180.31 420.251 180.383 420.251 180.456 420.105 180.603 419.958 180.676 419.958 180.749 419.885 180.822 419.738 180.969 419.592 181.042 419.592 181.115 419.519 181.189 419.372 181.262 419.299 181.335 419.299 181.408 419.226 181.481 419.079 181.628 418.933 181.701 418.933 181.774 418.859 181.848 418.713 181.994 418.566 182.067 418.566 182.141 418.42 182.287 418.273 182.36 418.273 182.434 418.2 182.507 418.054 182.653 417.907 182.727 417.907 182.8 417.761 182.946 417.614 183.02 417.614 183.093 417.541 183.166 417.395 183.313 417.248 183.386 417.248 183.459 417.175 183.532 417.028 183.606 416.955 183.679 416.955 183.752 416.882 183.825 416.735 183.972 416.589 184.045 416.589 184.118 416.516 184.191 416.369 184.265 416.296 184.338 416.296 184.411 416.223 184.484 416.076 184.631 415.93 184.704 415.93 184.777 415.856 184.851 415.71 184.997 415.564 185.07 415.564 185.144 415.417 185.29 415.271 185.363 415.271 185.437 415.197 185.51 415.051 185.656 414.904 185.73 414.904 185.803 414.758 185.949 414.611 186.022 414.611 186.096 414.538 186.169 414.392 186.315 414.245 186.389 414.245 186.462 414.172 186.535 414.025 186.682 413.879 186.755 413.879 186.828 413.732 186.975 413.586 187.048 413.586 187.121 413.513 187.194 413.366 187.341 413.22 187.414 413.22 187.487 413.073 187.634 412.927 187.707 412.927 187.78 412.854 187.854 412.707 188 412.561 188.073 412.561 188.147 412.414 188.293 412.268 188.366 412.268 188.439 412.194 188.513 412.048 188.659 411.901 188.732 411.901 188.806 411.828 188.879 411.682 188.952 411.608 189.025 411.608 189.099 411.535 189.172 411.389 189.318 411.242 189.392 411.242 189.465 411.169 189.538 411.022 189.685 410.876 189.758 410.876 189.831 410.73 189.978 410.583 190.051 410.583 190.124 410.51 190.197 410.363 190.344 410.217 190.417 410.217 190.49 410.07 190.637 409.924 190.71 409.924 190.783 409.851 190.856 409.704 191.003 409.558 191.076 409.558 191.149 409.484 191.223 409.338 191.369 409.191 191.442 409.191 191.516 409.045 191.662 408.898 191.735 408.898 191.809 408.825 191.882 408.679 192.028 408.532 192.102 408.532 192.175 408.386 192.321 408.239 192.395 408.239 192.468 408.166 192.541 408.02 192.688 407.873 192.761 407.873 192.834 407.727 192.981 407.58 193.054 407.58 193.127 407.507 193.2 407.36 193.347 407.214 193.42 407.214 193.493 407.141 193.566 406.994 193.64 406.921 193.713 406.921 193.786 406.848 193.859 406.701 194.006 406.555 194.079 406.555 194.152 406.481 194.226 406.335 194.372 406.189 194.445 406.189 194.519 406.042 194.665 405.896 194.738 405.896 194.812 405.822 194.885 405.676 195.031 405.529 195.105 405.529 195.178 405.383 195.324 405.236 195.397 405.236 195.471 405.163 195.544 405.017 195.69 404.87 195.764 404.87 195.837 404.797 195.91 404.65 196.057 404.504 196.13 404.504 196.203 404.357 196.35 404.211 196.423 404.211 196.496 404.138 196.569 403.991 196.716 403.845 196.789 403.845 196.862 403.698 197.009 403.552 197.082 403.552 197.155 403.479 197.229 403.332 197.375 403.186 197.448 403.186 197.522 403.039 197.668 402.893 197.741 402.893 197.814 402.819 197.888 402.673 198.034 402.526 198.107 402.526 198.181 402.38 198.327 402.233 198.4 402.233 198.474 402.16 198.547 402.014 198.693 401.867 198.767 401.867 198.84 401.794 198.913 401.647 199.06 401.501 199.133 401.501 199.206 401.355 199.353 401.208 199.426 401.208 199.499 401.135 199.572 400.988 199.719 400.842 199.792 400.842 199.865 400.695 200.012 400.549 200.085 400.549 200.158 400.476 200.231 400.329 200.378 400.183 200.451 400.183 200.524 400.036 200.744 399.816 200.817 399.816 200.891 399.67 201.037 399.523 201.11 399.523 201.184 399.45 201.257 399.304 201.403 399.157 201.477 399.157 201.55 399.011 201.696 398.864 201.77 398.864 201.843 398.791 201.916 398.645 202.063 398.498 202.136 398.498 202.209 398.352 202.356 398.205 202.429 398.205 202.502 398.132 202.575 397.985 202.722 397.839 202.795 397.839 202.868 397.692 203.015 397.546 203.088 397.546 203.161 397.473 203.234 397.326 203.381 397.18 203.454 397.18 203.527 397.106 203.601 396.96 203.747 396.814 203.82 396.814 203.894 396.667 204.04 396.521 204.113 396.521 204.187 396.447 204.26 396.301 204.626 395.935 204.699 395.935 204.772 395.788 204.846 395.788 204.919 395.642 205.285 395.275 205.358 395.275 205.432 395.129 205.798 394.763 205.871 394.763 205.944 394.616 206.457 394.104 206.53 394.104 206.604 393.957 206.97 393.591 207.043 393.591 207.116 393.444 207.189 393.444 207.263 393.298 207.629 392.932 207.702 392.932 207.775 392.785 208.142 392.419 208.215 392.419 208.288 392.272 208.801 391.76 208.874 391.76 208.947 391.613 209.314 391.247 209.387 391.247 209.46 391.101 209.533 391.101 209.606 390.954 209.973 390.588 210.046 390.588 210.119 390.441 210.485 390.075 210.559 390.075 210.632 389.929 211.145 389.416 211.218 389.416 211.291 389.27 211.804 388.757 211.877 388.757 211.95 388.61 212.316 388.244 212.39 388.244 212.463 388.098 213.488 387.072 213.562 387.072 213.635 386.926 214.147 386.413 214.221 386.413 214.294 386.267 214.66 385.9 214.733 385.9 214.807 385.754 215.832 384.729 215.905 384.729 215.979 384.582 216.491 384.069 216.564 384.069 216.638 383.923 217.004 383.557 217.077 383.557 217.15 383.41 218.176 382.385 218.249 382.385 218.322 382.238 218.835 381.726 218.908 381.726 218.981 381.579 219.348 381.213 219.421 381.213 219.494 381.066 220.52 380.041 220.593 380.041 220.666 379.895 221.179 379.382 221.252 379.382 221.325 379.235 221.691 378.869 221.765 378.869 221.838 378.723 222.863 377.697 222.937 377.697 223.01 377.551 223.522 377.038 223.596 377.038 223.669 376.892 224.035 376.525 224.108 376.525 224.182 376.379 376.525 224.035 376.599 223.889 376.672 223.889 377.038 223.522 377.111 223.376 377.185 223.376 377.697 222.863 377.771 222.717 377.844 222.717 378.869 221.691 378.942 221.545 379.016 221.545 379.382 221.179 379.455 221.032 379.528 221.032 380.041 220.52 380.114 220.373 380.188 220.373 381.213 219.348 381.286 219.201 381.359 219.201 381.726 218.835 381.799 218.689 381.872 218.689 382.385 218.176 382.458 218.029 382.531 218.029 383.557 217.004 383.63 216.857 383.703 216.857 384.069 216.491 384.143 216.345 384.216 216.345 384.729 215.832 384.802 215.686 384.875 215.686 385.9 214.66 385.974 214.514 386.047 214.514 386.413 214.147 386.486 214.001 386.56 214.001 387.072 213.488 387.146 213.342 387.219 213.342 388.244 212.316 388.317 212.17 388.391 212.17 388.757 211.804 388.83 211.657 388.903 211.657 389.416 211.145 389.489 210.998 389.563 210.998 390.075 210.485 390.148 210.339 390.222 210.339 390.588 209.973 390.661 209.826 390.734 209.826 391.101 209.46 391.174 209.314 391.247 209.314 391.32 209.167 391.394 209.167 391.76 208.801 391.833 208.654 391.906 208.654 392.419 208.142 392.492 207.995 392.565 207.995 392.932 207.629 393.005 207.482 393.078 207.482 393.444 207.116 393.518 206.97 393.591 206.97 393.664 206.823 393.737 206.823 394.104 206.457 394.177 206.311 394.25 206.311 394.763 205.798 394.836 205.651 394.909 205.651 395.275 205.285 395.349 205.139 395.422 205.139 395.788 204.772 395.861 204.626 395.935 204.626 396.008 204.48 396.081 204.48 396.447 204.113 396.521 203.967 396.594 203.894 396.667 203.894 396.814 203.747 396.887 203.601 396.96 203.601 397.106 203.454 397.18 203.308 397.253 203.234 397.326 203.234 397.473 203.088 397.546 202.941 397.619 202.868 397.692 202.868 397.839 202.722 397.912 202.575 397.985 202.575 398.132 202.429 398.205 202.282 398.278 202.209 398.352 202.209 398.498 202.063 398.571 201.916 398.645 201.916 398.791 201.77 398.864 201.623 398.938 201.55 399.011 201.55 399.157 201.403 399.231 201.257 399.304 201.257 399.45 201.11 399.523 200.964 399.597 200.891 399.67 200.891 399.816 200.744 399.89 200.598 399.963 200.598 400.183 200.378 400.256 200.231 400.329 200.231 400.476 200.085 400.549 199.939 400.622 199.865 400.695 199.865 400.842 199.719 400.915 199.572 400.988 199.572 401.135 199.426 401.208 199.279 401.281 199.206 401.355 199.206 401.501 199.06 401.574 198.913 401.647 198.913 401.794 198.767 401.867 198.62 401.94 198.547 402.014 198.547 402.16 198.4 402.233 198.254 402.307 198.181 402.38 198.181 402.526 198.034 402.6 197.888 402.673 197.888 402.819 197.741 402.893 197.595 402.966 197.522 403.039 197.522 403.186 197.375 403.259 197.229 403.332 197.229 403.479 197.082 403.552 196.936 403.625 196.862 403.698 196.862 403.845 196.716 403.918 196.569 403.991 196.569 404.138 196.423 404.211 196.276 404.284 196.203 404.357 196.203 404.504 196.057 404.577 195.91 404.65 195.91 404.797 195.764 404.87 195.617 404.943 195.544 405.017 195.544 405.163 195.397 405.236 195.251 405.31 195.178 405.383 195.178 405.529 195.031 405.603 194.885 405.676 194.885 405.822 194.738 405.896 194.592 405.969 194.519 406.042 194.519 406.189 194.372 406.262 194.226 406.335 194.226 406.481 194.079 406.555 193.933 406.628 193.859 406.701 193.859 406.848 193.713 406.921 193.566 406.994 193.493 407.067 193.493 407.141 193.42 407.214 193.273 407.287 193.2 407.36 193.2 407.507 193.054 407.58 192.907 407.653 192.834 407.727 192.834 407.873 192.688 407.946 192.541 408.02 192.541 408.166 192.395 408.239 192.248 408.313 192.175 408.386 192.175 408.532 192.028 408.606 191.882 408.679 191.882 408.825 191.735 408.898 191.589 408.972 191.516 409.045 191.516 409.191 191.369 409.265 191.223 409.338 191.223 409.484 191.076 409.558 190.93 409.631 190.856 409.704 190.856 409.851 190.71 409.924 190.564 409.997 190.49 410.07 190.49 410.217 190.344 410.29 190.197 410.363 190.197 410.51 190.051 410.583 189.904 410.656 189.831 410.73 189.831 410.876 189.685 410.949 189.538 411.022 189.538 411.169 189.392 411.242 189.245 411.315 189.172 411.389 189.172 411.535 189.025 411.608 188.879 411.682 188.806 411.755 188.806 411.828 188.732 411.901 188.586 411.975 188.513 412.048 188.513 412.194 188.366 412.268 188.22 412.341 188.147 412.414 188.147 412.561 188 412.634 187.854 412.707 187.854 412.854 187.707 412.927 187.561 413 187.487 413.073 187.487 413.22 187.341 413.293 187.194 413.366 187.194 413.513 187.048 413.586 186.901 413.659 186.828 413.732 186.828 413.879 186.682 413.952 186.535 414.025 186.535 414.172 186.389 414.245 186.242 414.318 186.169 414.392 186.169 414.538 186.022 414.611 185.876 414.685 185.803 414.758 185.803 414.904 185.656 414.978 185.51 415.051 185.51 415.197 185.363 415.271 185.217 415.344 185.144 415.417 185.144 415.564 184.997 415.637 184.851 415.71 184.851 415.856 184.704 415.93 184.558 416.003 184.484 416.076 184.484 416.223 184.338 416.296 184.191 416.369 184.118 416.442 184.118 416.516 184.045 416.589 183.898 416.662 183.825 416.735 183.825 416.882 183.679 416.955 183.532 417.028 183.459 417.102 183.459 417.175 183.386 417.248 183.239 417.321 183.166 417.395 183.166 417.541 183.02 417.614 182.873 417.688 182.8 417.761 182.8 417.907 182.653 417.981 182.507 418.054 182.507 418.2 182.36 418.273 182.214 418.347 182.141 418.42 182.141 418.566 181.994 418.64 181.848 418.713 181.848 418.859 181.701 418.933 181.555 419.006 181.481 419.079 181.481 419.226 181.335 419.299 181.189 419.372 181.115 419.445 181.115 419.519 181.042 419.592 180.896 419.665 180.822 419.738 180.822 419.885 180.676 419.958 180.529 420.031 180.456 420.105 180.456 420.251 180.31 420.324 180.163 420.397 180.163 420.544 180.017 420.617 179.87 420.69 179.797 420.764 179.797 420.91 179.65 420.983 179.504 421.057 179.431 421.13 179.431 421.203 179.357 421.276 179.211 421.35 179.138 421.423 179.138 421.569 178.991 421.643 178.845 421.716 178.772 421.789 178.772 421.862 178.698 421.936 178.552 422.009 178.479 422.082 178.479 422.229 178.332 422.302 178.186 422.375 178.112 422.448 178.112 422.595 177.966 422.668 177.819 422.741 177.819 422.888 177.673 422.961 177.526 423.034 177.453 423.107 177.453 423.254 177.307 423.327 177.16 423.4 177.16 423.547 177.014 423.62 176.867 423.693 176.794 423.767 176.794 423.913 176.647 423.986 176.501 424.06 176.428 424.133 176.428 424.206 176.355 424.279 176.208 424.353 176.135 424.426 176.135 424.572 175.988 424.646 175.842 424.719 175.769 424.792 175.769 424.939 175.622 425.012 175.476 425.085 175.476 425.231 175.329 425.305 175.183 425.378 175.109 425.451 175.109 425.598 174.963 425.671 174.816 425.744 174.743 425.817 174.743 425.891 174.67 425.964 174.523 426.037 174.45 426.11 174.45 426.257 174.304 426.33 174.157 426.403 174.084 426.477 174.084 426.55 174.011 426.623 173.864 426.696 173.791 426.77 173.791 426.916 173.645 426.989 173.498 427.063 173.425 427.136 173.425 427.282 173.278 427.356 173.132 427.429 173.132 427.575 172.985 427.648 172.839 427.722 172.766 427.795 172.766 427.941 172.619 428.015 172.473 428.088 172.473 428.234 172.326 428.308 172.18 428.381 172.106 428.454 172.106 428.601 171.96 428.674 171.814 428.747 171.74 428.82 171.74 428.894 171.667 428.967 171.521 429.04 171.447 429.113 171.447 429.26 171.301 429.333 171.154 429.406 171.081 429.48 171.081 429.626 170.935 429.699 170.788 429.772 170.788 429.919 170.642 429.992 170.495 430.065 170.422 430.139 170.422 430.285 170.275 430.358 170.129 430.432 170.056 430.505 170.056 430.578 169.982 430.651 169.836 430.725 169.763 430.798 169.763 430.944 169.616 431.018 169.47 431.091 169.397 431.164 169.397 431.237 169.323 431.311 169.177 431.384 169.104 431.457 169.104 431.604 168.957 431.677 168.811 431.75 168.737 431.823 168.737 431.897 168.664 431.97 168.518 432.043 168.444 432.116 168.444 432.263 168.298 432.336 168.151 432.409 168.078 432.482 168.078 432.629 167.932 432.702 167.785 432.775 167.785 432.922 167.639 432.995 167.492 433.068 167.419 433.142 167.419 433.288 167.272 433.361 167.126 433.435 167.053 433.508 167.053 433.581 166.98 433.654 166.833 433.728 166.76 433.801 166.76 433.947 166.613 434.021 166.467 434.094 166.394 434.167 166.394 434.24 166.32 434.314 166.174 434.387 166.101 434.46 166.101 434.606 165.954 434.68 165.808 434.753 165.734 434.826 165.734 434.973 165.588 435.046 165.441 435.119 165.368 435.192 165.368 435.266 165.295 435.339 165.148 435.412 165.075 435.485 165.075 435.632 164.929 435.705 164.782 435.778 164.709 435.852 164.709 435.925 164.636 435.998 164.489 436.071 164.416 436.145 164.416 436.291 164.27 436.364 164.123 436.438 164.05 436.511 164.05 436.584 163.977 436.657 163.83 436.731 163.757 436.804 163.757 436.95 163.61 437.023 163.464 437.097 163.391 437.17 163.391 437.316 163.244 437.39 163.098 437.463 163.098 437.609 162.951 437.683 162.805 437.756 162.731 437.829 162.731 437.976 162.585 438.049 162.439 438.122 162.365 438.195 162.365 438.269 162.292 438.342 162.146 438.415 162.072 438.488 162.072 438.635 161.926 438.708 161.779 438.781 161.706 438.855 161.706 438.928 161.633 439.001 161.486 439.074 161.413 439.147 161.413 439.294 161.267 439.367 161.12 439.44 161.047 439.514 161.047 439.66 160.9 439.733 160.754 439.807 160.681 439.88 160.681 439.953 160.607 440.026 160.461 440.1 160.388 440.173 160.388 440.319 160.241 440.393 160.095 440.466 160.022 440.539 160.022 440.612 159.948 440.686 159.802 440.759 159.729 440.832 159.729 440.979 159.582 441.052 159.436 441.125 159.362 441.198 159.362 441.272 159.289 441.345 159.143 441.418 159.069 441.491 159.069 441.638 158.923 441.711 158.776 441.784 158.703 441.857 158.703 442.004 158.557 442.077 158.41 442.15 158.41 442.297 158.264 442.37 158.117 442.443 158.044 442.517 158.044 442.663 157.897 442.736 157.751 442.81 157.678 442.883 157.678 442.956 157.605 443.029 157.458 443.103 157.385 443.176 157.385 443.322 157.238 443.396 157.092 443.469 157.019 443.542 157.019 443.615 156.945 443.689 156.799 443.762 156.726 443.835 156.726 443.981 156.579 444.055 156.433 444.128 156.359 444.201 156.359 444.348 156.213 444.421 156.066 444.494 155.993 444.567 155.993 444.641 155.92 444.714 155.773 444.787 155.7 444.86 155.7 445.007 155.554 445.08 155.407 445.153 155.334 445.227 155.334 445.3 155.261 445.373 155.114 445.446 155.041 445.52 155.041 445.666 154.895 445.739 154.748 445.813 154.675 445.886 154.675 445.959 154.602 446.032 154.455 446.106 154.382 446.179 154.382 446.325 154.235 446.398 154.089 446.472 154.016 446.545 154.016 446.618 153.942 446.691 153.796 446.765 153.723 446.838 153.723 446.984 153.576 447.058 153.43 447.131 153.356 447.204 153.356 447.351 153.21 447.424 153.064 447.497 152.99 447.57 152.99 447.644 152.917 447.717 152.771 447.79 152.697 447.863 152.697 448.01 152.551 448.083 152.404 448.156 152.331 448.23 152.331 448.303 152.258 448.376 152.111 448.449 152.038 448.522 152.038 448.669 151.892 448.742 151.745 448.815 151.672 448.889 151.672 448.962 151.599 449.035 151.452 449.182 151.306 449.255 151.306 449.328 151.232 449.401 151.086 449.475 151.013 449.548 151.013 449.694 150.866 449.768 150.72 449.841 150.647 449.914 150.647 449.987 150.573 450.061 150.427 450.134 150.354 450.207 150.354 452.697 147.863 452.844 147.57 452.99 147.57 453.723 146.838 453.869 146.545 454.016 146.545 455.041 145.52 455.188 145.227 455.334 145.227 457.385 143.176 457.531 142.883 457.678 142.883 458.41 142.15 458.557 141.857 458.703 141.857 459.729 140.832 459.875 140.539 460.022 140.539 462.072 138.488 462.219 138.195 462.365 138.195 463.098 137.463 463.244 137.17 463.391 137.17 464.416 136.145 464.563 135.852 464.709 135.852 466.76 133.801 466.906 133.508 467.053 133.508 467.785 132.775 467.932 132.482 468.078 132.482 469.104 131.457 469.25 131.164 469.397 131.164 471.447 129.113 471.594 128.82 471.74 128.82 472.473 128.088 472.619 127.795 472.766 127.795 473.791 126.77 473.938 126.477 474.084 126.477 476.135 124.426 476.281 124.133 476.428 124.133 477.16 123.4 477.307 123.107 477.453 123.107 478.479 122.082 478.625 121.789 478.772 121.789 479.797 120.764 479.943 120.471 480.09 120.471 480.822 119.738 480.969 119.445 481.115 119.445 481.848 118.713 481.994 118.42 482.141 118.42 482.287 118.127 482.434 118.127 483.166 117.395 483.313 117.102 483.459 117.102 484.484 116.076 484.631 115.783 484.777 115.783 485.51 115.051 485.656 114.758 485.803 114.758 486.535 114.025 486.682 113.732 486.828 113.732 486.975 113.439 487.121 113.439 487.854 112.707 488 112.414 488.147 112.414 489.172 111.389 489.318 111.096 489.465 111.096 490.197 110.363 490.344 110.07 490.49 110.07 491.223 109.338 491.369 109.045 491.516 109.045 491.662 108.752 491.809 108.752 492.541 108.02 492.688 107.727 492.834 107.58 492.981 107.58 493.273 107.287 493.42 106.994 493.566 106.994 493.859 106.701 494.006 106.408 494.152 106.262 494.299 106.262 494.592 105.969 494.738 105.676 494.885 105.529 495.031 105.529 495.324 105.236 495.471 104.943 495.617 104.943 495.91 104.65 496.057 104.357 496.203 104.211 496.35 104.211 496.643 103.918 496.789 103.625 496.936 103.625 497.229 103.332 497.375 103.039 497.522 102.893 497.668 102.893 497.961 102.6 498.107 102.307 498.254 102.307 498.547 102.014 498.693 101.721 498.84 101.574 498.986 101.574 499.279 101.281 499.426 100.988 499.572 100.988 500.012 100.549 500.158 100.256 500.305 100.256 500.598 99.963 500.744 99.67 500.891 99.523 501.037 99.523 501.33 99.231 501.477 98.938 501.623 98.938 501.916 98.645 502.063 98.352 502.209 98.205 502.356 98.205 502.648 97.912 502.795 97.619 502.941 97.619 503.234 97.326 503.381 97.033 503.527 96.887 503.674 96.887 503.967 96.594 504.113 96.301 504.26 96.154 504.406 96.154 504.699 95.861 504.846 95.568 504.992 95.568 505.285 95.275 505.432 94.982 505.578 94.836 505.725 94.836 506.018 94.543 506.164 94.25 506.311 94.25 506.604 93.957 506.75 93.664 506.897 93.518 507.043 93.518 507.336 93.225 507.482 92.932 507.629 92.932 507.922 92.639 508.068 92.346 508.215 92.199 508.361 92.199 508.654 91.906 508.801 91.613 508.947 91.613 509.24 91.32 509.387 91.027 509.533 90.881 509.68 90.881 509.973 90.588 510.119 90.295 510.266 90.148 510.412 90.148 510.705 89.856 510.852 89.563 510.998 89.563 511.291 89.27 511.438 88.977 511.584 88.83 511.731 88.83 512.023 88.537 512.17 88.244 512.316 88.244 512.609 87.951 512.756 87.658 512.902 87.512 513.049 87.512 513.342 87.219 513.488 86.926 513.635 86.779 513.781 86.779 513.928 86.633 514.074 86.34 514.221 86.193 514.367 86.193 514.66 85.9 514.807 85.607 514.953 85.461 515.1 85.461 515.393 85.168 515.539 84.875 515.686 84.875 515.979 84.582 516.125 84.289 516.272 84.143 516.418 84.143 516.711 83.85 516.857 83.557 517.004 83.557 517.297 83.264 517.443 82.971 517.59 82.824 517.736 82.824 518.029 82.531 518.176 82.238 518.322 82.238 518.615 81.945 518.762 81.652 518.908 81.506 519.055 81.506 519.348 81.213 519.494 80.92 519.641 80.773 519.787 80.773 520.08 80.481 520.227 80.188 520.373 80.188 520.666 79.895 520.813 79.602 520.959 79.455 521.106 79.455 521.398 79.162 521.545 78.869 521.691 78.869 521.984 78.576 522.131 78.283 522.277 78.137 522.424 78.137 522.717 77.844 522.863 77.551 523.01 77.404 523.156 77.404 523.303 77.258 523.449 76.965 523.596 76.818 523.742 76.818 524.035 76.525 524.182 76.232 524.328 76.086 524.475 76.086 524.768 75.793 524.914 75.5 525.061 75.5 525.354 75.207 525.5 74.914 525.647 74.768 525.793 74.768 526.086 74.475 526.232 74.182 526.379 74.182 526.672 73.889 526.818 73.596 526.965 73.449 527.111 73.449 527.404 73.156 527.551 72.863 527.697 72.863 527.99 72.57 528.137 72.277 528.283 72.131 528.43 72.131 528.723 71.838 528.869 71.545 529.016 71.398 529.162 71.398 529.455 71.106 529.602 70.813 529.748 70.813 530.041 70.52 530.188 70.227 530.334 70.08 530.481 70.08 530.773 69.787 530.92 69.494 531.066 69.494 531.359 69.201 531.506 68.908 531.652 68.762 531.799 68.762 532.092 68.469 532.238 68.176 532.385 68.029 532.531 68.029 532.678 67.883 532.824 67.59 532.971 67.443 533.117 67.443 533.41 67.15 533.557 66.857 533.703 66.711 533.85 66.711 533.996 66.564 534.143 66.272 534.289 66.125 534.436 66.125 534.729 65.832 534.875 65.539 535.022 65.393 535.168 65.393 535.461 65.1 535.607 64.807 535.754 64.807 536.047 64.514 536.193 64.221 536.34 64.074 536.486 64.074 536.779 63.781 536.926 63.488 537.072 63.488 537.365 63.195 537.512 62.902 537.658 62.756 537.805 62.756 538.098 62.463 538.244 62.17 538.391 62.023 538.537 62.023 538.684 61.877 538.83 61.584 538.977 61.438 539.123 61.438 539.416 61.145 539.563 60.852 539.709 60.705 539.856 60.705 540.148 60.412 540.295 60.119 540.441 60.119 540.734 59.826 540.881 59.533 541.027 59.387 541.174 59.387 541.467 59.094 541.613 58.801 541.76 58.654 541.906 58.654 542.053 58.508 542.199 58.215 542.346 58.068 542.492 58.068 542.785 57.775 542.932 57.482 543.078 57.336 543.225 57.336 543.371 57.189 543.518 56.897 543.664 56.75 543.811 56.75 544.104 56.457 544.25 56.164 544.397 56.018 544.543 56.018 544.836 55.725 544.982 55.432 545.129 55.432 545.422 55.139 545.568 54.846 545.715 54.699 545.861 54.699 546.154 54.406 546.301 54.113 546.447 54.113 546.74 53.82 546.887 53.527 547.033 53.381 547.18 53.381 547.473 53.088 547.619 52.795 547.766 52.648 547.912 52.648 548.059 52.502 548.205 52.209 548.352 52.063 548.498 52.063 548.791 51.77 548.938 51.477 549.084 51.33 549.231 51.33 549.523 51.037 549.67 50.744 549.816 50.744 550.109 50.451 550.256 50.158 550.402 50.012 550.549 50.012 550.842 49.719 550.988 49.426 551.135 49.279 551.281 49.279 551.428 49.133 551.574 48.84 551.721 48.693 551.867 48.693 552.16 48.4 552.307 48.107 552.453 47.961 552.6 47.961 552.746 47.814 552.893 47.522 553.039 47.375 553.186 47.375 553.479 47.082 553.625 46.789 553.772 46.643 553.918 46.643 554.211 46.35 554.357 46.057 554.504 46.057 554.797 45.764 554.943 45.471 555.09 45.324 555.236 45.324 555.529 45.031 555.676 44.738 555.822 44.738 556.115 44.445 556.262 44.152 556.408 44.006 556.555 44.006 556.848 43.713 556.994 43.42 557.141 43.273 557.287 43.273 557.434 43.127 557.58 42.834 557.727 42.688 557.873 42.688 558.166 42.395 558.313 42.102 558.459 41.955 558.606 41.955 558.898 41.662 559.045 41.369 559.191 41.369 559.484 41.076 559.631 40.783 559.777 40.637 559.924 40.637 560.217 40.344 560.363 40.051 560.51 39.904 560.656 39.904 560.803 39.758 560.949 39.465 561.096 39.318 561.242 39.318 561.535 39.025 561.682 38.732 561.828 38.586 561.975 38.586 562.121 38.439 562.268 38.147 562.414 38 562.561 38 562.854 37.707 563 37.414 563.147 37.268 563.293 37.268 563.439 37.121 563.586 36.828 563.732 36.682 563.879 36.682 564.172 36.389 564.318 36.096 564.465 35.949 564.611 35.949 564.904 35.656 565.051 35.363 565.197 35.363 565.49 35.07 565.637 34.777 565.783 34.631 565.93 34.631 566.223 34.338 566.369 34.045 566.516 33.898 566.662 33.898 566.809 33.752 566.955 33.459 567.102 33.313 567.248 33.313 567.541 33.02 567.688 32.727 567.834 32.58 567.981 32.58 568.127 32.434 568.273 32.141 568.42 31.994 568.566 31.994 568.859 31.701 569.006 31.408 569.152 31.262 569.299 31.262 569.592 30.969 569.738 30.676 569.885 30.529 570.031 30.529 570.178 30.383 570.324 30.09 570.471 29.943 570.617 29.943 570.91 29.65 571.057 29.357 571.203 29.211 571.35 29.211 571.496 29.064 571.643 28.772 571.789 28.625 571.936 28.625 572.229 28.332 572.375 28.039 572.522 27.893 572.668 27.893 572.814 27.746 572.961 27.453 573.107 27.307 573.254 27.307 573.547 27.014 573.693 26.721 573.84 26.574 573.986 26.574 574.279 26.281 574.426 25.988 574.572 25.988 574.865 25.695 575.012 25.402 575.158 25.256 575.305 25.256 575.598 24.963 575.744 24.67 575.891 24.523 576.037 24.523 576.184 24.377 576.33 24.084 576.477 23.938 576.623 23.938 576.916 23.645 577.063 23.352 577.209 23.205 577.356 23.205 577.502 23.059 577.648 22.766 577.795 22.619 577.941 22.619 578.234 22.326 578.381 22.033 578.527 21.887 578.674 21.887 578.967 21.594 579.113 21.301 579.26 21.154 579.406 21.154 579.553 21.008 579.699 20.715 579.846 20.568 579.992 20.568 580.285 20.275 580.432 19.982 580.578 19.836 580.725 19.836 580.871 19.689 581.018 19.397 581.164 19.25 581.311 19.25 581.604 18.957 581.75 18.664 581.897 18.518 582.043 18.518 582.189 18.371 582.336 18.078 582.482 17.932 582.629 17.932 582.922 17.639 583.068 17.346 583.215 17.199 583.361 17.199 583.654 16.906 583.801 16.613 583.947 16.613 584.24 16.32 584.387 16.027 584.533 15.881 584.68 15.881 584.973 15.588 585.119 15.295 585.266 15.148 585.412 15.148 585.559 15.002 585.705 14.709 585.852 14.563 585.998 14.563 586.291 14.27 586.438 13.977 586.584 13.83 586.731 13.83 586.877 13.684 587.023 13.391 587.17 13.244 587.316 13.244 587.609 12.951 587.756 12.658 587.902 12.512 588.049 12.512 588.342 12.219 588.488 11.926 588.635 11.779 588.781 11.779 588.928 11.633 589.074 11.34 589.221 11.193 589.367 11.193 589.66 10.9 589.807 10.607 589.953 10.461 590.1 10.461 590.246 10.314 590.393 10.022 590.539 9.875 590.686 9.875 590.979 9.582 591.125 9.289 591.272 9.143 591.418 9.143 591.564 8.996 591.711 8.703 591.857 8.557 592.004 8.557 592.297 8.264 592.443 7.971 592.59 7.824 592.736 7.824 592.883 7.678 593.029 7.385 593.176 7.238 593.322 7.238 593.615 6.945 593.762 6.652 593.908 6.506 594.055 6.506 594.348 6.213 594.494 5.92 594.641 5.773 594.787 5.773 594.934 5.627 595.08 5.334 595.227 5.188 595.373 5.188 595.666 4.895 595.813 4.602 595.959 4.455 596.106 4.455 596.252 4.309 596.398 4.016 596.545 3.869 596.691 3.869 596.984 3.576 597.131 3.283 597.277 3.137 597.424 3.137 597.57 2.99 597.717 2.697 598.01 2.404 598.156 2.404 598.303 2.258 598.449 1.965 598.596 1.818 598.742 1.818 599.035 1.525 599.182 1.232 599.328 1.086 599.475 1.086 599.621 0.939 599.768 0.647 599.914 0.5 600.061 0.5 600.207 0.354" style="fill:none;stroke:red"/><circle cx="224.742" cy="141.313" r="127.5" style="fill:#fff;stroke:#000;stroke-miterlimit:10"/><polyline points="134.588 231.468 135.931 230.125 138.106 227.95 140.28 225.776 142.454 223.602 144.629 221.426 146.803 219.252 148.977 217.078 151.152 217.078 153.326 212.729 155.5 210.555 157.675 208.381 159.849 206.206 162.023 204.032 164.198 201.858 166.372 201.858 168.546 197.509 170.721 197.509 172.895 193.161 175.069 190.986 177.244 188.812 179.418 186.638 181.592 184.464 183.767 182.288 185.941 182.288 188.116 177.939 190.29 175.765 192.464 173.591 194.639 171.417 196.813 169.242 198.987 167.068 201.162 167.068 203.336 162.719 205.51 160.545 207.685 158.371 209.859 156.197 212.033 154.022 214.208 151.848 216.382 149.674 218.556 147.5 220.731 147.5 222.905 143.15 225.079 140.975 227.254 138.801 229.428 136.627 231.603 134.453 233.777 132.278 235.951 130.104 238.126 127.93 240.3 127.93 242.474 123.581 244.649 121.407 246.823 119.233 248.997 117.058 251.172 114.884 253.346 112.71 255.52 112.71 257.695 108.361 259.869 106.187 262.043 104.013 264.218 101.837 266.392 99.663 268.566 97.489 270.741 95.314 272.915 93.14 275.089 90.966 277.264 88.792 279.438 86.617 281.613 84.443 283.787 82.269 285.961 80.094 288.136 77.92 290.31 77.92 292.484 73.572 294.659 71.397 296.833 69.223 299.007 67.049 301.182 64.874 303.356 62.699 305.53 60.525 307.705 58.35 309.879 58.35 312.053 54.002 314.228 51.828" style="fill:none;stroke:red"/><circle cx="581.018" cy="19.397" r="1.977" style="fill:none;stroke:#000;stroke-miterlimit:10"/><line x1="231.368" y1="13.983" x2="581.018" y2="17.419" style="fill:none;stroke:#000;stroke-miterlimit:10"/><line x1="300.28" y1="244.097" x2="581.018" y2="21.374" style="fill:none;stroke:#000;stroke-miterlimit:10"/></svg>
