<?xml version="1.0" encoding="utf-8"?>
<!-- Generator: Adobe Illustrator 27.5.0, SVG Export Plug-In . SVG Version: 6.00 Build 0)  -->
<svg version="1.1" id="Layer_1" xmlns="http://www.w3.org/2000/svg" xmlns:xlink="http://www.w3.org/1999/xlink" x="0px" y="0px"
	 viewBox="0 0 478.16 75.56" style="enable-background:new 0 0 478.16 75.56;" xml:space="preserve">
<g>
	<path d="M14.39,17.89h34.69v5.16c-0.16,9.06-2.66,17.03-7.5,23.91c-4.84,6.88-11.56,12.03-20.16,15.47l-3.52-4.92
		c7.81-2.66,13.91-6.64,18.28-11.95c5-6.25,7.5-13.75,7.5-22.5h-29.3V17.89z"/>
	<path d="M53.77,24.68h31.17v2.58c0.15,3.75-0.78,7.19-2.81,10.31c-2.03,3.28-4.61,5.71-7.73,7.27l-2.58-3.05
		c5.47-2.66,8.51-7.11,9.14-13.36H53.77V24.68z M70.64,33.12v10.55c0,8.44-3.91,14.53-11.72,18.28l-2.58-3.28
		c6.87-3.44,10.31-8.44,10.31-15V33.12H70.64z"/>
	<path d="M92.67,47.42c11.4,2.5,20.62,5.47,27.66,8.91l-2.81,5.39c-8.28-4.69-17.11-7.89-26.48-9.61L92.67,47.42z M105.1,32.65
		c4.53,1.09,8.44,2.27,11.72,3.52l-1.88,5.16c-7.81-3.12-15.23-5.23-22.27-6.33l0.94-4.69C96.74,30.78,100.56,31.56,105.1,32.65z
		 M94.31,13.9c7.65,1.09,15.7,2.97,24.14,5.62l-1.88,4.92c-6.88-2.5-14.69-4.45-23.44-5.86L94.31,13.9z"/>
	<path d="M132.05,14.6v26.95h-4.69V14.6H132.05z M153.85,12.73v26.02c0,6.09-1.49,11.02-4.45,14.77c-2.5,4.06-7.11,7.19-13.83,9.38
		l-3.52-4.45c6.09-1.72,10.39-4.22,12.89-7.5c2.81-3.9,4.22-7.97,4.22-12.19V12.73H153.85z"/>
	<path d="M202.36,33.59v5.16h-40.78v-5.16H202.36z"/>
	<path d="M225.56,28.9c8.28,2.81,15.23,5.86,20.86,9.14l-3.05,5.16c-1.72-1.25-4.38-2.73-7.97-4.45c-3.6-1.72-6.88-3.12-9.84-4.22
		v27.66h-4.69V12.03h4.69V28.9z"/>
	<path d="M256.74,16.01c5.31,2.97,9.69,6.25,13.12,9.84l-3.98,4.92c-2.66-3.44-6.8-7.03-12.42-10.78L256.74,16.01z M286.97,24.68
		l4.92,2.58c-2.5,10-6.41,17.58-11.72,22.73c-5.47,5.31-13.52,9.06-24.14,11.25l-1.88-5.16c10.16-1.88,17.89-5.47,23.2-10.78
		C282.05,40.47,285.25,33.59,286.97,24.68z"/>
	<path d="M306.66,56.79h22.97l-1.17,4.45h-21.56c-5.47,0-8.2-2.89-8.2-8.67V13.43h4.69v15.94c7.34-1.25,15-3.28,22.97-6.09
		l2.58,4.69c-5.94,2.34-14.45,4.38-25.55,6.09v18.75C303.38,55.47,304.47,56.79,306.66,56.79z M335.25,10.39
		c1.56,1.41,2.34,3.05,2.34,4.92c-0.16,2.03-0.86,3.67-2.11,4.92c-1.25,1.41-2.81,2.03-4.69,1.88c-2.03,0-3.67-0.78-4.92-2.34
		c-1.25-1.41-1.8-3.05-1.64-4.92c0.15-1.56,0.78-2.97,1.88-4.22c1.25-1.25,2.66-1.88,4.22-1.88
		C332.21,8.59,333.85,9.14,335.25,10.39z M333.38,17.65c0.78-0.62,1.09-1.41,0.94-2.34c0-0.94-0.31-1.72-0.94-2.34
		c-0.63-0.62-1.49-0.94-2.58-0.94c-0.94,0-1.72,0.31-2.34,0.94c-0.63,0.63-0.94,1.41-0.94,2.34s0.31,1.72,0.94,2.34
		c0.62,0.63,1.33,0.94,2.11,0.94C331.81,18.59,332.75,18.28,333.38,17.65z"/>
	<path d="M366.42,55.15h8.67v3.75h-34.45v-3.75h21.33l0.94-23.44H345.1v-3.75h22.27L366.42,55.15z"/>
	<path d="M422.44,33.59v5.16h-40.78v-5.16H422.44z"/>
	<path d="M458.77,43.2c1.88,1.41,3.44,2.74,4.69,3.98l-3.52,4.69c-0.63-0.78-1.8-1.95-3.52-3.52c-4.38,6.88-10.39,11.72-18.05,14.53
		l-3.52-3.98c7.81-3.12,13.67-7.81,17.58-14.06c-4.84-4.22-8.59-7.11-11.25-8.67l2.34-3.75c3.12,1.88,6.95,4.45,11.48,7.73
		c1.88-4.37,2.81-9.29,2.81-14.77v-1.64H442.6c-1.72,7.66-4.92,13.67-9.61,18.05l-3.75-3.52c6.41-5.94,9.53-14.61,9.38-26.02H444
		c0,2.5-0.16,4.84-0.47,7.03h18.98v6.09C462.52,31.95,461.27,37.89,458.77,43.2z"/>
</g>
</svg>
