<?xml version="1.0" encoding="UTF-8"?>
<svg xmlns="http://www.w3.org/2000/svg" width="6in" height="6in" version="1.1" viewBox="0 0 432 432">
  <!-- Generator: Adobe Illustrator 30.4.0, SVG Export Plug-In . SVG Version: 2.1.4 Build 226)  -->
  <g id="Layer_3">
    <path d="M299.201,200.057c-5.872-5.575-13.161-8.439-20.514-8.048-6.386.333-12.03,3.094-16.559,7.725-2.248-21.334-14.556-34.733-32.629-34.733-6.978,0-12.686,1.924-17.112,5.751-2.785-20.179-14.881-32.751-32.388-32.751-6.66,0-12.164,1.753-16.5,5.241V63c0-15.201-3.952-27.113-11.428-34.448-5.761-5.652-13.295-8.417-22.389-8.255-20.453.391-32.183,15.697-32.183,41.993v109.243c-6.616-9.715-17.187-15.532-30-15.532-24.883,0-37.5,11.103-37.5,33,0,.932.217,1.85.633,2.683l14.562,29.125c1.899,3.799,2.952,7.877,3.129,12.121l4.18,100.32c.007.165.021.33.041.494,1.006,8.05,4.968,20.145,13.454,29.161v51.095c0,3.313,2.687,6,6,6h198c3.313,0,6-2.687,6-6v-46.228c7.203-5.331,12.49-13.335,17.366-23.088,9.387-18.772,18.634-79.68,18.634-91.468v-19.216c0-14.055-4.546-26.109-12.799-33.943Z" opacity=".25"/>
  </g>
  <g id="Layer_2">
    <polyline points="261 342 261 405 63 405 63 342" fill="#fff" stroke="#000" stroke-linejoin="round" stroke-width="12"/>
    <path d="M279,333c-9,18-18,27-36,27H85.5c-31.5,0-36-36-36-36l-4.18-100.32c-.211-5.062-1.492-10.023-3.757-14.555l-14.563-29.125c0-19.882,11.618-27,31.5-27s31.5,16.118,31.5,36l4.5,54V53.289c0-19.648,6.74-35.619,26.298-35.993,20.182-.386,27.702,16.518,27.702,36.704v180s0-63,0-63c0-19.648,4.5-36,22.5-36s27,15.814,27,36v72s0-45,0-45c0-19.648,4.5-36,22.5-36s27,15.814,27,36v54s0-27,0-27c0-19.648,9-35.296,22.5-36s27,12.975,27,36v19.216c0,11.074-9,70.784-18,88.784Z" fill="#fff" stroke="#000" stroke-linejoin="round" stroke-width="12"/>
  </g>
</svg>