<?xml version="1.0" encoding="UTF-8"?>
<svg id="Layer_1" xmlns="http://www.w3.org/2000/svg" width="5.333in" height="4.528in" version="1.1" viewBox="0 0 384 326">
  <!-- Generator: Adobe Illustrator 30.2.1, SVG Export Plug-In . SVG Version: 2.1.1 Build 1)  -->
  <path d="M267.2,112.8c-3.9-.6-10-1.1-18.5-1.3-11.6-.2-18.8-.3-21.5-.4-7.9-.3-13.5-.8-16.8-1.5,0-53.8,7.6-84.4,22.8-91.7-10.1,1.8-20.6,5.6-31.6,11.5-10.4,5.7-20.5,12.6-30.3,20.9-9.5,7.9-18.1,16.5-25.8,25.8-7.7,9-13.5,17.6-17.6,25.9-18.6,4-29.1,6.3-31.6,6.9-4.7,1.3-7,2.5-7,3.7,0,1.8,2.7,2.8,8,2.8,2.5,0,5.5-.3,8.7-.8,1.3-.3,4.3-.9,8.7-1.9,7.9-1.7,15.4-2.6,22.6-2.6,13,0,31,1.8,53.9,5.6l24.1,3.8c8.1,1.2,14.5,1.7,19.1,1.7,9.2,0,17.9-.3,26.3-1,9.5-.7,14.3-1.7,14.3-3,0-2-2.6-3.4-7.8-4.4ZM205.4,35.3l10.1-6c-.2.3-1,2.1-2.2,5.6-1.4,3.9-2.7,8.3-4.1,13.2-3.7,13.1-5.4,22-4.9,26.5-7.6,1.2-18.4,2.2-32.2,2.8-14.9.7-21,0-18.3-1.7.4-.3,4.2-3.9,11.5-10.8,7.7-7.2,13.5-12.2,17.4-15,6.4-4.6,14-9.5,22.7-14.6ZM139.4,100.3l10.3-14.4,53.6-1v23.7l-63.9-8.3Z" fill="#48524d"/>
  <path d="M215.5,29.3l-10.1,6c-8.7,5.1-16.3,10-22.7,14.6-3.9,2.8-9.7,7.8-17.4,15-7.3,6.9-11.1,10.5-11.5,10.8-2.7,1.7,3.4,2.4,18.3,1.7,13.8-.6,24.6-1.6,32.2-2.8-.5-4.5,1.2-13.4,4.9-26.5,1.4-4.9,2.7-9.3,4.1-13.2,1.2-3.5,2-5.3,2.2-5.6Z" fill="#879b90"/>
  <path d="M149.7,85.9l-10.3,14.4,63.9,8.3v-23.7l-53.6,1Z" fill="#fff"/>
  <path d="M340.2,158.8l-3.3-27.1-294.3-9.6v24.1h-1.4c-7.4,0-13.3,2.2-17.5,6.7-4.4,4.4-6.7,10.4-6.7,17.8,0,7.5,2.3,13.5,6.7,17.9,4.2,4.4,10.1,6.7,17.5,6.7h1.4v16.4h78.2l1.1-.4,16.4.4v-.4l65,1.9h6v-.4l137.3,1.1c.2,0-.2-4.2-1.2-12.7,5.2-1.2,9.4-3.8,12.7-7.8,3.2-3.7,4.8-8,4.8-13,0-5.7-2.3-10.6-6.7-14.8-4.2-4.3-9.6-6.5-16-6.8ZM330.1,136.2l1.2,20.5c-3,.9-6.1,2.7-9.3,5.5-6.2,5-9.6,11-10.1,18.2-.5,7.5,3.2,13.3,10.9,17.5,2.6,1.3,5.6,2.3,8.8,3.3,2.3.5,4,.8,5.3.8,1.2,0,1.5,1.1,1,3.3-.2,1-.5,2.1-1,3.4l-286.8-3.4v-10c2.8-.8,5.4-2.2,8.2-4.5,5.2-4.6,7.8-11.2,7.8-19.6,0-8.3-2.6-14.6-7.8-19-1.5-1.5-3.3-2.8-5.2-3.8l-2.6-.7-.4-19.4,280,7.9ZM350.6,170c3,3,4.6,6.6,4.8,10.8-.2,4.2-1.8,7.8-4.8,10.8-3.2,2.9-7,4.4-11.5,4.4s-8.3-1.5-11.5-4.4c-3.2-3-4.8-6.6-4.8-10.8s1.6-7.8,4.8-10.8c3.2-2.9,7-4.4,11.5-4.4s8.3,1.5,11.5,4.4ZM29.3,159.9c2.5-2.9,6.1-4.4,10.8-4.4,11.4,0,17,5.2,17,15.7,0,5.4-1,9.1-2.9,11.1-2.2,2.7-6.9,4.1-14.1,4.1-4.7,0-8.3-1.2-10.8-3.7s-3.7-6.1-3.7-10.8c0-5,1.2-9,3.7-12Z" fill="#3c4441"/>
  <path d="M331.3,156.7l-1.2-20.5-280-7.9.4,19.4,2.6.7c1.9,1,3.7,2.3,5.2,3.8,5.2,4.4,7.8,10.7,7.8,19,0,8.4-2.6,15-7.8,19.6-2.8,2.3-5.4,3.7-8.2,4.5v10l286.8,3.4c.5-1.3.8-2.4,1-3.4.5-2.2.2-3.3-1-3.3-1.3,0-3-.3-5.3-.8-3.2-1-6.2-2-8.8-3.3-7.7-4.2-11.4-10-10.9-17.5.5-7.2,3.9-13.2,10.1-18.2,3.2-2.8,6.3-4.6,9.3-5.5ZM272.1,160.1l5.3.1-.2,11.9,11.1-11.6,7.3.2-10.3,10,10.2,16.5-7-.1-7-12.7-4.4,4.4-.2,8-5.4-.1.6-26.6ZM249.1,160.2c1.6-.6,3.6-1,5.7-.9,3.9,0,7,1.4,9.4,3.9,2.2,2.4,3.4,5.8,3.2,10.1-.1,4.3-1.3,7.6-3.7,10s-5.5,3.5-9.4,3.5c-4-.1-7.1-1.4-9.5-3.9-2.2-2.4-3.3-5.7-3.2-10,.1-2.7.6-5,1.4-6.8.7-1.4,1.5-2.5,2.6-3.6,1-1.1,2.2-1.8,3.5-2.3ZM88.7,155.5c3.3.1,5.8.9,7.5,2.4,1.6,1.5,2.5,3.4,2.6,5.9l-5.5.1c-.1-1.3-.6-2.3-1.3-3-.7-.6-1.9-.9-3.5-1-1.5,0-2.7.3-3.6.9-.6.4-.9.9-.9,1.6s.3,1.3.8,1.7c.6.6,2.2,1.2,4.9,1.9,2.6.7,4.5,1.3,5.8,2.1,1.2.6,2.1,1.6,2.8,2.7s1,2.5,1,4.3c0,1.5-.5,2.9-1.4,4.2-.9,1.4-2.1,2.3-3.7,2.9-1.5.6-3.4.9-5.7.8-3.4-.1-6-.9-7.8-2.5-1.7-1.6-2.8-3.8-3.1-6.8l5.2-.4c.4,1.8,1,3,1.9,3.9,1,.9,2.3,1.3,3.9,1.4,1.7,0,3.1-.4,3.9-1.1.9-.7,1.3-1.6,1.3-2.6.1-.6-.1-1.1-.5-1.6-.3-.4-.9-.8-1.8-1.1-.7-.3-2.1-.7-4.3-1.3-2.9-.8-4.9-1.7-6-2.8-1.7-1.5-2.4-3.3-2.3-5.4,0-1.4.4-2.6,1.2-3.8.8-1.1,1.9-2,3.4-2.6s3.2-.9,5.2-.8ZM140.6,157.2c2.8,0,4.8.3,6.2.8,1.2.5,2.2,1.4,3,2.7.8,1.2,1.1,2.6,1,4.1,0,2-.6,3.7-1.9,4.9-1.1,1.3-3,2.1-5.3,2.4,1.2.7,2.1,1.5,2.8,2.3.8.8,1.8,2.3,3,4.4l3.2,5.2-6.5-.1-3.7-5.9c-1.3-2.1-2.3-3.4-2.8-3.9-.4-.6-1-.9-1.5-1.2-.6-.2-1.5-.3-2.8-.3h-1l-.3,11.1-5.4-.2.6-26.6,11.4.3ZM104.3,156.3l19.8.4-.1,4.5-14.4-.3-.1,5.9,13.3.4-.1,4.4-13.4-.3-.1,7.3,14.9.2-.1,4.5-20.3-.4.6-26.6ZM172.3,157.9l5.8.1-10.2,26.4-5.7-.2-8.9-26.8,5.8.2,6.3,19.8,6.9-19.5ZM205.8,158.6l11.4.2c2.8.1,4.9.4,6.1.9,1.3.5,2.3,1.4,3.1,2.6.8,1.3,1.1,2.7,1,4.3,0,2-.6,3.6-1.8,4.8-1.3,1.3-3,2.1-5.4,2.4,1.1.7,2.1,1.4,2.9,2.3.7.8,1.7,2.3,2.9,4.4l3.2,5.2-6.5-.1-3.7-5.9c-1.3-2.1-2.3-3.4-2.8-4-.4-.5-1-.9-1.5-1.1-.6-.2-1.5-.3-2.8-.4h-1.1l-.2,11.1-5.4-.1.6-26.6ZM180.9,158.1l19.8.4-.1,4.5-14.4-.3-.1,5.9,13.3.3-.1,4.4-13.4-.2-.1,7.2,14.9.3-.1,4.5-20.3-.4.6-26.6Z" fill="#fff"/>
  <path d="M277.4,160.2l-5.3-.1-.6,26.6,5.4.1.2-8,4.4-4.4,7,12.7,7,.1-10.2-16.5,10.3-10-7.3-.2-11.1,11.6.2-11.9Z"/>
  <path d="M254.8,159.3c-2.1-.1-4.1.3-5.7.9-1.3.5-2.5,1.2-3.5,2.3-1.1,1.1-1.9,2.2-2.6,3.6-.8,1.8-1.3,4.1-1.4,6.8-.1,4.3,1,7.6,3.2,10,2.4,2.5,5.5,3.8,9.5,3.9,3.9,0,7-1.1,9.4-3.5s3.6-5.7,3.7-10c.2-4.3-1-7.7-3.2-10.1-2.4-2.5-5.5-3.9-9.4-3.9ZM260.1,166.2c1.2,1.6,1.8,3.9,1.8,6.9-.1,3.1-.8,5.4-2.2,6.9s-3.2,2.2-5.4,2.2c-2.1,0-3.9-.9-5.2-2.5-1.3-1.5-2-3.9-1.9-6.9,0-3.1.7-5.3,2.1-6.8,1.4-1.4,3.2-2.2,5.5-2.1,2.1,0,3.9.8,5.3,2.3Z"/>
  <path d="M261.9,173.1c0-3-.6-5.3-1.8-6.9-1.4-1.5-3.2-2.3-5.3-2.3-2.3-.1-4.1.7-5.5,2.1-1.4,1.5-2.1,3.7-2.1,6.8-.1,3,.6,5.4,1.9,6.9,1.3,1.6,3.1,2.5,5.2,2.5,2.2,0,4-.7,5.4-2.2s2.1-3.8,2.2-6.9Z" fill="#fff"/>
  <path d="M96.2,157.9c-1.7-1.5-4.2-2.3-7.5-2.4-2-.1-3.7.2-5.2.8s-2.6,1.5-3.4,2.6c-.8,1.2-1.2,2.4-1.2,3.8-.1,2.1.6,3.9,2.3,5.4,1.1,1.1,3.1,2,6,2.8,2.2.6,3.6,1,4.3,1.3.9.3,1.5.7,1.8,1.1.4.5.6,1,.5,1.6,0,1-.4,1.9-1.3,2.6-.8.7-2.2,1.1-3.9,1.1-1.6-.1-2.9-.5-3.9-1.4-.9-.9-1.5-2.1-1.9-3.9l-5.2.4c.3,3,1.4,5.2,3.1,6.8,1.8,1.6,4.4,2.4,7.8,2.5,2.3.1,4.2-.2,5.7-.8,1.6-.6,2.8-1.5,3.7-2.9.9-1.3,1.4-2.7,1.4-4.2,0-1.8-.3-3.2-1-4.3s-1.6-2.1-2.8-2.7c-1.3-.8-3.2-1.4-5.8-2.1-2.7-.7-4.3-1.3-4.9-1.9-.5-.4-.8-1-.8-1.7s.3-1.2.9-1.6c.9-.6,2.1-.9,3.6-.9,1.6.1,2.8.4,3.5,1,.7.7,1.2,1.7,1.3,3l5.5-.1c-.1-2.5-1-4.4-2.6-5.9Z"/>
  <path d="M146.8,158c-1.4-.5-3.4-.8-6.2-.8l-11.4-.3-.6,26.6,5.4.2.3-11.1h1c1.3,0,2.2.1,2.8.3.5.3,1.1.6,1.5,1.2.5.5,1.5,1.8,2.8,3.9l3.7,5.9,6.5.1-3.2-5.2c-1.2-2.1-2.2-3.6-3-4.4-.7-.8-1.6-1.6-2.8-2.3,2.3-.3,4.2-1.1,5.3-2.4,1.3-1.2,1.9-2.9,1.9-4.9.1-1.5-.2-2.9-1-4.1-.8-1.3-1.8-2.2-3-2.7ZM138.7,161.7c2.1,0,3.5,0,3.9.1.9.1,1.6.5,2,1.1.5.5.7,1.3.7,2.2,0,.8-.2,1.5-.6,2s-.9.8-1.5,1.1c-.7.1-2.3.2-4.9.1h-4l.2-6.7,4.2.1Z"/>
  <path d="M142.6,161.8c-.4-.1-1.8-.1-3.9-.1l-4.2-.1-.2,6.7h4c2.6.1,4.2,0,4.9-.1.6-.3,1.1-.6,1.5-1.1s.6-1.2.6-2c0-.9-.2-1.7-.7-2.2-.4-.6-1.1-1-2-1.1Z" fill="#fff"/>
  <path d="M124.1,156.7l-19.8-.4-.6,26.6,20.3.4.1-4.5-14.9-.2.1-7.3,13.4.3.1-4.4-13.3-.4.1-5.9,14.4.3.1-4.5Z"/>
  <path d="M178.1,158l-5.8-.1-6.9,19.5-6.3-19.8-5.8-.2,8.9,26.8,5.7.2,10.2-26.4Z"/>
  <path d="M217.2,158.8l-11.4-.2-.6,26.6,5.4.1.2-11.1h1.1c1.3.1,2.2.2,2.8.4.5.2,1.1.6,1.5,1.1.5.6,1.5,1.9,2.8,4l3.7,5.9,6.5.1-3.2-5.2c-1.2-2.1-2.2-3.6-2.9-4.4-.8-.9-1.8-1.6-2.9-2.3,2.4-.3,4.1-1.1,5.4-2.4,1.2-1.2,1.8-2.8,1.8-4.8.1-1.6-.2-3-1-4.3-.8-1.2-1.8-2.1-3.1-2.6-1.2-.5-3.3-.8-6.1-.9ZM219.2,163.5c.9.2,1.6.6,2,1.1.5.6.7,1.3.7,2.2-.1.8-.2,1.4-.6,1.9-.4.6-.9,1-1.5,1.1-.7.3-2.3.3-4.9.3l-4-.1.2-6.8,4.2.1c2.1.1,3.5.1,3.9.2Z"/>
  <path d="M221.2,164.6c-.4-.5-1.1-.9-2-1.1-.4-.1-1.8-.1-3.9-.2l-4.2-.1-.2,6.8,4,.1c2.6,0,4.2,0,4.9-.3.6-.1,1.1-.5,1.5-1.1.4-.5.5-1.1.6-1.9,0-.9-.2-1.6-.7-2.2Z" fill="#fff"/>
  <path d="M200.7,158.5l-19.8-.4-.6,26.6,20.3.4.1-4.5-14.9-.3.1-7.2,13.4.2.1-4.4-13.3-.3.1-5.9,14.4.3.1-4.5Z"/>
  <path d="M355.4,180.8c-.2-4.2-1.8-7.8-4.8-10.8-3.2-2.9-7-4.4-11.5-4.4s-8.3,1.5-11.5,4.4c-3.2,3-4.8,6.6-4.8,10.8s1.6,7.8,4.8,10.8c3.2,2.9,7,4.4,11.5,4.4s8.3-1.5,11.5-4.4c3-3,4.6-6.6,4.8-10.8Z" fill="#fff"/>
  <path d="M40.1,155.5c-4.7,0-8.3,1.5-10.8,4.4-2.5,3-3.7,7-3.7,12,0,4.7,1.2,8.3,3.7,10.8s6.1,3.7,10.8,3.7c7.2,0,11.9-1.4,14.1-4.1,1.9-2,2.9-5.7,2.9-11.1,0-10.5-5.6-15.7-17-15.7Z" fill="#fff"/>
  <path d="M298.9,308c-2.2-4.5-5.6-9.2-10.4-14.2-9.1-9.9-20.1-15.9-32.7-18.2-7.2-1.2-14.6-.5-22.4,2.3-2.2.7-4.4,1.7-6.6,3-1,.5-1.9.8-2.6,1l-16.4-34.5c-1.2,0-2.9.1-4.9.3-2.4.5-4,.8-4.7.8l17.4,41.2,83.3,18.3ZM256.9,281.9c5.4,1.3,11.4,4.4,17.9,9.3,3.2,2.5,5.9,4.9,8.1,7.1l-54.2-11.2c.4-.4,1.1-.8,2.1-1,1.8-1,3.8-1.9,6-2.7,6.5-2.2,13.1-2.7,20.1-1.5Z" fill="#3c4441"/>
  <path d="M274.8,291.2c-6.5-4.9-12.5-8-17.9-9.3-7-1.2-13.6-.7-20.1,1.5-2.2.8-4.2,1.7-6,2.7-1,.2-1.7.6-2.1,1l54.2,11.2c-2.2-2.2-4.9-4.6-8.1-7.1Z" fill="#fff"/>
  <path d="M74.6,270.5c-4.9,5.1-8.9,10.5-11.8,15.9h82.9c1.7-17.1,3.2-29.9,4.5-38.3-1.5-.5-4.5-.7-8.9-.7l-1.2-.4-3.7,25.6c-.7-1.7-2.6-3.6-5.6-5.9-5.7-4.2-13.9-7.2-24.5-8.9-11-2-21.5,2.2-31.7,12.7ZM128.2,273.4c2,2.2,3,4.5,3,6.7h-55.4c1.2-3.2,3.5-6.4,6.7-9.3,6.7-5.9,14.8-8.2,24.5-6.7,10,1.3,17,4.4,21.2,9.3Z" fill="#3c4441"/>
  <path d="M131.2,280.1c0-2.2-1-4.5-3-6.7-4.2-4.9-11.2-8-21.2-9.3-9.7-1.5-17.8.8-24.5,6.7-3.2,2.9-5.5,6.1-6.7,9.3h55.4Z" fill="#fff"/>
  <path d="M162.4,229.9l23.4,13.4,33.1-3-15.6-27.1-65-1.9v.4c-6.7,18.3-10.5,27.5-11.2,27.5l35.3,6.3v-15.6Z" fill="#879b90"/>
  <path d="M185.8,243.3l-23.4-13.4v15.6l-35.3-6.3c.7,0,4.5-9.2,11.2-27.5l-16.4-.4-1.1.4h10.4l-11.9,33.8,20.8,1.5,1.2.4c4.4,0,7.4.2,8.9.7l18.9,1.5-.3-10.1,12.2,11.2,16.4-2.2h.8c.7,0,2.3-.3,4.7-.8,2-.2,3.7-.3,4.9-.3v-.4l20.9-2.6-19.4-31.2h-6l15.6,27.1-33.1,3Z" fill="#48524d"/>
</svg>