<?xml version="1.0" encoding="UTF-8"?>
<svg id="a" xmlns="http://www.w3.org/2000/svg" width="1.544in" height=".786in" version="1.1" viewBox="0 0 111.163 56.617">
  <path d="M92.326,1c9.835,0,17.837,8.002,17.837,17.837s-8.002,17.837-17.837,17.837H18.837C9.002,36.674,1,28.673,1,18.837S9.002,1,18.837,1h73.488M92.326,0H18.837C8.477,0,0,8.477,0,18.837h0c0,10.361,8.477,18.837,18.837,18.837h73.488c10.36,0,18.837-8.477,18.837-18.837h0c0-10.361-8.477-18.837-18.837-18.837h0Z" fill="#999"/>
  <text transform="translate(13.731 24.362)" fill="#999" font-family="Helvetica, Helvetica" font-size="18.481"><tspan x="0" y="0">Advanced</tspan></text>
</svg>
