<?xml version="1.0" encoding="UTF-8"?><svg id="a" xmlns="http://www.w3.org/2000/svg" viewBox="0 0 161.0465 55.5704"><rect x="0" y="0" width="161.0465" height="37.6744" rx="18.8372" ry="18.8372" fill="#1a73e8"/><path d="M28.3254,11.1276c1.6079,0,2.8228.2373,3.645.7109.8218.4741,1.2329,1.2993,1.2329,2.4751,0,.7559-.21,1.3833-.6299,1.8809-.4204.498-1.0259.8193-1.8179.9634v.0898c.54.084,1.0288.2402,1.4668.4678.438.228.7832.5522,1.0352.9722.252.4204.3779.9663.3779,1.6382,0,1.1641-.3989,2.064-1.1973,2.6997-.7979.6362-1.8867.9541-3.2666.9541h-4.5181v-12.8521h3.6719ZM28.6496,16.5997c1.1035,0,1.8599-.1772,2.2676-.5312.4082-.3535.6123-.8789.6123-1.5747,0-.708-.249-1.2153-.7471-1.521-.498-.3062-1.293-.459-2.3848-.459h-2.124v4.0859h2.376ZM26.2737,17.9498v4.6616h2.5918c1.1401,0,1.9321-.2217,2.376-.666.4438-.4438.666-1.0259.666-1.7456,0-.6724-.231-1.2153-.6929-1.6294-.4624-.4141-1.2871-.6206-2.4751-.6206h-2.4658Z" fill="#fff"/><path d="M39.7912,14.1696c1.1758,0,2.0459.2583,2.6099.7739.564.5161.8462,1.3384.8462,2.4663v6.5698h-1.1523l-.3057-1.3682h-.0723c-.4199.5283-.8608.918-1.3228,1.1699-.4624.2524-1.1011.3784-1.917.3784-.876,0-1.6021-.231-2.1782-.6934-.5757-.4614-.8638-1.1846-.8638-2.1689,0-.96.3779-1.7007,1.1338-2.2227s1.9199-.8071,3.4922-.855l1.6377-.0542v-.5762c0-.8037-.1738-1.3618-.522-1.6738s-.8398-.4683-1.4756-.4683c-.5044,0-.9844.0752-1.4404.2251-.4561.1504-.8818.3213-1.2778.5132l-.4858-1.188c.4199-.228.918-.4229,1.4937-.585.5762-.1621,1.1763-.2432,1.8003-.2432ZM40.259,19.3175c-1.1997.0483-2.0312.2402-2.4927.5762-.4624.3359-.6934.8101-.6934,1.4219,0,.54.165.936.4951,1.188s.7529.3779,1.269.3779c.8159,0,1.4941-.2251,2.0342-.6748.54-.4502.8101-1.1431.8101-2.0791v-.8638l-1.4224.0537Z" fill="#fff"/><path d="M50.1052,24.1598c-.8521,0-1.6108-.1743-2.2769-.522-.666-.3481-1.188-.8882-1.5659-1.6201s-.5669-1.668-.5669-2.8081c0-1.188.1978-2.1538.5938-2.8979s.9331-1.29,1.6108-1.6382c.6782-.3477,1.4492-.522,2.313-.522.4922,0,.9658.0513,1.4224.1533.4556.1021.8276.2246,1.1157.3687l-.4858,1.314c-.2881-.1079-.624-.2095-1.0083-.3057-.3838-.0962-.7441-.144-1.0796-.144-1.8965,0-2.8442,1.2178-2.8442,3.6538,0,1.1641.231,2.0552.6929,2.6729.4619.6187,1.1489.9272,2.061.9272.5278,0,.9932-.0542,1.395-.1621s.771-.2397,1.1069-.396v1.4043c-.3237.168-.6812.2969-1.0708.3867-.3901.0898-.8613.1353-1.4131.1353Z" fill="#fff"/><path d="M56.4411,17.4454c0,.1924-.0093.4443-.0273.7563s-.0332.582-.0449.8101h.0723c.0718-.0962.1797-.2344.3237-.4141.144-.1802.291-.3628.4409-.5493.1499-.1855.2793-.3389.3872-.459l3.0781-3.2578h1.854l-3.9062,4.1221,4.1763,5.5259h-1.9082l-3.3481-4.5-1.0977.9541v3.5459h-1.5664v-13.6802h1.5664v7.146Z" fill="#fff"/><path d="M70.0847,22.8634c.2397,0,.4858-.0205.7383-.063.252-.0415.4556-.0869.6118-.1348v1.2061c-.1685.084-.4082.1528-.7202.207-.312.0537-.6118.0811-.8999.0811-.5039,0-.9692-.0874-1.395-.2612s-.771-.4771-1.0352-.9092c-.2637-.4316-.396-1.0376-.396-1.8179v-5.6157h-1.3677v-.7563l1.3857-.6299.6304-2.0518h.936v2.2139h2.7896v1.2241h-2.7896v5.5796c0,.5884.1406,1.0234.4229,1.3052.2817.2822.645.4229,1.0889.4229Z" fill="#fff"/><path d="M81.7488,19.1378c0,1.5957-.4043,2.832-1.2148,3.708-.8101.876-1.9053,1.314-3.2852,1.314-.8521,0-1.6108-.1953-2.2769-.585-.666-.3901-1.1914-.96-1.5752-1.7104-.3843-.7495-.5757-1.6587-.5757-2.7266,0-1.5962.4019-2.8262,1.2056-3.6904.8042-.8638,1.896-1.2959,3.2764-1.2959.8755,0,1.647.1953,2.313.585.666.3901,1.188.9541,1.5664,1.6924.3779.7378.5664,1.6411.5664,2.709ZM74.4587,19.1378c0,1.1401.2251,2.043.6753,2.709.4497.666,1.1665.999,2.1509.999.9717,0,1.6855-.333,2.1421-.999.4556-.666.6836-1.5688.6836-2.709s-.228-2.0342-.6836-2.6821c-.4565-.6479-1.1763-.9722-2.1602-.9722s-1.6982.3242-2.1421.9722-.666,1.542-.666,2.6821Z" fill="#fff"/><path d="M92.9089,21.3156c0,.936-.3486,1.644-1.0439,2.124-.6963.48-1.6328.7202-2.8086.7202-.6719,0-1.251-.0542-1.7363-.1621-.4863-.1079-.916-.2578-1.2871-.4502v-1.4399c.3838.1924.8486.3691,1.3945.5312.5459.1616,1.1006.2427,1.665.2427.8037,0,1.3857-.1289,1.7461-.3867s.54-.603.54-1.0352c0-.2397-.0664-.4561-.1982-.6479s-.3691-.3838-.7109-.5762c-.3418-.1919-.8311-.4077-1.4668-.6479-.624-.2397-1.1582-.4795-1.6016-.7197-.4443-.2402-.7861-.5283-1.0264-.8643s-.3604-.7676-.3604-1.2959c0-.8159.333-1.4458.999-1.8901.666-.4438,1.5391-.666,2.6191-.666.5879,0,1.1367.0571,1.6475.1709.5098.1143.9863.2734,1.4307.4771l-.54,1.2603c-.4082-.168-.834-.312-1.2783-.4321-.4434-.1196-.8994-.1802-1.3672-.1802-.6484,0-1.1436.1055-1.4854.3154s-.5127.4946-.5127.855c0,.2637.0771.4888.2334.6748s.417.3662.7832.54.8545.3809,1.4668.6211c.6123.228,1.1338.4619,1.5664.7017.4316.2402.7617.5312.9902.873.2275.3423.3418.7715.3418,1.2871Z" fill="#fff"/><path d="M98.9021,14.1696c1.1758,0,2.0459.2583,2.6104.7739.5635.5161.8457,1.3384.8457,2.4663v6.5698h-1.1523l-.3057-1.3682h-.0723c-.4199.5283-.8604.918-1.3223,1.1699-.4629.2524-1.1016.3784-1.917.3784-.876,0-1.6025-.231-2.1787-.6934-.5752-.4614-.8633-1.1846-.8633-2.1689,0-.96.3779-1.7007,1.1338-2.2227s1.9199-.8071,3.4922-.855l1.6377-.0542v-.5762c0-.8037-.1738-1.3618-.5225-1.6738-.3477-.312-.8398-.4683-1.4756-.4683-.5039,0-.9844.0752-1.4404.2251-.4561.1504-.8818.3213-1.2773.5132l-.4863-1.188c.4199-.228.918-.4229,1.4941-.585s1.1758-.2432,1.7998-.2432ZM99.3698,19.3175c-1.1992.0483-2.0312.2402-2.4922.5762-.4629.3359-.6934.8101-.6934,1.4219,0,.54.165.936.4951,1.188s.7529.3779,1.2686.3779c.8164,0,1.4941-.2251,2.0342-.6748.54-.4502.8105-1.1431.8105-2.0791v-.8638l-1.4229.0537Z" fill="#fff"/><path d="M109.7927,15.5558h-2.4307v8.4238h-1.584v-8.4238h-1.6914v-.7383l1.6914-.54v-.5576c0-1.248.2764-2.145.8281-2.6914.5518-.5459,1.3203-.8188,2.3047-.8188.3838,0,.7344.0332,1.0527.0991.3174.0659.5908.1411.8184.2251l-.4141,1.2417c-.1914-.0596-.4131-.1196-.665-.1797-.2529-.0601-.5107-.0903-.7744-.0903-.5283,0-.9209.1772-1.1787.5312-.2588.354-.3877.9087-.3877,1.665v.6299h2.4307v1.2241Z" fill="#fff"/><path d="M115.2644,14.1515c.8281,0,1.5391.1802,2.1328.54s1.0498.8672,1.3682,1.521c.3174.6543.4766,1.4194.4766,2.2949v.9541h-6.6055c.0234,1.0923.3027,1.9233.8369,2.4932s1.2803.855,2.2412.855c.6113,0,1.1543-.0571,1.6289-.1709.4736-.1143.9629-.2793,1.4668-.4951v1.3857c-.4922.2163-.9785.3755-1.458.4771-.4805.1021-1.0498.1533-1.71.1533-.9121,0-1.7188-.186-2.4209-.5581s-1.248-.9272-1.6377-1.665c-.3906-.7378-.585-1.6406-.585-2.709,0-1.0557.1768-1.9619.5303-2.7183.3545-.7559.8525-1.3379,1.4941-1.7456.6416-.4082,1.3887-.6123,2.2412-.6123ZM115.2458,15.4474c-.7559,0-1.3525.2432-1.791.729-.4375.4863-.6982,1.1611-.7822,2.0254h4.9141c-.0127-.8159-.2041-1.479-.5762-1.9893-.3721-.5098-.96-.7651-1.7646-.7651Z" fill="#fff"/><path d="M124.9118,22.8634c.2402,0,.4863-.0205.7383-.063.252-.0415.4561-.0869.6123-.1348v1.2061c-.1689.084-.4082.1528-.7207.207-.3115.0537-.6113.0811-.8994.0811-.5039,0-.9697-.0874-1.3955-.2612s-.7705-.4771-1.0352-.9092c-.2637-.4316-.3955-1.0376-.3955-1.8179v-5.6157h-1.3682v-.7563l1.3857-.6299.6309-2.0518h.9355v2.2139h2.79v1.2241h-2.79v5.5796c0,.5884.1406,1.0234.4229,1.3052.2822.2822.6455.4229,1.0889.4229Z" fill="#fff"/><path d="M126.6755,14.3317h1.6924l2.0879,5.4897c.1797.4805.3418.9395.4863,1.3774.1436.438.252.855.3232,1.251h.0723c.0723-.2998.1855-.6934.3418-1.1792s.3184-.9746.4863-1.4668l1.9619-5.4722h1.71l-4.1582,10.98c-.3359.9116-.7705,1.6382-1.3047,2.1777-.5342.54-1.2686.8101-2.2051.8101-.2881,0-.54-.0151-.7559-.0449s-.4023-.063-.5576-.0991v-1.2598c.1318.0239.29.0479.4766.0718.1855.0239.3809.0361.585.0361.5518,0,.999-.1562,1.3408-.4678.3418-.3125.6094-.7266.8008-1.2422l.5039-1.2778-3.8877-9.6841Z" fill="#fff"/></svg>