<?xml version="1.0" encoding="UTF-8"?>
<svg id="Layer_1" xmlns="http://www.w3.org/2000/svg" width="4.093in" height="1.862in" version="1.1" viewBox="0 0 294.708 134.064">
  <!-- Generator: Adobe Illustrator 30.2.1, SVG Export Plug-In . SVG Version: 2.1.1 Build 1)  -->
  <rect x="7.876" y="30.369" width="118.52" height="73.307" fill="none" stroke="#999" stroke-miterlimit="9.998" stroke-width=".5"/>
  <g>
    <text transform="translate(61.149 13.455)" fill="#106935" font-family="Helvetica" font-size="14.297"><tspan x="0" y="0">Actual payload</tspan></text>
  </g>
  <text/>
  <text transform="translate(9.355 39.871)" fill="#106935" font-family="Courier" font-size="11.997"><tspan x="0" y="0">&lt;HTLM&gt;Welcome to</tspan></text>
  <text transform="translate(9.355 51.869)" fill="#106935" font-family="Courier" font-size="11.997"><tspan x="0" y="0" xml:space="preserve"> my nice w3bsit3</tspan></text>
  <text transform="translate(9.355 63.866)" fill="#106935" font-family="Courier" font-size="11.997"><tspan x="0" y="0">! Plz download: </tspan></text>
  <text transform="translate(9.355 75.864)" fill="#106935" font-family="Courier" font-size="11.997"><tspan x="0" y="0">virus.vbs ;)&lt;\HT</tspan></text>
  <text transform="translate(9.355 87.861)" fill="#106935" font-family="Courier" font-size="11.997"><tspan x="0" y="0">ML&gt;</tspan></text>
  <text transform="translate(30.954 87.861)" fill="#3953a4" font-family="Courier" font-size="11.997"><tspan x="0" y="0">MACMACMACMACM</tspan></text>
  <text transform="translate(9.355 99.859)" fill="#3953a4" font-family="Courier" font-size="11.997"><tspan x="0" y="0">ACMACM</tspan></text>
  <text transform="translate(170.901 39.871)" fill="#cc1600" font-family="Courier" font-size="11.997"><tspan x="0" y="0">2938yr@q98a2h3_v</tspan></text>
  <text transform="translate(170.901 51.869)" fill="#cc1600" font-family="Courier" font-size="11.997"><tspan x="0" y="0">#^8w38r7f2348 Ra</tspan></text>
  <text transform="translate(170.901 63.868)" fill="#cc1600" font-family="Courier" font-size="11.997"><tspan x="0" y="0">a3go4((!amfO3inZ</tspan></text>
  <text/>
  <text transform="translate(170.901 75.864)" fill="#cc1600" font-family="Courier" font-size="11.997"><tspan x="0" y="0">39a7FW#*)$rh3201</tspan></text>
  <text transform="translate(170.901 86.856)" fill="#cc1600" font-family="Courier" font-size="11.997"><tspan x="0" y="0">ouj9g734!@f9na@#</tspan></text>
  <text transform="translate(170.901 98.852)" fill="#cc1600" font-family="Courier" font-size="11.997"><tspan x="0" y="0">Zfm934FAbn894fgU</tspan></text>
  <text transform="translate(52.553 99.859)" fill="#ae5526" font-family="Courier" font-size="11.997"><tspan x="0" y="0">PADPADPADP</tspan></text>
  <g>
    <text transform="translate(7.545 129.611)" fill="#3953a4" font-family="Helvetica" font-size="11.915"><tspan x="0" y="0">20-byte “MAC” (hash)</tspan></text>
  </g>
  <g>
    <text transform="translate(79.156 116.523)" fill="#ae5526" font-family="Helvetica" font-size="11.915"><tspan x="0" y="0">Padding to make full block</tspan></text>
  </g>
  <g>
    <text transform="translate(8.62 27.656)" fill="#999" font-family="Courier" font-size="11.997"><tspan x="0" y="0">0123456789ABCDEF</tspan></text>
  </g>
  <text transform="translate(169.238 26.521)" fill="#ba4f9d" font-family="Courier" font-size="11.997"><tspan x="0" y="0">IVIVIVIVIVIVIVIV</tspan></text>
  <rect x="169.891" y="29.905" width="118.52" height="73.307" fill="none" stroke="#999" stroke-miterlimit="9.998" stroke-width=".5"/>
  <rect x="149.915" y="32.843" width="12.88" height="6.442" fill="none" stroke="#000" stroke-miterlimit="10" stroke-width=".75"/>
  <g>
    <path d="M153.402,36.195h-1.7v1.487h1.895v.447h-2.459v-4.124h2.362v.447h-1.797v1.303h1.7v.44Z"/>
    <path d="M154.331,38.128v-4.124h.617l1.402,2.087c.324.483.577.918.785,1.34l.013-.006c-.052-.551-.064-1.052-.064-1.695v-1.726h.532v4.124h-.571l-1.388-2.093c-.305-.459-.597-.93-.818-1.377l-.02.006c.033.52.045,1.016.045,1.701v1.762h-.532Z"/>
    <path d="M161.659,37.994c-.208.098-.623.196-1.155.196-1.233,0-2.161-.734-2.161-2.087,0-1.291.928-2.166,2.284-2.166.545,0,.889.11,1.038.184l-.136.434c-.214-.098-.519-.171-.882-.171-1.025,0-1.706.618-1.706,1.701,0,1.01.617,1.658,1.681,1.658.344,0,.694-.068.921-.171l.117.422Z"/>
  </g>
  <g>
    <circle cx="138.928" cy="36.414" r="3.152" fill="none" stroke="#000" stroke-miterlimit="10" stroke-width=".75"/>
    <line x1="135.811" y1="36.414" x2="142.044" y2="36.414" fill="none" stroke="#000" stroke-miterlimit="10" stroke-width=".75"/>
    <line x1="138.928" y1="33.27" x2="138.928" y2="39.559" fill="none" stroke="#000" stroke-miterlimit="10" stroke-width=".75"/>
  </g>
  <g>
    <line x1="127.674" y1="36.527" x2="133.032" y2="36.527" fill="none" stroke="#000" stroke-miterlimit="10" stroke-width=".75"/>
    <polygon points="132.831 35.023 132.831 38.03 134.334 36.527 132.831 35.023"/>
  </g>
  <g>
    <polyline points="168.935 23.135 138.909 23.164 138.909 30.767" fill="none" stroke="#000" stroke-miterlimit="10" stroke-width=".75"/>
    <polygon points="140.412 30.565 137.405 30.565 138.909 32.068 140.412 30.565"/>
  </g>
  <g>
    <line x1="143.167" y1="36.307" x2="147.516" y2="36.307" fill="none" stroke="#000" stroke-miterlimit="10" stroke-width=".75"/>
    <polygon points="147.315 34.803 147.315 37.81 148.818 36.307 147.315 34.803"/>
  </g>
  <g>
    <line x1="163.642" y1="36.394" x2="169.239" y2="36.394" fill="none" stroke="#000" stroke-miterlimit="10" stroke-width=".75"/>
    <polygon points="169.037 34.891 169.037 37.898 170.54 36.394 169.037 34.891"/>
  </g>
  <rect x="149.915" y="44.385" width="12.88" height="6.442" fill="none" stroke="#000" stroke-miterlimit="10" stroke-width=".75"/>
  <g>
    <path d="M153.402,47.737h-1.7v1.487h1.895v.447h-2.459v-4.124h2.362v.447h-1.797v1.303h1.7v.44Z"/>
    <path d="M154.331,49.671v-4.124h.617l1.402,2.087c.324.483.577.918.785,1.34l.013-.006c-.052-.551-.064-1.052-.064-1.695v-1.726h.532v4.124h-.571l-1.388-2.093c-.305-.459-.597-.93-.818-1.377l-.02.006c.033.52.045,1.016.045,1.701v1.762h-.532Z"/>
    <path d="M161.659,49.536c-.208.098-.623.196-1.155.196-1.233,0-2.161-.734-2.161-2.087,0-1.291.928-2.166,2.284-2.166.545,0,.889.11,1.038.184l-.136.434c-.214-.098-.519-.171-.882-.171-1.025,0-1.706.618-1.706,1.701,0,1.01.617,1.658,1.681,1.658.344,0,.694-.068.921-.171l.117.422Z"/>
  </g>
  <g>
    <circle cx="138.928" cy="47.957" r="3.152" fill="none" stroke="#000" stroke-miterlimit="10" stroke-width=".75"/>
    <line x1="135.811" y1="47.957" x2="142.044" y2="47.957" fill="none" stroke="#000" stroke-miterlimit="10" stroke-width=".75"/>
    <line x1="138.928" y1="44.812" x2="138.928" y2="51.101" fill="none" stroke="#000" stroke-miterlimit="10" stroke-width=".75"/>
  </g>
  <g>
    <line x1="127.674" y1="48.069" x2="133.032" y2="48.069" fill="none" stroke="#000" stroke-miterlimit="10" stroke-width=".75"/>
    <polygon points="132.831 46.566 132.831 49.572 134.334 48.069 132.831 46.566"/>
  </g>
  <g>
    <line x1="143.167" y1="47.849" x2="147.516" y2="47.849" fill="none" stroke="#000" stroke-miterlimit="10" stroke-width=".75"/>
    <polygon points="147.315 46.346 147.315 49.352 148.818 47.849 147.315 46.346"/>
  </g>
  <g>
    <line x1="163.642" y1="47.937" x2="169.239" y2="47.937" fill="none" stroke="#000" stroke-miterlimit="10" stroke-width=".75"/>
    <polygon points="169.037 46.433 169.037 49.44 170.54 47.937 169.037 46.433"/>
  </g>
  <g>
    <polyline points="170.628 38.934 164.453 41.036 138.98 41.036 138.98 42.661" fill="none" stroke="#000" stroke-miterlimit="10" stroke-width=".75"/>
    <polygon points="140.483 42.459 137.476 42.459 138.98 43.962 140.483 42.459"/>
  </g>
  <rect x="149.915" y="56.473" width="12.88" height="6.442" fill="none" stroke="#000" stroke-miterlimit="10" stroke-width=".75"/>
  <g>
    <path d="M153.402,59.825h-1.7v1.487h1.895v.447h-2.459v-4.124h2.362v.447h-1.797v1.303h1.7v.44Z"/>
    <path d="M154.331,61.758v-4.124h.617l1.402,2.087c.324.483.577.918.785,1.34l.013-.006c-.052-.551-.064-1.052-.064-1.695v-1.726h.532v4.124h-.571l-1.388-2.093c-.305-.459-.597-.93-.818-1.377l-.02.006c.033.52.045,1.016.045,1.701v1.762h-.532Z"/>
    <path d="M161.659,61.624c-.208.098-.623.196-1.155.196-1.233,0-2.161-.734-2.161-2.087,0-1.291.928-2.166,2.284-2.166.545,0,.889.11,1.038.184l-.136.434c-.214-.098-.519-.171-.882-.171-1.025,0-1.706.618-1.706,1.701,0,1.01.617,1.658,1.681,1.658.344,0,.694-.068.921-.171l.117.422Z"/>
  </g>
  <g>
    <circle cx="138.928" cy="60.044" r="3.152" fill="none" stroke="#000" stroke-miterlimit="10" stroke-width=".75"/>
    <line x1="135.811" y1="60.044" x2="142.044" y2="60.044" fill="none" stroke="#000" stroke-miterlimit="10" stroke-width=".75"/>
    <line x1="138.928" y1="56.9" x2="138.928" y2="63.189" fill="none" stroke="#000" stroke-miterlimit="10" stroke-width=".75"/>
  </g>
  <g>
    <line x1="127.674" y1="60.157" x2="133.032" y2="60.157" fill="none" stroke="#000" stroke-miterlimit="10" stroke-width=".75"/>
    <polygon points="132.831 58.653 132.831 61.66 134.334 60.157 132.831 58.653"/>
  </g>
  <g>
    <line x1="143.167" y1="59.937" x2="147.516" y2="59.937" fill="none" stroke="#000" stroke-miterlimit="10" stroke-width=".75"/>
    <polygon points="147.315 58.433 147.315 61.44 148.818 59.937 147.315 58.433"/>
  </g>
  <g>
    <line x1="163.642" y1="60.024" x2="169.239" y2="60.024" fill="none" stroke="#000" stroke-miterlimit="10" stroke-width=".75"/>
    <polygon points="169.037 58.521 169.037 61.527 170.54 60.024 169.037 58.521"/>
  </g>
  <g>
    <polyline points="170.628 51.022 164.453 53.124 138.98 53.124 138.98 54.748" fill="none" stroke="#000" stroke-miterlimit="10" stroke-width=".75"/>
    <polygon points="140.483 54.547 137.476 54.547 138.98 56.05 140.483 54.547"/>
  </g>
  <rect x="149.915" y="68.823" width="12.88" height="6.442" fill="none" stroke="#000" stroke-miterlimit="10" stroke-width=".75"/>
  <g>
    <path d="M153.402,72.175h-1.7v1.487h1.895v.447h-2.459v-4.124h2.362v.447h-1.797v1.303h1.7v.44Z"/>
    <path d="M154.331,74.109v-4.124h.617l1.402,2.087c.324.483.577.918.785,1.34l.013-.006c-.052-.551-.064-1.052-.064-1.695v-1.726h.532v4.124h-.571l-1.388-2.093c-.305-.459-.597-.93-.818-1.377l-.02.006c.033.52.045,1.016.045,1.701v1.762h-.532Z"/>
    <path d="M161.659,73.974c-.208.098-.623.196-1.155.196-1.233,0-2.161-.734-2.161-2.087,0-1.291.928-2.166,2.284-2.166.545,0,.889.11,1.038.184l-.136.434c-.214-.098-.519-.171-.882-.171-1.025,0-1.706.618-1.706,1.701,0,1.01.617,1.658,1.681,1.658.344,0,.694-.068.921-.171l.117.422Z"/>
  </g>
  <g>
    <circle cx="138.928" cy="72.395" r="3.152" fill="none" stroke="#000" stroke-miterlimit="10" stroke-width=".75"/>
    <line x1="135.811" y1="72.395" x2="142.044" y2="72.395" fill="none" stroke="#000" stroke-miterlimit="10" stroke-width=".75"/>
    <line x1="138.928" y1="69.25" x2="138.928" y2="75.539" fill="none" stroke="#000" stroke-miterlimit="10" stroke-width=".75"/>
  </g>
  <g>
    <line x1="127.674" y1="72.507" x2="133.032" y2="72.507" fill="none" stroke="#000" stroke-miterlimit="10" stroke-width=".75"/>
    <polygon points="132.831 71.004 132.831 74.01 134.334 72.507 132.831 71.004"/>
  </g>
  <g>
    <line x1="143.167" y1="72.287" x2="147.516" y2="72.287" fill="none" stroke="#000" stroke-miterlimit="10" stroke-width=".75"/>
    <polygon points="147.315 70.784 147.315 73.79 148.818 72.287 147.315 70.784"/>
  </g>
  <g>
    <line x1="163.642" y1="72.374" x2="169.239" y2="72.374" fill="none" stroke="#000" stroke-miterlimit="10" stroke-width=".75"/>
    <polygon points="169.037 70.871 169.037 73.878 170.54 72.374 169.037 70.871"/>
  </g>
  <g>
    <polyline points="170.628 63.372 164.453 65.474 138.98 65.474 138.98 67.099" fill="none" stroke="#000" stroke-miterlimit="10" stroke-width=".75"/>
    <polygon points="140.483 66.897 137.476 66.897 138.98 68.4 140.483 66.897"/>
  </g>
  <rect x="149.915" y="80.911" width="12.88" height="6.442" fill="none" stroke="#000" stroke-miterlimit="10" stroke-width=".75"/>
  <g>
    <path d="M153.402,84.263h-1.7v1.487h1.895v.447h-2.459v-4.124h2.362v.447h-1.797v1.303h1.7v.44Z"/>
    <path d="M154.331,86.196v-4.124h.617l1.402,2.087c.324.483.577.918.785,1.34l.013-.006c-.052-.551-.064-1.052-.064-1.695v-1.726h.532v4.124h-.571l-1.388-2.093c-.305-.459-.597-.93-.818-1.377l-.02.006c.033.52.045,1.016.045,1.701v1.762h-.532Z"/>
    <path d="M161.659,86.062c-.208.098-.623.196-1.155.196-1.233,0-2.161-.734-2.161-2.087,0-1.291.928-2.166,2.284-2.166.545,0,.889.11,1.038.184l-.136.434c-.214-.098-.519-.171-.882-.171-1.025,0-1.706.618-1.706,1.701,0,1.01.617,1.658,1.681,1.658.344,0,.694-.068.921-.171l.117.422Z"/>
  </g>
  <g>
    <circle cx="138.928" cy="84.482" r="3.152" fill="none" stroke="#000" stroke-miterlimit="10" stroke-width=".75"/>
    <line x1="135.811" y1="84.482" x2="142.044" y2="84.482" fill="none" stroke="#000" stroke-miterlimit="10" stroke-width=".75"/>
    <line x1="138.928" y1="81.338" x2="138.928" y2="87.627" fill="none" stroke="#000" stroke-miterlimit="10" stroke-width=".75"/>
  </g>
  <g>
    <line x1="127.674" y1="84.595" x2="133.032" y2="84.595" fill="none" stroke="#000" stroke-miterlimit="10" stroke-width=".75"/>
    <polygon points="132.831 83.091 132.831 86.098 134.334 84.595 132.831 83.091"/>
  </g>
  <g>
    <line x1="143.167" y1="84.374" x2="147.516" y2="84.374" fill="none" stroke="#000" stroke-miterlimit="10" stroke-width=".75"/>
    <polygon points="147.315 82.871 147.315 85.878 148.818 84.374 147.315 82.871"/>
  </g>
  <g>
    <line x1="163.642" y1="84.462" x2="169.239" y2="84.462" fill="none" stroke="#000" stroke-miterlimit="10" stroke-width=".75"/>
    <polygon points="169.037 82.959 169.037 85.965 170.54 84.462 169.037 82.959"/>
  </g>
  <g>
    <polyline points="170.628 75.46 164.453 77.562 138.98 77.562 138.98 79.186" fill="none" stroke="#000" stroke-miterlimit="10" stroke-width=".75"/>
    <polygon points="140.483 78.985 137.476 78.985 138.98 80.488 140.483 78.985"/>
  </g>
  <rect x="149.915" y="92.825" width="12.88" height="6.442" fill="none" stroke="#000" stroke-miterlimit="10" stroke-width=".75"/>
  <g>
    <path d="M153.402,96.177h-1.7v1.487h1.895v.447h-2.459v-4.124h2.362v.447h-1.797v1.303h1.7v.44Z"/>
    <path d="M154.331,98.111v-4.124h.617l1.402,2.087c.324.483.577.918.785,1.34l.013-.006c-.052-.551-.064-1.052-.064-1.695v-1.726h.532v4.124h-.571l-1.388-2.093c-.305-.459-.597-.93-.818-1.377l-.02.006c.033.52.045,1.016.045,1.701v1.762h-.532Z"/>
    <path d="M161.659,97.976c-.208.098-.623.196-1.155.196-1.233,0-2.161-.734-2.161-2.087,0-1.291.928-2.166,2.284-2.166.545,0,.889.11,1.038.184l-.136.434c-.214-.098-.519-.171-.882-.171-1.025,0-1.706.618-1.706,1.701,0,1.01.617,1.658,1.681,1.658.344,0,.694-.068.921-.171l.117.422Z"/>
  </g>
  <g>
    <circle cx="138.928" cy="96.397" r="3.152" fill="none" stroke="#000" stroke-miterlimit="10" stroke-width=".75"/>
    <line x1="135.811" y1="96.397" x2="142.044" y2="96.397" fill="none" stroke="#000" stroke-miterlimit="10" stroke-width=".75"/>
    <line x1="138.928" y1="93.252" x2="138.928" y2="99.541" fill="none" stroke="#000" stroke-miterlimit="10" stroke-width=".75"/>
  </g>
  <g>
    <line x1="127.674" y1="96.509" x2="133.032" y2="96.509" fill="none" stroke="#000" stroke-miterlimit="10" stroke-width=".75"/>
    <polygon points="132.831 95.006 132.831 98.012 134.334 96.509 132.831 95.006"/>
  </g>
  <g>
    <line x1="143.167" y1="96.289" x2="147.516" y2="96.289" fill="none" stroke="#000" stroke-miterlimit="10" stroke-width=".75"/>
    <polygon points="147.315 94.786 147.315 97.792 148.818 96.289 147.315 94.786"/>
  </g>
  <g>
    <line x1="163.642" y1="96.377" x2="169.239" y2="96.377" fill="none" stroke="#000" stroke-miterlimit="10" stroke-width=".75"/>
    <polygon points="169.037 94.873 169.037 97.88 170.54 96.377 169.037 94.873"/>
  </g>
  <g>
    <polyline points="170.628 87.374 164.453 89.477 138.98 89.477 138.98 91.101" fill="none" stroke="#000" stroke-miterlimit="10" stroke-width=".75"/>
    <polygon points="140.483 90.899 137.476 90.899 138.98 92.402 140.483 90.899"/>
  </g>
  <g>
    <line x1="78.131" y1="112.774" x2="70.156" y2="106.377" fill="none" stroke="#ae5526" stroke-miterlimit="10"/>
    <polygon points="71.838 105.864 66.701 103.606 70.02 108.13 71.838 105.864" fill="#ae5526"/>
  </g>
  <g>
    <line x1="132.581" y1="16.226" x2="125.669" y2="27.992" fill="none" stroke="#106935" stroke-miterlimit="10"/>
    <polygon points="124.919 26.402 123.425 31.811 127.424 27.873 124.919 26.402" fill="#106935"/>
  </g>
  <text transform="translate(190.599 13.723)" fill="#ba4f9d" font-family="Helvetica" font-size="11.915"><tspan x="0" y="0">Initialization vector</tspan></text>
  <g>
    <line x1="189.728" y1="8.918" x2="184.949" y2="14.288" fill="none" stroke="#ba4f9d" stroke-miterlimit="10"/>
    <polygon points="184.522 12.582 182.004 17.597 186.693 14.513 184.522 12.582" fill="#ba4f9d"/>
  </g>
  <text transform="translate(7.576 15.082)" font-family="Helvetica" font-size="14.5"><tspan x="0" y="0">In</tspan></text>
  <text transform="translate(261.294 120.027)" font-family="Helvetica" font-size="16.229"><tspan x="0" y="0">Out</tspan></text>
  <g>
    <line x1="17.036" y1="119.212" x2="21.37" y2="106.242" fill="none" stroke="#3953a4" stroke-miterlimit="10"/>
    <polygon points="22.434 107.642 22.774 102.041 19.678 106.722 22.434 107.642" fill="#3953a4"/>
  </g>
</svg>
