<?xml version="1.0" encoding="UTF-8"?>
<svg id="Layer_1" xmlns="http://www.w3.org/2000/svg" width=".333in" height=".333in" version="1.1" viewBox="0 0 24 24">
<path fill="#900" d="M2.316,18.728L10.69,4.263c.583-1.007,2.037-1.007,2.62,0l8.374,14.464c.584,1.009-.144,2.272-1.31,2.272H3.626c-1.166,0-1.895-1.263-1.31-2.272ZM12.876,18.563c.236-.236.353-.528.353-.876s-.118-.64-.353-.876c-.236-.236-.528-.353-.876-.353s-.64.118-.876.353-.353.528-.353.876.118.64.353.876c.236.236.528.353.876.353s.64-.118.876-.353ZM11.185,15.229h1.629c.229,0,.415-.186.415-.415v-5.317c0-.229-.186-.415-.415-.415h-1.629c-.229,0-.415.186-.415.415v5.317c0,.229.186.415.415.415Z"/>
</svg>
