<?xml version="1.0" encoding="UTF-8"?>
<svg id="Layer_1" xmlns="http://www.w3.org/2000/svg" version="1.1" viewBox="0 0 360 360">
  <!-- Generator: Adobe Illustrator 29.3.1, SVG Export Plug-In . SVG Version: 2.1.0 Build 151)  -->
  <defs>
    <style>
      .st0, .st1, .st2, .st3, .st4, .st5 {
        stroke: #000;
      }

      .st0, .st1, .st3, .st4, .st5 {
        fill: none;
      }

      .st0, .st2, .st4 {
        stroke-miterlimit: 10;
      }

      .st1, .st3 {
        stroke-linejoin: round;
      }

      .st1, .st3, .st4, .st5 {
        stroke-width: 3px;
      }

      .st2 {
        fill: #fff;
      }

      .st3, .st5 {
        stroke-linecap: round;
      }

      .st5 {
        stroke-linejoin: bevel;
      }
    </style>
  </defs>
  <line class="st0" x1="9" y1="180" x2="351" y2="180"/>
  <line class="st0" x1="180" y1="351" x2="180" y2="9"/>
  <rect class="st3" x="36" y="90" width="234" height="234"/>
  <line class="st0" x1="9" y1="351" x2="351" y2="9"/>
  <rect class="st1" x="90" y="36" width="234" height="234"/>
  <line class="st1" x1="36" y1="90" x2="90" y2="36"/>
  <line class="st4" x1="270" y1="90" x2="324" y2="36"/>
  <line class="st5" x1="270" y1="324" x2="324" y2="270"/>
  <path class="st1" d="M174.5,192.3c-8.3,3.9-18.9-3.3-20-12.4s5.6-17.9,14.2-21.2,18.2-2,26.8,1.3c6.6,2.6,13,6.6,16.8,12.6s4.4,14.4.1,20.1c-5.2,7-15.2,7.8-24,7.7-2.8,0-5.7-.1-8.2-1.3-4.3-2.1-6.6-7.4-6.1-12.2s3.1-9.2,6.4-12.7c8.4-9,20.9-13.3,33.2-13.8,12.3-.5,24.4,2.6,36.1,6.5,3.6,1.2,8.1,2.3,10.6-.4,1.6-1.7,1.7-4.2,1.7-6.5-.4-16.6-8.3-32.7-20.6-43.9-12.3-11.1-28.8-17.4-45.3-18.2-7.4-.4-15.1.3-21.8,3.6-11.4,5.5-18.5,17.7-20.6,30.1s.3,25.3,3.7,37.5c3.1,11,7.1,22.6,4,33.7-3.8,13.3-17.8,22-31.6,22.2-13.8.1-26.9-7.1-36.4-17.1-6.5-6.9-11.7-15.2-13.5-24.5s-.2-19.4,5.7-26.9c7.3-9.2,19.5-12.8,31.2-14.5,14.9-2.2,30.2-2.1,45,.4,15.9,2.6,31.9,8.2,43.1,19.7,19.8,20.4,19.4,53,33.7,77.6,4.7,8.1,11.5,15.6,20.4,18.7,9.1,3.2,19.5,1.4,27.9-3.4,16.3-9.1,25.5-28.6,24.1-47.1-1.3-18.6-12.3-35.8-27.5-46.6-21.8-15.5-52.3-17.9-76.2-5.8-38.6,19.4-55,69.1-94.3,87.1-12.6,5.8-18.1,10.6-31.9,9.3-9.4-.9-17.8-4.2-24.5-10.9-8.7-8.7-10.3-21.9-11.5-34.1-.7-6.8-1.1-14.4,3.3-19.7,4-4.8,8.4-7.2,14.7-7.3,25.3-.4,43.5,13.1,53.7,36.2,10.3,23.1,2.7,53.5-18.7,67,9.7,4.6,18.9,10.2,27.5,16.7,3.8,2.9,7.7,8.2,4.7,11.8-1.1,1.4-2.9,2-4.7,2.2-9.8,1.5-19.5-5.3-24-14.1s-4.8-19.2-4-29.1c1.5-19.3,7.4-39.3,21.9-52.2,16.7-14.9,41.2-17.2,63.5-15.6,16.3,1.2,32.8,4,47.3,11.5,14.5,7.4,27.1,19.9,31.8,35.5,2.2,7.2,2.3,16.1-3.2,21.2-3,2.8-7.1,4-11.2,4.5-9.6,1.3-19.4-.6-28.7-3.3-50.2-14.3-92.8-53.3-111.5-102.1-4.4-11.6-7.6-23.8-7-36.2s5.3-24.9,14.6-33c7.8-6.9,18.3-10.1,28.6-11.3,19.8-2.3,40.3,2.7,56.9,13.8s29,28.2,34.4,47.4c2.6,9.3,3.6,19.4.2,28.4-4,10.6-13.4,18.3-23.3,23.9-21.9,12.4-47.2,17.1-70.6,26.2-3.3,1.3-6.9,3.1-7.6,6.6-.3,1.9.4,3.8,1.2,5.6,10.4,23.6,35.4,40,61.2,40,25.8,0,50.9-16.2,61.4-39.8,8.2-18.5,7.5-40.4-.3-59-7.8-18.7-22.3-34.1-39.6-44.7-9.2-5.6-19.4-10-30.2-10.7-20.9-1.4-41.5,12.4-49.7,31.6-8.2,19.3-4.4,42.7,8.2,59.4,12.6,16.7,33.1,26.7,54,28,14.5.9,29.3-2.2,41.6-9.9s21.8-20,25-34.1c3.7-16.2-1-33-6.5-48.6-8.2-23.2-19.9-47-41.1-59.3-26.5-15.4-60.6-8.9-89.2-19.9-4.4-1.7-9.4-5.5-8-10,1-3.3,4.8-4.6,8.2-5.3,24.6-5.6,50.5-5.6,75.2,0,15.2,3.4,30.4,9.3,41.1,20.7s15.4,29.3,8.1,43c-5.4,10.1-16.1,16.2-26.6,21-19.6,8.9-40.6,14.8-61.9,17.7-11.2,1.5-22.8,2.1-33.5-1.6-4.9-1.7-9.6-4.3-12.7-8.4-2.7-3.6-4.1-8.1-4.6-12.6-1.9-17,8.3-33.8,22.4-43.5,14.1-9.7,31.6-13.3,48.7-14.4,19.9-1.3,40.2.6,58.9,7.3,18.7,6.8,35.9,18.6,47.4,34.9,8.1,11.6,13.2,27,7.5,40-3.4,7.8-10.2,13.4-16.8,18.8-21.2,17.2-43.4,34.1-69.3,43-36.2,12.4-76.2,7.9-113.1,18.1-4.7,1.3-10.2,3.9-10.5,8.8-.1,2.2,1,4.3,2.2,6.2,10.4,15.9,32.4,21.9,50.5,16.1s31.9-21.7,38-39.6c6.1-18,5.3-37.7.8-56.2-7.1-29.1-25.5-57.8-54.2-66.4-7.1-2.1-15.2-2.8-21.4,1-4.2,2.5-7,6.8-9.2,11.1-9.2,18.6-7.6,40.9-1.6,60.7,4.3,14.4,11,28.4,21,39.6,13.3,14.9,31.7,24.2,50.5,31.1,16.3,6.1,33.3,10.6,50.6,11.7,14.5.9,29.2-.8,43.2-4.9,9.8-2.9,19.4-7,26.8-14,10.6-10.1,15.5-25.2,15.4-39.9-.1-14.7-4.9-28.9-11-42.2-8.6-18.5-20.7-36.2-38.2-46.7-17.5-10.5-41.2-12.5-57.9-.8-12.1,8.4-18.9,22.2-27.4,34.2s-21.1,23.4-35.7,22.3c-6.6-.5-12.7-3.4-18.3-6.7-9.4-5.6-18.1-12.4-25.6-20.3-2.8-2.9-5.5-6.1-6.2-10.1-.9-5.6,2.8-11.1,7.6-14.1s10.6-3.9,16.2-4.8c23.1-3.4,46.7-5.8,69.7-1.7s45.5,15.3,59,34.4c13.4,19.1,15.7,46.8,1.8,65.5-9.6,13-25,20.2-40.4,24.8-23.1,6.9-47.5,9.2-71.5,6.6-16.5-1.8-33.9-6.6-44.5-19.3-13.2-15.8-11.6-40.7.6-57.2s33.1-25,53.7-26,40.8,4.8,59.8,12.6,37.2,17.5,56.4,24.9c12.2,4.7,27.7,7.9,36.8-1.5,7.2-7.3,6.7-19.4,3-28.9-5.5-14.1-18.7-26.1-33.8-26-8.7,0-16.9,3.9-24.4,8.5-26.2,16.1-46.4,41.7-56,70.9-4.6,13.9-7.9,30.2-20.6,37.7-6.6,3.9-14.6,4.5-22.2,4-20.5-1.2-40.1-9.2-57.6-20-6.4-3.9-12.8-8.5-16.1-15.3-3.9-7.9-2.7-17.3.2-25.6,2.5-7.2,6.3-14.1,12.1-19.1,12.5-11,31.2-10.9,47.6-7.6,37.6,7.5,72.2,29.1,95.5,59.5,19.1,24.9,32.2,56.8,60.1,71.3,5,2.6,11.4,4.5,16.1,1.4,2.6-1.6,4.1-4.4,5.5-7.1,14-26.7,20-57.6,17-87.6-1-10.2-3.1-20.5-8.6-29.1-5.5-8.6-14.9-15.3-25.1-15.2-8.1,0-15.6,4.3-22.5,8.7-39.6,26.1-69.4,65.8-111.3,88-10,5.3-21,9.6-32.3,9.5-13.3-.2-26.3-6.8-34.7-17.1-8.4-10.3-12.1-24.2-10.6-37.4,1.8-16.1,12.3-31.7,27.7-36.8,4.4-1.4,9.1-2,13.6-.7,6.3,1.8,11,6.9,14.8,12.2,8.7,12.3,14,26.7,20.5,40.3,6.5,13.6,14.6,27.2,27.2,35.6,12.6,8.4,30.5,10.3,42.4,1.1,4.8-3.7,8.3-8.9,10.7-14.5,11.4-25.8-.2-57.3-21.1-76.2-20.9-18.9-49.1-27.4-76.8-32.4s-29.1-4.2-55.8-13c-7.1-2.4-16.2-6.2-18-13.5-1.4-5.8,3-12,7.8-15.7s10.7-5.2,16.6-6.4c23-4.7,29.6-4.9,43-4.8s24.7,3.9,35.8,9.5c11.1,5.6,20.8,14.8,24.7,26.6,3.9,11.8,1.1,26.1-8.6,33.9-5.7,4.6-12.9,6.6-19.5,9.7s-13,8.4-14,15.6c-1,7.5,4.1,14.3,9.4,19.8,13.9,14.3,30.6,25.8,49,33.6,2.3,1,4.8,1.9,7.3,1.5,4.8-.8,7.3-6.1,8.7-10.8,10.5-34.4,7.7-71.6.7-106.9,10.7,11.5,21.3,23.8,26.1,38.7,4.9,14.9-13.5,62.2-25.2,72.7"/>
  <circle class="st2" cx="148.5" cy="292.5" r="4.5"/>
  <circle class="st2" cx="274.5" cy="121.5" r="4.5"/>
  <circle class="st2" cx="238.5" cy="58.5" r="4.5"/>
  <circle class="st2" cx="112.5" cy="58.5" r="4.5"/>
  <circle class="st2" cx="193.5" cy="184.5" r="4.5"/>
  <circle class="st2" cx="184.5" cy="112.5" r="4.5"/>
  <circle class="st2" cx="121.5" cy="148.5" r="4.5"/>
  <circle class="st2" cx="247.5" cy="247.5" r="4.5"/>
  <circle class="st2" cx="148.5" cy="238.5" r="4.5"/>
  <circle class="st2" cx="301.5" cy="193.5" r="4.5"/>
  <circle class="st2" cx="103.5" cy="193.5" r="4.5"/>
  <circle class="st2" cx="220.5" cy="193.5" r="4.5"/>
  <circle class="st2" cx="310.5" cy="112.5" r="4.5"/>
  <circle class="st2" cx="139.5" cy="247.5" r="4.5"/>
  <circle class="st2" cx="247.5" cy="103.5" r="4.5"/>
  <circle class="st2" cx="121.5" cy="184.5" r="4.5"/>
  <circle class="st2" cx="238.5" cy="274.5" r="4.5"/>
  <circle class="st2" cx="130.5" cy="157.5" r="4.5"/>
  <circle class="st2" cx="67.5" cy="112.5" r="4.5"/>
  <circle class="st2" cx="247.5" cy="310.5" r="4.5"/>
</svg>