<svg id="Layer_1" data-name="Layer 1" xmlns="http://www.w3.org/2000/svg" width="670.98" height="443.828" viewBox="0 0 670.98 443.828"><title>diagram</title><g id="jeeves"><path d="M209.4,310.17a5,5,0,0,1,2-1.78c1.86-.71,3.91,1,4.36,2.94s-.2,3.93-.76,5.83c-7.12,24.51.34,50.46-5.19,75.21a35.551,35.551,0,0,1-4.5,10.84c-2.13,3.45-4.38,5-7.89,7l-13.36,7.9a54.5,54.5,0,0,1-5.1,2.76,47.4,47.4,0,0,1-6.54,2.29,63.946,63.946,0,0,1-8.09,1.82,76.354,76.354,0,0,1-9.56.54l-19.42.28c-3.16.05-6.65.54-9.81.13-2.39-.32-4.29-.93-6.8-.89a65.879,65.879,0,0,1-10.21-.82,7.191,7.191,0,0,1-2.85-.82c-2.87-1.79-.59-9.44.17-12.09a4.358,4.358,0,0,1,1.26-2.32,4.524,4.524,0,0,1,2.13-.73c5.37,0,11.06-1.09,16.45-1.51q8.75-.641,17.47-1.47c4.9-.44,9.8-1.47,14.7-1.47l2-.24c9.46-1.11,23.18-.81,29-10.17a17.8,17.8,0,0,0,1.93-4.77,49.462,49.462,0,0,0,1.39-18.96c-.31-2.77-1-5.5-1.19-8.29-.59-7.6,2.18-15,4.9-22.16,2.09-5.46,3.93-11.05,6.21-16.42A57.806,57.806,0,0,1,209.4,310.17Z" transform="translate(-4 -0.009)" style="fill:#20b24b"/><text transform="translate(118.78 400.161)" style="isolation:isolate;font-size:13px;fill:#231f20;font-family:SansSerif, SansSerif">[[jeeves]]</text></g><g id="giovanni"><text transform="translate(118.78 319.921)" style="isolation:isolate;font-size:13px;fill:#231f20;font-family:SansSerif, SansSerif">[[giovanni]]</text><path d="M113.26,350.7c-1.72.43-3.89.81-5-.62a4.156,4.156,0,0,1-.66-1.87,44.492,44.492,0,0,1-.25-13.58,27.554,27.554,0,0,1,2.83-8.8,1.675,1.675,0,0,1,.59-.75,1.721,1.721,0,0,1,1.3,0,108.731,108.731,0,0,0,14.81,2.1q15.71,1.511,31.44,3c9.86.94,19.39,2.23,29.33.87a10.075,10.075,0,0,0,5-1.64,6.761,6.761,0,0,0,2.21-3.86,20.771,20.771,0,0,0,.29-4.53c-.07-6.53-.52-13-1.05-19.46a1.633,1.633,0,0,1,.3-1.35,1.563,1.563,0,0,1,.68-.31c2.75-.71,5.5-1,8.23-1.75,2.89-.82,6.29-.92,8.29,1.68a9.321,9.321,0,0,1,1.32,7.48,35.351,35.351,0,0,1-2.78,7.29,87.362,87.362,0,0,0-5.96,18.86c-1.18,5.86-.49,11.56-2.68,17.35-1.44,3.78-3.91,7.3-7.48,9.2a2.123,2.123,0,0,1-1.59.34,2.487,2.487,0,0,1-1.17-1.12,13.382,13.382,0,0,0-10.21-6c-5-.22-10.35-1.48-15.38-2.17-11.11-1.55-22.29-3-33.5-2.78A85.016,85.016,0,0,0,113.26,350.7Z" transform="translate(-4 -0.009)" style="fill:#602670"/></g><g id="bertrand"><text transform="translate(134.1 254.501)" style="isolation:isolate;font-size:13px;fill:#231f20;font-family:SansSerif, SansSerif">[[bertrand]]</text><path d="M116.24,257.63l13.73.82c4.4.26,9,1,13.42.73,8.54-.51,17.16.72,25.77-.17,4.45-.45,9-.81,13.29-2.08,3.18-1,8.43-3.08,8.87-7a5.235,5.235,0,0,1,.35-2,2,2,0,0,1,1.73-.91,3.07,3.07,0,0,1,1.88.82c1.4,1.17,1.9,3.06,2.55,4.77,2.88,7.6,10.47,12.61,15.52,18.79a18.849,18.849,0,0,1,3.16,5,21.063,21.063,0,0,1,1,7.18c.13,5.07.24,10.24-1.26,15.08a4.85,4.85,0,0,1-4.6,4,48.294,48.294,0,0,1-10,.51c-2.17,0-4.55-.16-6.15-1.63s-1.87-3.52-2.12-5.53a46.843,46.843,0,0,0-1.63-9.13,12.383,12.383,0,0,0-5.55-7.18c-2.53-1.34-5.54-1.38-8.41-1.4l-13.47,1c-17.54-.07-33.15-1.12-50.46,1.63a5.13,5.13,0,0,1-2.24,0,4.664,4.664,0,0,1-2.31-1.89,22.51,22.51,0,0,1-4.52-13.55,8.688,8.688,0,0,1,1.06-4.6C107.8,257.55,112.41,257.4,116.24,257.63Z" transform="translate(-4 -0.009)" style="fill:#94a33a"/></g><g id="fennec"><text transform="translate(148.83 189.531)" style="isolation:isolate;font-size:13px;fill:#231f20;font-family:SansSerif, SansSerif">[[fennec]]</text><path d="M127.56,196.27c1-1.37,2.56-3.11,4.36-3.33,3.26-.42,7.13.11,10.47.13q5.58,0,11.18.22,11.19.4,22.32,1.56c6.45.66,12.93,1.52,19.07,3.59,5.72,1.92,11.48,5.35,13.52,11,1,2.76,1,5.72,1.26,8.67.43,4.59,1.54,9.1,2.08,13.68.86,7.35.25,14.75.3,22.13.06,7.67,1.83,14.19,4.68,21.29a4.616,4.616,0,0,1,.5,2.39,3.547,3.547,0,0,1-1.41,2.06,1.667,1.667,0,0,1-.43.25c-.69.21-1.24-.56-1.56-1.21a33.088,33.088,0,0,0-4.44-7.28c-1.41-1.63-3.34-2.72-4.85-4.29-3.81-3.95-8.43-7.4-11-12.37-2.25-4.41-2.56-9.5-2.89-14.42a22.012,22.012,0,0,0-1.49-7.83,18.624,18.624,0,0,0-4.23-5.5,42.662,42.662,0,0,0-8.27-6.32c-7.23-4.16-15.7-5.62-24-6.15s-16.7-.21-25-1.17a6.348,6.348,0,0,1-3.81-1.33c-1.8-1.72-1.13-4.69-.33-7.06A32.191,32.191,0,0,1,127.56,196.27Z" transform="translate(-4 -0.009)" style="fill:#4457a6"/></g><g id="alice"><path d="M263.47,288.29a2.641,2.641,0,0,1,1.79.81,3.06,3.06,0,0,1,.35,1.21q1.11,9.41,1.49,18.87a4.066,4.066,0,0,1-.15,1.63c-.45,1.21-1.91,1.71-3.2,1.78-2.55.13-5-.77-7.55-1.05a31.646,31.646,0,0,0-5.92.08l-17,1.33a50.014,50.014,0,0,0-11.37,1.78,16.9,16.9,0,0,0-9.2,6.54,236.4,236.4,0,0,1-.5-43.63c.08-1,.39-2.26,1.38-2.45.77-.13,1.43.49,2,1.05,4.61,4.86,10.35,8.92,16.91,10.24a46.666,46.666,0,0,0,9.59.61C249.45,287.11,256.18,287.01,263.47,288.29Z" transform="translate(-4 -0.009)" style="fill:#a2d9f2"/><text transform="translate(220.18 277.941)" style="isolation:isolate;font-size:13px;fill:#231f20;font-family:SansSerif, SansSerif">[[alice]]</text></g><g id="dallas"><path d="M411.47,308.82a5,5,0,0,0-2-1.79c-1.85-.71-3.9,1-4.35,2.93s.2,3.93.75,5.84c7.13,24.51-.33,50.45,5.2,75.21a35.551,35.551,0,0,0,4.5,10.84c2.12,3.45,4.37,5,7.88,7.05l13.36,7.84a54.5,54.5,0,0,0,5.1,2.76,47.144,47.144,0,0,0,6.53,2.28,62.49,62.49,0,0,0,8.1,1.83,78.351,78.351,0,0,0,9.55.53l19.43.3c3.15,0,6.65.53,9.8.11,2.4-.32,4.29-.91,6.81-.89a65.618,65.618,0,0,0,10.2-.81,7.538,7.538,0,0,0,2.86-.82c2.86-1.8.59-9.45-.17-12.08a4.387,4.387,0,0,0-1.26-2.33,4.524,4.524,0,0,0-2.13-.73c-5.37,0-11.06-1.1-16.45-1.51q-8.75-.671-17.47-1.47c-4.9-.44-9.85-1.47-14.71-1.47l-2-.24c-9.46-1.12-23.18-.82-29-10.16a18.555,18.555,0,0,1-1.94-4.78,49.443,49.443,0,0,1-1.35-18.95c.31-2.78,1-5.51,1.18-8.28.59-7.62-2.17-15-4.9-22.18-2.08-5.45-3.93-11-6.2-16.42A58.543,58.543,0,0,0,411.47,308.82Z" transform="translate(-4 -0.009)" style="fill:#20b24b"/><text transform="translate(451.21 397.491)" style="isolation:isolate;font-size:13px;fill:#231f20;font-family:SansSerif, SansSerif">[[dallas]]</text></g><g id="henry"><path d="M507.6,349.33c1.73.44,3.9.82,5-.62a4.277,4.277,0,0,0,.66-1.86,44.843,44.843,0,0,0,.24-13.58,27.131,27.131,0,0,0-2.83-8.81,1.72,1.72,0,0,0-.58-.75,1.82,1.82,0,0,0-1.3,0,107.015,107.015,0,0,1-14.81,2.11l-31.44,3c-9.87.93-19.4,2.22-29.33.86a10.133,10.133,0,0,1-5-1.63,6.68,6.68,0,0,1-2.21-3.87,19.6,19.6,0,0,1-.29-4.53c.06-6.49.51-13,1-19.46a1.63,1.63,0,0,0-.29-1.35,1.734,1.734,0,0,0-.68-.3c-2.75-.72-5.51-1-8.24-1.76s-6.29-.92-8.28,1.68a9.129,9.129,0,0,0-1.32,7.48,35.262,35.262,0,0,0,2.77,7.29,87.5,87.5,0,0,1,6.07,18.88c1.17,5.85.49,11.55,2.68,17.34,1.43,3.78,3.9,7.31,7.47,9.2a2.142,2.142,0,0,0,1.59.34,2.431,2.431,0,0,0,1.17-1.11,13.4,13.4,0,0,1,10.21-6c5-.22,10.36-1.47,15.39-2.17,11.1-1.54,22.29-3,33.5-2.77A84.938,84.938,0,0,1,507.6,349.33Z" transform="translate(-4 -0.009)" style="fill:#602670"/><text transform="translate(442.71 322.771)" style="isolation:isolate;font-size:13px;fill:#231f20;font-family:SansSerif, SansSerif">[[henry]]</text></g><g id="ionesco"><path d="M504.63,256.28l-13.74.81c-4.39.27-9,1-13.42.73-8.54-.51-17.16.72-25.77-.16-4.45-.45-9-.77-13.28-2.09-3.19-1-8.43-3.08-8.88-7a5.083,5.083,0,0,0-.35-2,2,2,0,0,0-1.74-.91,3,3,0,0,0-1.88.81c-1.4,1.18-1.91,3.07-2.55,4.77-2.89,7.61-10.48,12.62-15.52,18.79a19.448,19.448,0,0,0-3.16,5,21.253,21.253,0,0,0-1,7.17c-.13,5.06-.24,10.24,1.26,15.08a4.86,4.86,0,0,0,4.6,4,46.89,46.89,0,0,0,10.05.51c2.18,0,4.55-.16,6.15-1.63s1.87-3.53,2.12-5.53a46.582,46.582,0,0,1,1.63-9.12,12.449,12.449,0,0,1,5.54-7.19c2.54-1.34,5.55-1.38,8.42-1.4h11.44c17.54-.06,35.17-.12,52.49,2.66a5.453,5.453,0,0,0,2.24,0,4.767,4.767,0,0,0,2.31-1.87,22.537,22.537,0,0,0,4.52-13.62,8.567,8.567,0,0,0-1-4.6C513.07,256.19,508.46,256.05,504.63,256.28Z" transform="translate(-4 -0.009)" style="fill:#94a33a"/><text transform="translate(449.21 252.151)" style="isolation:isolate;font-size:13px;fill:#231f20;font-family:SansSerif, SansSerif">[[ionesco]]</text></g><g id="ceci"><path d="M493.3,194.91c-1-1.38-2.56-3.1-4.35-3.33-3.27-.43-7.13.11-10.47.12-3.74,0-7.46.08-11.19.22q-11.19.41-22.32,1.56c-6.45.66-12.92,1.53-19.07,3.6-5.72,1.92-11.48,5.35-13.52,11-1,2.75-1,5.72-1.26,8.68-.42,4.59-1.54,9.09-2.08,13.67-.87,7.35-.25,14.75-.29,22.13-.06,7.67-1.83,14.19-4.69,21.29a4.5,4.5,0,0,0-.49,2.39,3.419,3.419,0,0,0,1.41,2.05,1.406,1.406,0,0,0,.42.26c.69.21,1.25-.57,1.56-1.21a33.847,33.847,0,0,1,4.44-7.28c1.41-1.64,3.34-2.72,4.85-4.29,3.81-3.95,8.43-7.4,11-12.38,2.25-4.39,2.57-9.49,2.9-14.42a22.076,22.076,0,0,1,1.48-7.83,18.605,18.605,0,0,1,4.24-5.49,42.33,42.33,0,0,1,8.26-6.33c7.23-4.16,15.71-5.61,24-6.14s16.71-.21,25-1.16a6.448,6.448,0,0,0,3.82-1.34c1.8-1.73,1.13-4.69.32-7.05A32.013,32.013,0,0,0,493.3,194.91Z" transform="translate(-4 -0.009)" style="fill:#4457a6"/><text transform="translate(433.47 187.861)" style="isolation:isolate;font-size:13px;fill:#231f20;font-family:SansSerif, SansSerif">[[ceci]]</text></g><g id="eloise"><path d="M378.78,285.77a47.207,47.207,0,0,0,9.58-.61c6.54-1.33,12.31-5.38,16.91-10.24a2.446,2.446,0,0,1,2-1.05c1,.17,1.29,1.43,1.38,2.45a236.4,236.4,0,0,1-.49,43.63,16.651,16.651,0,0,0-9.2-6.57,49.439,49.439,0,0,0-11.38-1.79l-17-1.33a32.521,32.521,0,0,0-5.92-.09c-2.52.29-5,1.2-7.54,1.06-1.29-.08-2.75-.57-3.2-1.78a3.994,3.994,0,0,1-.16-1.64q.39-9.45,1.5-18.87a2,2,0,0,1,1.87-2h.27C364.68,285.66,371.42,285.75,378.78,285.77Z" transform="translate(-4 -0.009)" style="fill:#a2d9f2"/><text transform="translate(361.14 277.571)" style="isolation:isolate;font-size:13px;fill:#231f20;font-family:SansSerif, SansSerif">[[eloise]]</text></g><g id="mario"><path d="M214.65,31.67c-4-2.37-8.51-4.38-13.2-4.3s-9.59,2.75-11,7.21a24.567,24.567,0,0,1-.85,2.81c-1.44,3.21-6,5.86-8.42,8.51a13.448,13.448,0,0,0-2.9,4.39,9.56,9.56,0,0,0-.43,3c.08,5,3.28,9.56,7.6,12a19.737,19.737,0,0,0,11,2.2c.63,0,7.8-.3,7.71-.55,2.34,6.52,10.37,10.79,17,11a26,26,0,0,0,13.28-3.71c3-1.67,6.13-5.47,9.22-6.55,2.53-.88,5,1.66,8,1.31,4.05-.61,8.67-2.37,10.84-5.84a16.2,16.2,0,0,0,1.4-13.2c-1.36-3.69-4.2-8-7.66-9.92-1.61-.92-1.31-2.45-2.11-3.75a9.573,9.573,0,0,0-3.23-2.8,37.567,37.567,0,0,0-8.88-3.76,38.725,38.725,0,0,0-14.16-1.61,36.989,36.989,0,0,0-7,1.19C219.97,29.56,215.11,31.94,214.65,31.67Z" transform="translate(-4 -0.009)" style="fill:#d783b6"/><text transform="translate(167.66 94.621)" style="isolation:isolate;font-size:14px;fill:#231f20;font-family:SansSerif, SansSerif">[[mario]]</text><path d="M188.93,39.03c.36-5.41,4.76-10.12,10-11.5s11,.31,15.21,3.77" transform="translate(-4 -0.009)" style="fill:none;stroke:#231f20;stroke-miterlimit:10;stroke-width:3px"/><path d="M211.86,35.11a28.889,28.889,0,0,1,22.32-7.56,36.609,36.609,0,0,1,21.61,10.09" transform="translate(-4 -0.009)" style="fill:none;stroke:#231f20;stroke-miterlimit:10;stroke-width:3px"/><path d="M250.31,39.11c3.68-.69,7.23,1.78,9.63,4.64a19.836,19.836,0,0,1,4.92,11.39,13.538,13.538,0,0,1-4.57,11.28,10.38,10.38,0,0,1-11.78,1" transform="translate(-4 -0.009)" style="fill:none;stroke:#231f20;stroke-miterlimit:10;stroke-width:3px"/><path d="M202.51,65.59a20.7,20.7,0,0,0,25.2,11.61,35.131,35.131,0,0,0,9.15-4.76,41.848,41.848,0,0,0,9.15-7.79" transform="translate(-4 -0.009)" style="fill:none;stroke:#231f20;stroke-miterlimit:10;stroke-width:3px"/><path d="M190.8,38.83a22.752,22.752,0,0,0-9.19,6.41,14.35,14.35,0,0,0-3.34,10.51c.72,6,6.16,10.73,12.09,11.92s12.12-.64,17.39-3.64" transform="translate(-4 -0.009)" style="fill:none;stroke:#231f20;stroke-miterlimit:10;stroke-width:3px"/></g><g id="oscar"><path d="M63.92,5.72c-4-2.37-8.51-4.38-13.2-4.3s-9.59,2.75-11,7.21a24.113,24.113,0,0,1-.85,2.81c-1.44,3.21-6,5.86-8.42,8.51a13.448,13.448,0,0,0-2.9,4.39,9.56,9.56,0,0,0-.43,3c.08,5,3.28,9.56,7.6,12a19.737,19.737,0,0,0,11,2.2c.63,0,7.8-.3,7.71-.55,2.34,6.52,10.37,10.79,17,11a25.9,25.9,0,0,0,13.28-3.71c3-1.67,6.13-5.47,9.22-6.55,2.53-.88,5,1.66,8,1.31,4-.61,8.67-2.37,10.84-5.84a16.2,16.2,0,0,0,1.4-13.2c-1.36-3.69-4.2-8-7.66-9.92-1.61-.92-1.31-2.45-2.11-3.75a9.573,9.573,0,0,0-3.23-2.8,37.567,37.567,0,0,0-8.88-3.76A38.931,38.931,0,0,0,77.18,2.11a37.832,37.832,0,0,0-7,1.19C69.24,3.61,64.38,5.99,63.92,5.72Z" transform="translate(-4 -0.009)" style="fill:#c7ff2e"/><text transform="translate(16.93 68.671)" style="isolation:isolate;font-size:14px;fill:#231f20;font-family:SansSerif, SansSerif">[[oscar]]</text><path d="M37.89,13.49c.36-5.41,4.76-10.12,10-11.5s11,.31,15.21,3.77" transform="translate(-4 -0.009)" style="fill:none;stroke:#231f20;stroke-miterlimit:10;stroke-width:3px"/><path d="M60.82,9.54A28.817,28.817,0,0,1,83.18,2.01a36.5,36.5,0,0,1,21.58,10.1" transform="translate(-4 -0.009)" style="fill:none;stroke:#231f20;stroke-miterlimit:10;stroke-width:3px"/><path d="M99.27,13.59c3.68-.69,7.23,1.78,9.63,4.64a19.788,19.788,0,0,1,4.92,11.39,13.551,13.551,0,0,1-4.57,11.28,10.421,10.421,0,0,1-11.78,1.05" transform="translate(-4 -0.009)" style="fill:none;stroke:#231f20;stroke-miterlimit:10;stroke-width:3px"/><path d="M51.47,40.05a20.71,20.71,0,0,0,25.2,11.61,35.739,35.739,0,0,0,9.15-4.76,42.1,42.1,0,0,0,9.15-7.79" transform="translate(-4 -0.009)" style="fill:none;stroke:#231f20;stroke-miterlimit:10;stroke-width:3px"/><path d="M39.76,13.29a22.573,22.573,0,0,0-9.19,6.41,14.34,14.34,0,0,0-3.34,10.51c.72,6,6.16,10.73,12.09,11.92s12.12-.64,17.39-3.64" transform="translate(-4 -0.009)" style="fill:none;stroke:#231f20;stroke-miterlimit:10;stroke-width:3px"/></g><g id="penelope"><path id="drip-2" d="M60.82,112.57a16.75,16.75,0,0,1-33.5,0h0c0-9.25,15.23-26.75,16.75-26.75S60.82,103.32,60.82,112.57Z" transform="translate(-4 -0.009)" style="fill:#d08d00"/><text transform="translate(13.3 147.691)" style="isolation:isolate;font-size:14px;fill:#231f20;font-family:SansSerif, SansSerif">[[penelope]]</text><path d="M60.82,112.57a16.75,16.75,0,0,1-33.5,0h0c0-9.25,15.23-26.75,16.75-26.75S60.82,103.32,60.82,112.57Z" transform="translate(-4 -0.009)" style="fill:none;stroke:#231f20;stroke-miterlimit:10;stroke-width:3px"/></g><g id="attic"><polygon points="247.52 11.931 314.58 152.241 107.67 152.241 187.02 11.931 247.52 11.931" style="fill:none;stroke:#939598;stroke-miterlimit:10"/><text transform="translate(140.67 143.311)" style="isolation:isolate;font-size:22.13295555114746px;fill:#231f20;font-family:ArialMT, Arial">4F attic</text></g><text transform="translate(622.13 39.821)" style="isolation:isolate;font-size:22.13295555114746px;fill:#231f20;font-family:ArialMT, Arial">2F<tspan x="0" y="18">bed</tspan></text><g id="naomi"><path id="drip" d="M278.18,107.19a16.75,16.75,0,0,1-33.5,0c0-9.25,15.23-26.75,16.75-26.75S278.18,97.94,278.18,107.19Z" transform="translate(-4 -0.009)" style="fill:#38e86f"/><text transform="translate(240.66 142.311)" style="isolation:isolate;font-size:14px;fill:#231f20;font-family:SansSerif, SansSerif">[[naomi]]</text><path d="M278.18,107.19a16.75,16.75,0,0,1-33.5,0c0-9.25,15.23-26.75,16.75-26.75S278.18,97.94,278.18,107.19Z" transform="translate(-4 -0.009)" style="fill:none;stroke:#231f20;stroke-miterlimit:10;stroke-width:3px"/></g><text transform="translate(0 182.861)" style="isolation:isolate;font-size:22.13295555114746px;fill:#231f20;font-family:ArialMT, Arial">Outside</text><text transform="translate(245.5 436.641)" style="isolation:isolate;font-size:22.13295555114746px;fill:#231f20;font-family:ArialMT, Arial">0F Basement</text><g id="furnace"><path d="M358.12,286.81c13-3.52,28.3,2.32,39.49-5.13,5.72-3.83,9-10.49,10.39-17.24s1.06-13.7,1.05-20.59a230.482,230.482,0,0,1,1.37-25.33c.56-5,1.39-10.35,4.49-14.38,4.08-5.38,11.25-7.31,17.9-8.61,20.343-3.983,35.463-5.418,56.14-3.95" transform="translate(-4 -0.009)" style="fill:none;stroke:#231f20;stroke-miterlimit:10;stroke-width:3px"/><path d="M358.69,311.16a174.5,174.5,0,0,1,33.58.23c3.91.41,8,1.05,11.06,3.55,4.78,3.93,5.24,10.95,5.31,17.15q.26,21.641.53,43.3c.11,9.45.47,19.61,6.24,27.11a34.985,34.985,0,0,0,9.47,8c14.1,8.71,30.66,12.89,47.21,14s33.13-.66,49.51-3.17" transform="translate(-4 -0.009)" style="fill:none;stroke:#231f20;stroke-miterlimit:10;stroke-width:3px"/><path d="M496.95,210.68c-15.044-.084-21.351,1.633-36.22,3.92-11.36,1.75-24.16,5.33-29.15,15.7-2.45,5-2.52,10.86-2.28,16.46a10.334,10.334,0,0,0,.82,4.21c1.06,2.1,3.36,3.22,5.55,4,12.54,4.66,26.35,3.77,39.68,2.81l37.59-2.7" transform="translate(-4 -0.009)" style="fill:none;stroke:#231f20;stroke-miterlimit:10;stroke-width:3px"/><path d="M510.92,279.45c-10.43-1-20.91-1.76-31.34-2.12-9.74-.34-19.61,1.45-29.41.34-3.37-.37-6.74-1-10.12-.76s-6.87,1.56-8.84,4.32a15.991,15.991,0,0,0-2.2,5.86,121.369,121.369,0,0,0-2.26,37.15,6,6,0,0,0,1,3.27c.91,1.17,2.51,1.52,4,1.76,15.88,2.59,29.94-1.57,45.4-2a256.865,256.865,0,0,0,35.86-3.56" transform="translate(-4 -0.009)" style="fill:none;stroke:#231f20;stroke-miterlimit:10;stroke-width:3px"/><path d="M513.7,351.21c-9.8-2.2-21.5-4.79-31.51-4.52-13.14.34-26.66,3-39.74,4.55-5,.57-10.89,1.71-13.07,6.29a15.006,15.006,0,0,0-.95,6.53c0,9.37-2.39,21.31,3.85,29.16,5.12,6.44,14.1,8,22.27,8.94q26.749,3.1,53.68,3.93c3.91.12,8.17.09,11.25-2.3" transform="translate(-4 -0.009)" style="fill:none;stroke:#231f20;stroke-miterlimit:10;stroke-width:3px"/><path d="M262.46,241.92l-.35,139.66a14.654,14.654,0,0,0,.7,5.5,12,12,0,0,0,3.48,4.43c9.58,8.47,22.81,11.26,35.46,13.08,18.79,2.72,39.53,3.58,55-7.4a7.918,7.918,0,0,0,2.88-3.06,8.528,8.528,0,0,0,.41-3.69q-2.44-74.22-.15-148.51" transform="translate(-4 -0.009)" style="fill:#dfe5c3"/><path d="M358.43,277.98c.08-9.76,1.84-19.37,1.21-29.16-2.95,2.3-4.91,5.51-7.95,7.81a28.544,28.544,0,0,1-9.6,4.74c-3.4.9-7.36,1.39-9.46,4.18-1.38,1.82-1.67,4.23-1.83,6.54-1.2,16.48,1.34,33,1.63,49.53s-1.9,33.88-11.44,47.39c-10.81,15.52-31.61,23.85-49.81,18.7a7.806,7.806,0,0,0-3.35-.48,2.38,2.38,0,0,0-2.11,2.27,2.887,2.887,0,0,0,.58,1.36c3.27,4.8,10.35,8.1,15.72,9.59A63.682,63.682,0,0,0,290.6,402c14.49,2,30.93,5.45,45.53,3.53,7.79-1,14.65-4.79,21-9.37a7.709,7.709,0,0,0,2.12-2c1-1.5.82-3.4.7-5.17-2-25.77-2-51.8-1.77-77.55Z" transform="translate(-4 -0.009)" style="fill:#c1ce76"/><path d="M263.28,241.92l-.35,139.66a14.649,14.649,0,0,0,.69,5.5,12.153,12.153,0,0,0,3.48,4.43c9.59,8.47,22.81,11.26,35.47,13.08,18.79,2.72,39.53,3.58,55-7.4a7.892,7.892,0,0,0,2.87-3.06,8.545,8.545,0,0,0,.42-3.69q-2.441-74.22-.15-148.51" transform="translate(-4 -0.009)" style="fill:none;stroke:#231f20;stroke-miterlimit:10;stroke-width:3px"/><path d="M284.6,328.29a37.6,37.6,0,0,0,8.5,6.67,62.735,62.735,0,0,0,.6-23.69c3.41,3.75,8.8,7.79,13,4.9,1.64-1.14,2.45-3.1,3.17-5a72.888,72.888,0,0,0,4.31-27.46,43.831,43.831,0,0,1,8.78,37.84,22.377,22.377,0,0,0,9.85-13.61,26.632,26.632,0,0,0,9.13,19.91,11.6,11.6,0,0,1,2.68,2.78,8.608,8.608,0,0,1,.87,3.14c1.45,10.16,1,21.32-5.07,29.58C319.5,391.77,275.59,357.26,284.6,328.29Z" transform="translate(-4 -0.009)" style="fill:#f79326;stroke:#231f20;stroke-miterlimit:10;stroke-width:2px"/><path d="M342.6,288.95a17.559,17.559,0,0,0-1.63,15.72,10.27,10.27,0,0,0-.38-18" transform="translate(-4 -0.009)" style="fill:#f79326;stroke:#231f20;stroke-miterlimit:10;stroke-width:2px"/><path d="M275.18,228.87c-6.15,2.07-11.24,5-12.31,12.07-2.37,15.57,18.88,19.5,30.12,20.95a162.815,162.815,0,0,0,39.82.69c7.28-.86,14.75-2.49,20.57-7s9.48-12.41,7-19.31c-3.5-9.85-17.37-10-26.22-10.58C315.3,224.45,293.41,222.71,275.18,228.87Z" transform="translate(-4 -0.009)" style="fill:#ebeed9;stroke:#231f20;stroke-miterlimit:10;stroke-width:3px"/><path d="M262.71,288.44c-13-3.52-28.3,2.32-39.5-5.13-5.71-3.81-9-10.49-10.39-17.24s-1.05-13.7-1-20.59a227.858,227.858,0,0,0-1.38-25.32c-.55-5.07-1.38-10.36-4.48-14.4-4.09-5.37-11.25-7.3-17.89-8.6a235.221,235.221,0,0,0-61.89-3.79" transform="translate(-4 -0.009)" style="fill:none;stroke:#231f20;stroke-miterlimit:10;stroke-width:3px"/><path d="M262.18,312.82a173.545,173.545,0,0,0-33.58.23c-3.92.41-8,1.05-11.06,3.55-4.78,3.93-5.23,11-5.32,17.15q-.24,21.641-.52,43.3c-.12,9.45-.48,19.61-6.25,27.11a34.722,34.722,0,0,1-9.47,8c-14.1,8.71-30.66,12.89-47.19,14s-33.14-.65-49.53-3.15" transform="translate(-4 -0.009)" style="fill:none;stroke:#231f20;stroke-miterlimit:10;stroke-width:3px"/><path d="M115.18,212.95a285.017,285.017,0,0,1,44.93,3.31c11.38,1.76,24.16,5.33,29.15,15.69,2.45,5,2.52,10.88,2.28,16.48a10.265,10.265,0,0,1-.81,4.2c-1.06,2.09-3.35,3.22-5.56,4-12.52,4.66-26.35,3.77-39.68,2.81l-42.86-3.08" transform="translate(-4 -0.009)" style="fill:none;stroke:#231f20;stroke-miterlimit:10;stroke-width:3px"/><path d="M109.91,281.11c10.42-1,20.9-1.77,31.34-2.13,7.72-.27,17.47,1.68,29.42.35,3.36-.37,6.74-1,10.11-.76s6.87,1.56,8.84,4.31a15.789,15.789,0,0,1,2.2,5.86,121.057,121.057,0,0,1,2.26,37.15,6,6,0,0,1-1,3.27c-.91,1.17-2.5,1.52-4,1.76-15.87,2.6-29.93-1.56-45.4-2a255.058,255.058,0,0,1-35.85-3.56" transform="translate(-4 -0.009)" style="fill:none;stroke:#231f20;stroke-miterlimit:10;stroke-width:3px"/><path d="M107.12,352.88c9.8-2.21,21.5-4.8,31.52-4.54,13.14.36,26.66,3.06,39.73,4.55,5,.58,10.89,1.73,13.07,6.3a14.888,14.888,0,0,1,1,6.53c0,9.37,2.39,21.31-3.86,29.16-5.11,6.43-14.1,8-22.26,8.93q-26.809,3.09-53.69,3.91c-3.9.13-8.17.1-11.25-2.29" transform="translate(-4 -0.009)" style="fill:none;stroke:#231f20;stroke-miterlimit:10;stroke-width:3px"/><polygon points="266.2 213.201 266.2 199.931 334.06 199.931 334.06 190.911 354.99 207.871 334.06 223.551 334.06 213.741 266.2 213.201" style="fill:#231f20"/><path d="M274.64,267.69c-1-.17-2.24-.26-2.9.53a3,3,0,0,0-.52,1.52c-3.5,24.34-1,49.08-1.14,73.66,0,3.4-.08,6.9,1.26,10,2.78-2.2,3.45-6.09,3.84-9.61,2.19-19.61,2.32-40.31,12.09-57.44a38.357,38.357,0,0,0,3.31-6.4C294.18,269.43,281.68,268.91,274.64,267.69Z" transform="translate(-4 -0.009)" style="fill:#ebeed9"/></g><rect x="329.95" y="11.931" width="166.98" height="159.98" style="fill:none;stroke:#939598;stroke-miterlimit:10"/><path d="M494.571,191.017c5.428-.4,16.036-.458,21.209-2.148s10.08-4.81,12.833-9.5c3.492-5.955,3.029-13.338,2.46-20.218a23.476,23.476,0,0,0-1.178-6.557,17.371,17.371,0,0,0-4.909-6.528c-7.323-6.5-16.319-11.271-32.319-11.271" transform="translate(-4 -0.009)" style="fill:none;stroke:#231f20;stroke-miterlimit:10;stroke-width:3px;stroke-dasharray:6"/><path d="M502.333,210.677c8.287-1.5,18.318-1.883,22.1-2.97,9.21-2.646,19.577-9.534,23.88-18.1a35,35,0,0,0,3.141-13.566c.274-4.682.125-5.316.4-10,.291-4.975.575-10.034-.578-14.881-1.7-7.13-6.432-13.278-12.232-17.759S515,116,494.571,116" transform="translate(-4 -0.009)" style="fill:none;stroke:#231f20;stroke-miterlimit:10;stroke-width:3px;stroke-dasharray:6"/><text transform="translate(496.93 204.551)" style="isolation:isolate;font-size:18.08247947692871px;fill:#231f20;font-family:ArialMT, Arial">3</text><text transform="translate(515.48 271.581)" style="isolation:isolate;font-size:18.08247947692871px;fill:#231f20;font-family:ArialMT, Arial">2</text><text transform="translate(521.44 341.841)" style="isolation:isolate;font-size:18.08247947692871px;fill:#231f20;font-family:ArialMT, Arial">1</text><text transform="translate(521.44 416.761)" style="isolation:isolate;font-size:18.08247947692871px;fill:#231f20;font-family:ArialMT, Arial">B</text><text transform="translate(80.76 207.861)" style="isolation:isolate;font-size:18.08247947692871px;fill:#231f20;font-family:ArialMT, Arial">3</text><text transform="translate(80.76 276.831)" style="isolation:isolate;font-size:18.08247947692871px;fill:#231f20;font-family:ArialMT, Arial">2</text><text transform="translate(80.76 344.651)" style="isolation:isolate;font-size:18.08247947692871px;fill:#231f20;font-family:ArialMT, Arial">1</text><path d="M516.128,254.51c7,2.11,114.872,13.065,125.732-7.99,3.354-6.5,4.47-13.86,5.13-21.15.93-10.31,1.86-20.65,1.55-31a258.628,258.628,0,0,0-2.69-26.9" transform="translate(-4 -0.009)" style="fill:none;stroke:#231f20;stroke-miterlimit:10;stroke-width:3px;stroke-dasharray:6"/><path d="M663.75,164.32c5.5,33.68,2.908,30.912,1.08,71.51-.56,12.33-2.14,25.87-11.16,34.3-12.971,18.31-127.676,9.455-139.766,9.815" transform="translate(-4 -0.009)" style="fill:none;stroke:#231f20;stroke-miterlimit:10;stroke-width:3px;stroke-dasharray:6"/><text transform="translate(80.76 419.561)" style="isolation:isolate;font-size:18.08247947692871px;fill:#231f20;font-family:ArialMT, Arial">B</text><rect x="503.5" y="11.931" width="166.98" height="159.98" style="fill:none;stroke:#939598;stroke-miterlimit:10"/><path d="M564.52,119.322l61.98,2.048c9.63.32,20.37,1.12,26.87,8.24,3.74,4.1,8.972,12.39,8.972,29.39" transform="translate(-4 -0.009)" style="fill:none;stroke:#231f20;stroke-miterlimit:10;stroke-width:3px"/><path d="M563,143.332c10.781,0,17.938-.012,29.128.909,7.77,0,22.35,1.739,29.96,3.309s20.888,3.409,23.5,16.77" transform="translate(-4 -0.009)" style="fill:none;stroke:#231f20;stroke-miterlimit:10;stroke-width:3px"/><text transform="translate(439.58 36.316)" style="isolation:isolate;font-size:22.13295555114746px;fill:#231f20;font-family:ArialMT, Arial">3F<tspan x="0" y="18">guest</tspan></text><g id="quincy"><path d="M493.062,122.3c-.347-2.4-.344-3.911-2.431-5.4a8.584,8.584,0,0,0-5.551-1.583c-3.668.249-7.387.166-11.09.11-7.943-.122-15.887-.369-23.814-.9-12.971-.873-26.033-2.508-38.917-.774a10.239,10.239,0,0,0-4.41,1.346,7.41,7.41,0,0,0-2.917,5.828,21.927,21.927,0,0,0,1.031,6.651,12.415,12.415,0,0,0,1.137,3.144c1.962,3.365,6.424,4.1,10.3,4.437a478.928,478.928,0,0,0,73.863.654,4.5,4.5,0,0,0,1.713-.347,3.5,3.5,0,0,0,1.525-1.847C495,130.082,493.611,126.089,493.062,122.3Z" transform="translate(-4 -0.009)" style="fill:#99b5b5"/><path d="M491.129,115.675c-11.534-2.395-23.46-1.281-35.239-1.4-16.1-.16-32.234-2.638-48.253-.993" transform="translate(-4 -0.009)" style="fill:none;stroke:#231f20;stroke-miterlimit:10;stroke-width:3px"/><path d="M492.975,135.379a161.871,161.871,0,0,0-17.262-.7c-4.258.13-8.5.6-12.753.836-18.091,1.02-36.179-2.056-54.3-1.857" transform="translate(-4 -0.009)" style="fill:none;stroke:#231f20;stroke-miterlimit:10;stroke-width:3px"/><text transform="translate(422.224 154.535)" style="isolation:isolate;font-size:14px;fill:#231f20;font-family:SansSerif, SansSerif">[[quincy]]</text></g><g id="ridley"><path d="M377.427,26.118c-4-2.37-8.51-4.38-13.2-4.3s-9.59,2.75-11,7.21a25.4,25.4,0,0,1-.85,2.81c-1.44,3.21-6,5.86-8.42,8.51a13.174,13.174,0,0,0-2.9,4.39,9.279,9.279,0,0,0-.43,3c.08,5,3.28,9.56,7.6,12a19.807,19.807,0,0,0,11,2.2c.63,0,7.8-.3,7.71-.55,2.34,6.52,10.37,10.79,16.95,11a25.993,25.993,0,0,0,13.28-3.71c3-1.67,6.13-5.47,9.22-6.55,2.53-.88,5,1.66,8,1.31,4-.61,8.66-2.38,10.83-5.84a16.171,16.171,0,0,0,1.42-13.17c-1.36-3.69-4.2-8-7.66-9.92-1.61-.92-1.31-2.45-2.11-3.75a9.561,9.561,0,0,0-3.23-2.83,37.626,37.626,0,0,0-8.88-3.76,38.782,38.782,0,0,0-14.12-1.64,37.055,37.055,0,0,0-7,1.19C382.747,23.978,377.887,26.358,377.427,26.118Z" transform="translate(-4 -0.009)" style="fill:#ffb3d2"/><path d="M351.707,33.448c.36-5.41,4.76-10.12,10-11.5s11,.31,15.21,3.77" transform="translate(-4 -0.009)" style="fill:none;stroke:#231f20;stroke-miterlimit:10;stroke-width:3px"/><path d="M374.637,29.5a28.812,28.812,0,0,1,22.33-7.53,36.615,36.615,0,0,1,21.61,10.09" transform="translate(-4 -0.009)" style="fill:none;stroke:#231f20;stroke-miterlimit:10;stroke-width:3px"/><path d="M413.087,33.548c3.68-.69,7.23,1.78,9.63,4.64a19.915,19.915,0,0,1,4.92,11.39,13.561,13.561,0,0,1-4.57,11.24,10.369,10.369,0,0,1-11.76,1.09" transform="translate(-4 -0.009)" style="fill:none;stroke:#231f20;stroke-miterlimit:10;stroke-width:3px"/><path d="M365.307,60.008a20.689,20.689,0,0,0,25.18,11.61,35.472,35.472,0,0,0,9.15-4.78,41.844,41.844,0,0,0,9.15-7.79" transform="translate(-4 -0.009)" style="fill:none;stroke:#231f20;stroke-miterlimit:10;stroke-width:3px"/><path d="M353.577,33.248a22.66,22.66,0,0,0-9.19,6.41,14.257,14.257,0,0,0-3.34,10.51c.72,6,6.16,10.73,12.09,11.92s12.12-.64,17.39-3.64" transform="translate(-4 -0.009)" style="fill:none;stroke:#231f20;stroke-miterlimit:10;stroke-width:3px"/><text transform="translate(397.937 84.035)" style="isolation:isolate;font-size:14px;fill:#231f20;font-family:SansSerif, SansSerif">[[ridley]]</text></g><g id="samus"><path id="drip-2-2" data-name="drip" d="M375.75,113.51a16.75,16.75,0,0,1-33.5,0c0-9.25,15.23-26.75,16.75-26.75S375.75,104.26,375.75,113.51Z" transform="translate(-4 -0.009)" style="fill:#835ba5"/><text transform="translate(338.23 151.631)" style="isolation:isolate;font-size:14px;fill:#231f20;font-family:SansSerif, SansSerif">[[samus]]</text><path d="M375.75,113.51a16.75,16.75,0,0,1-33.5,0c0-9.25,15.23-26.75,16.75-26.75S375.75,104.26,375.75,113.51Z" transform="translate(-4 -0.009)" style="fill:none;stroke:#231f20;stroke-miterlimit:10;stroke-width:3px"/></g><g id="luigi"><path d="M551.76,25.28c-4-2.37-8.51-4.38-13.2-4.3s-9.59,2.75-11,7.21a25.247,25.247,0,0,1-.85,2.81c-1.44,3.21-6,5.86-8.42,8.51a13.19,13.19,0,0,0-2.9,4.39,9.3,9.3,0,0,0-.43,3c.08,5,3.28,9.56,7.6,12a19.807,19.807,0,0,0,11,2.2c.63,0,7.8-.3,7.71-.55,2.34,6.52,10.37,10.79,16.95,11a26,26,0,0,0,13.28-3.71c3-1.67,6.13-5.47,9.22-6.55,2.53-.88,5,1.66,8,1.31,4-.61,8.66-2.38,10.83-5.84a16.171,16.171,0,0,0,1.42-13.17c-1.36-3.69-4.2-8-7.66-9.92-1.61-.92-1.31-2.45-2.11-3.75a9.561,9.561,0,0,0-3.23-2.83,37.567,37.567,0,0,0-8.88-3.76,38.777,38.777,0,0,0-14.12-1.64,36.989,36.989,0,0,0-7,1.19C557.08,23.14,552.22,25.52,551.76,25.28Z" transform="translate(-4 -0.009)" style="fill:#31c5f4"/><text transform="translate(558.77 91.535)" style="isolation:isolate;font-size:14px;fill:#231f20;font-family:SansSerif, SansSerif">[[luigi]]</text><path d="M526.04,32.61c.36-5.41,4.76-10.12,10-11.5s11,.31,15.21,3.77" transform="translate(-4 -0.009)" style="fill:none;stroke:#231f20;stroke-miterlimit:10;stroke-width:3px"/><path d="M548.97,28.66a28.809,28.809,0,0,1,22.33-7.53,36.609,36.609,0,0,1,21.61,10.09" transform="translate(-4 -0.009)" style="fill:none;stroke:#231f20;stroke-miterlimit:10;stroke-width:3px"/><path d="M587.42,32.71c3.68-.69,7.23,1.78,9.63,4.64a19.912,19.912,0,0,1,4.92,11.39,13.562,13.562,0,0,1-4.57,11.24,10.371,10.371,0,0,1-11.76,1.09" transform="translate(-4 -0.009)" style="fill:none;stroke:#231f20;stroke-miterlimit:10;stroke-width:3px"/><path d="M539.64,59.17a20.69,20.69,0,0,0,25.18,11.61A35.487,35.487,0,0,0,573.97,66a41.848,41.848,0,0,0,9.15-7.79" transform="translate(-4 -0.009)" style="fill:none;stroke:#231f20;stroke-miterlimit:10;stroke-width:3px"/><path d="M527.91,32.41a22.674,22.674,0,0,0-9.19,6.41,14.261,14.261,0,0,0-3.34,10.51c.72,6,6.16,10.73,12.09,11.92s12.12-.64,17.39-3.64" transform="translate(-4 -0.009)" style="fill:none;stroke:#231f20;stroke-miterlimit:10;stroke-width:3px"/></g><g id="karnov"><path d="M555.038,131.075c-1.178,12.194,9.26,11.937,11.14,12.207,13.7,1,21.13.62,34.86,1.18,6.6.27,16.18,2.29,22.63,3.73s13.6,2.114,17.9,7.114c4.554,7.156,4.446,7.932,6.036,10.172,1.78,2.54,6.32,1.76,8.85,1s5.24-2.41,5.33-5.13c.886-4.766,1.135-9.635.205-13.635-.76-3.31-4.2-12.271-6.285-15.071a26.006,26.006,0,0,0-16.26-10.07,54.675,54.675,0,0,0-9-.31,172.191,172.191,0,0,1-20.56-1c-6.2-.65-12.42-.52-18.68-.85l-20.7-1.05C556.818,118.642,557.318,127.741,555.038,131.075Z" transform="translate(-4 -0.009)" style="fill:#f3ea11"/><text transform="translate(560.43 165.201)" style="isolation:isolate;font-size:14px;fill:#231f20;font-family:SansSerif, SansSerif">[[karnov]]</text></g></svg>