<?xml version="1.0" encoding="UTF-8"?>
<svg id="Layer_1" xmlns="http://www.w3.org/2000/svg" version="1.1" viewBox="0 0 1920 1080">
  <!-- Generator: Adobe Illustrator 30.7.0, SVG Export Plug-In . SVG Version: 2.1.4 Build 114)  -->
  <g opacity=".05">
    <rect width="1920" height="1080" fill="#fff"/>
  </g>
  <line y1="960" x2="1920" y2="960" fill="none" stroke="#e00" stroke-dasharray="12" stroke-miterlimit="10"/>
  <line y1="100" x2="1920" y2="100" fill="none" stroke="aqua" stroke-dasharray="12" stroke-miterlimit="10"/>
  <rect x="440" width="100" height="100" fill="#aff"/>
  <rect x="440" y="960" width="100" height="120" fill="#faa"/>
  <g isolation="isolate">
    <g isolation="isolate">
      <g isolation="isolate">
        <text transform="translate(360 70)" font-family="ArialMT, Arial" font-size="48" isolation="isolate"><tspan x="0" y="0">0 B</tspan></text>
      </g>
    </g>
  </g>
  <g isolation="isolate">
    <g isolation="isolate">
      <g isolation="isolate">
        <text transform="translate(360.0001 1034.9998)" font-family="ArialMT, Arial" font-size="48" isolation="isolate"><tspan x="0" y="0">0 A</tspan></text>
      </g>
    </g>
  </g>
  <rect x="20" y="960" width="100" height="120" fill="#faa"/>
  <g isolation="isolate">
    <g isolation="isolate">
      <g isolation="isolate">
        <text transform="translate(135.0001 1059.9998)" font-family="ArialMT, Arial" font-size="48" isolation="isolate"><tspan x="0" y="0">0 B</tspan></text>
      </g>
    </g>
  </g>
  <rect x="20" width="100" height="100" fill="#aff"/>
  <g isolation="isolate">
    <g isolation="isolate">
      <g isolation="isolate">
        <text transform="translate(135.0001 65)" font-family="ArialMT, Arial" font-size="48" isolation="isolate"><tspan x="0" y="0">0 A</tspan></text>
      </g>
    </g>
  </g>
  <polygon points="20 100 20 290 215 510 215 535 0 310 0 100 20 100" fill="#0057ee"/>
  <path d="M405,641c21.505,0,39,17.495,39,39s-17.495,39-39,39-39-17.495-39-39,17.495-39,39-39M405,701c11.579,0,21-9.421,21-21s-9.421-21-21-21-21,9.421-21,21,9.421,21,21,21M405,640c-22.0909,0-40,17.909-40,40s17.9091,40,40,40,40-17.909,40-40-17.9091-40-40-40h0ZM405,700c-11.046,0-20-8.954-20-20s8.954-20,20-20,20,8.954,20,20-8.954,20-20,20h0Z" fill="#f0f"/>
  <rect x="540" y="560" width="20" height="420" fill="#0057ee"/>
  <polygon points="425 720 370 720 420 840 420 960 440 960 440 840 425 720" fill="#0057ee"/>
  <polygon points="120 605 120 960 140 960 140 930 160 630 160 605 120 605" fill="#fff299"/>
  <polygon points="540 100 540 440 400 580 400 610 560 455 560 100 540 100" fill="#fff299"/>
  <rect y="400" width="20" height="560" fill="#fff299"/>
  <path d="M140,526c21.505,0,39,17.495,39,39s-17.495,39-39,39-39-17.495-39-39,17.495-39,39-39M140,586c11.579,0,21-9.421,21-21s-9.421-21-21-21-21,9.421-21,21,9.421,21,21,21M140,525c-22.091,0-40,17.909-40,40s17.909,40,40,40,40-17.909,40-40-17.909-40-40-40h0ZM140,585c-11.046,0-20-8.954-20-20s8.954-20,20-20,20,8.954,20,20-8.954,20-20,20h0Z" fill="#f0f"/>
  <polygon points="385 580 185 580 185 560 365 560 365 440 385 440 385 580" fill="none" stroke="#ffdf00" stroke-miterlimit="10"/>
  <rect x="210" y="580" width="10" height="20" fill="#6b00ee"/>
  <rect x="325" y="580" width="10" height="20" fill="#6b00ee"/>
  <rect x="210" y="540" width="10" height="20" fill="#6b00ee"/>
  <rect x="325" y="540" width="10" height="20" fill="#6b00ee"/>
  <rect x="325" y="700" width="10" height="20" fill="#6b00ee"/>
  <rect x="325" y="660" width="10" height="20" fill="#6b00ee"/>
  <rect x="225" y="700" width="10" height="20" fill="#6b00ee"/>
  <rect x="225" y="660" width="10" height="20" fill="#6b00ee"/>
  <polygon points="120 100 120 120 235 370 255 350 140 100 120 100" fill="#0057ee"/>
  <polygon points="420 100 365 395 365 415 385 415 440 120 440 100 420 100" fill="#fff299"/>
  <path d="M260,560h-20v-180h20v180ZM240,680h-40v20h160v-20h-100v-100h-20v100Z" fill="none" stroke="#8480ff" stroke-miterlimit="10"/>
</svg>