<?xml version="1.0" encoding="UTF-8"?>
<svg id="Layer_1" xmlns="http://www.w3.org/2000/svg" version="1.1" viewBox="0 0 3840 1080">
  <!-- Generator: Adobe Illustrator 30.6.0, SVG Export Plug-In . SVG Version: 2.1.4 Build 109)  -->
  <g opacity=".05">
    <rect width="3840" height="1080" fill="#fff"/>
  </g>
  <line y1="960" x2="3840" y2="960" fill="none" stroke="#e00" stroke-dasharray="12" stroke-miterlimit="10"/>
  <line y1="100" x2="3840" y2="100" fill="none" stroke="aqua" stroke-dasharray="12" stroke-miterlimit="10"/>
  <rect x="3620" y="960" width="100" height="120" fill="#faa"/>
  <g isolation="isolate">
    <g isolation="isolate">
      <g isolation="isolate">
        <g isolation="isolate">
          <g isolation="isolate">
            <g isolation="isolate">
              <text transform="translate(3765 1034.9998)" font-family="ArialMT, Arial" font-size="48" isolation="isolate"><tspan x="0" y="0">A</tspan></text>
            </g>
          </g>
        </g>
      </g>
    </g>
  </g>
  <rect x="20" width="100" height="100" fill="#aff"/>
  <g isolation="isolate">
    <g isolation="isolate">
      <g isolation="isolate">
        <g isolation="isolate">
          <g isolation="isolate">
            <g isolation="isolate">
              <text transform="translate(141.378 45)" font-family="ArialMT, Arial" font-size="48" isolation="isolate"><tspan x="0" y="0">A</tspan></text>
            </g>
          </g>
        </g>
      </g>
    </g>
  </g>
  <polygon points="20 325 20 100 0 100 0 330 0 515 3600 900 3600 960 3620 960 3620 885 20 495 20 325" fill="#9e7548"/>
  <polygon points="140 100 120 100 120 120 120 375 3720 765 3720 960 3740 960 3740 745 140 355 140 100" fill="#9e7548"/>
</svg>