<?xml version="1.0" encoding="UTF-8"?>
<svg id="Layer_1" xmlns="http://www.w3.org/2000/svg" width="825" height="1000" version="1.1" viewBox="0 0 825 1000">
  <!-- Generator: Adobe Illustrator 30.5.1, SVG Export Plug-In . SVG Version: 2.1.4 Build 3)  -->
  <rect x="705" width="100" height="100" fill="#aff"/>
  <rect x="585" y="860" width="100" height="140" fill="#faa"/>
  <rect x="685" y="410" width="20" height="590" fill="#c00"/>
  <rect x="565" y="835" width="20" height="165" fill="#c00"/>
  <rect x="265" y="535" width="20" height="80" fill="none" stroke="#f0f" stroke-miterlimit="10"/>
  <path d="M290,701c21.505,0,39,17.495,39,39s-17.495,39-39,39-39-17.495-39-39,17.495-39,39-39M290,761c11.579,0,21-9.421,21-21s-9.421-21-21-21-21,9.421-21,21,9.421,21,21,21M290,700c-22.091,0-40,17.909-40,40s17.909,40,40,40,40-17.909,40-40-17.909-40-40-40h0ZM290,760c-11.046,0-20-8.954-20-20s8.954-20,20-20,20,8.954,20,20-8.954,20-20,20h0Z" fill="#f0f"/>
  <polygon points="265 615 285 615 565 675.882 565 695 315 695 265 695 265 615" fill="#0057ee"/>
  <path d="M805,390v-205l-497.636,115-52.364,120,550-30Z" fill="#00a"/>
  <path d="M85,350v175l135,245-60-400-75-20h0Z" fill="#00a"/>
  <rect x="85" y="80" width="20" height="290" fill="#c7dd00"/>
  <text transform="translate(0 120)" font-family="MyriadPro-Regular, &apos;Myriad Pro&apos;" font-size="48"><tspan x="0" y="0">10</tspan></text>
  <text transform="translate(725 915)" font-family="MyriadPro-Regular, &apos;Myriad Pro&apos;" font-size="48"><tspan x="0" y="0">01</tspan></text>
  <rect x="105" y="80" width="580" height="20" fill="#c7dd00"/>
  <rect x="805" y="100" width="20" height="195" fill="#c7dd00"/>
  <rect x="265" y="415" width="20" height="115" fill="#00b7cc"/>
  <polygon points="305 800 220 800 220 780 305 780 585 815 585 835 305 800" fill="#0c2"/>
</svg>